<?xml version="1.0" encoding="UTF-8" standalone="no"?>
<svg width="202px" height="35px" viewBox="0 0 202 35" version="1.1" xmlns="http://www.w3.org/2000/svg" xmlns:xlink="http://www.w3.org/1999/xlink" xmlns:sketch="http://www.bohemiancoding.com/sketch/ns">
    <!-- Generator: Sketch 3.3.2 (12043) - http://www.bohemiancoding.com/sketch -->
    <title>sprite</title>
    <desc>Created with Sketch.</desc>
    <defs></defs>
    <g id="Page-1" stroke="none" stroke-width="1" fill="none" fill-rule="evenodd" sketch:type="MSPage">
        <g id="sprite" sketch:type="MSArtboardGroup">
            <path d="M7.501,0 C3.375,0 0,3.376 0,7.501 C0,11.626 3.375,15.002 7.501,15.002 C10.548,15.002 13.22,13.174 14.345,10.501 L12.283,9.658 C11.486,11.486 9.657,12.752 7.501,12.752 C4.594,12.752 2.203,10.408 2.203,7.501 C2.203,4.595 4.547,2.25 7.501,2.25 C8.954,2.25 10.314,2.813 11.251,3.751 L9.095,5.907 L15.002,5.907 L15.002,0 L12.798,2.204 C11.439,0.844 9.564,0 7.501,0" id="reload-dark" fill="#000000" sketch:type="MSShapeGroup"></path>
            <g id="cam-dark" sketch:type="MSLayerGroup" transform="translate(17.000000, 0.000000)" fill="#000000">
                <path d="M15.831,9.758 C15.831,6.804 13.421,4.367 10.501,4.367 C7.581,4.367 5.171,6.804 5.171,9.758 C5.171,12.711 7.581,15.149 10.501,15.149 C13.421,15.149 15.831,12.711 15.831,9.758 L15.831,9.758 Z M10.501,13.227 C8.6,13.227 7.071,11.68 7.071,9.758 C7.071,7.836 8.6,6.289 10.501,6.289 C12.401,6.289 13.931,7.836 13.931,9.758 C13.931,11.68 12.401,13.227 10.501,13.227 L10.501,13.227 Z" id="Fill-2" sketch:type="MSShapeGroup"></path>
                <path d="M17.222,2.11 L15.692,2.11 L14.533,0 L6.561,0 L5.356,2.11 L3.78,2.11 C2.25,2.11 0.999,3.376 0.999,4.923 L0.999,12.142 C0.999,13.736 2.25,15.002 3.78,15.002 L6.932,15.002 L6.515,14.768 C6.005,14.486 5.495,13.924 4.985,13.033 L4.939,12.986 L3.734,12.986 C3.317,12.986 2.946,12.611 2.946,12.142 L2.946,4.923 C2.946,4.454 3.27,4.126 3.734,4.126 L6.422,4.126 L7.627,2.016 L13.374,2.016 L14.58,4.126 L17.221,4.126 C17.639,4.126 18.009,4.501 18.009,4.923 L18.009,12.142 C18.009,12.611 17.639,12.986 17.221,12.986 L16.016,12.986 L15.97,13.033 C15.46,13.877 14.95,14.439 14.44,14.768 L14.07,15.002 L17.222,15.002 C18.751,15.002 20.002,13.736 20.002,12.142 L20.002,4.923 C20.002,3.376 18.751,2.11 17.222,2.11" id="Fill-3" sketch:type="MSShapeGroup"></path>
            </g>
            <path d="M42,1.313 L48.3,7.501 L42,13.689 L43.35,15.002 L51,7.501 L43.35,0 L42,1.313" id="arrow-right-dark" fill="#000000" sketch:type="MSShapeGroup"></path>
            <path d="M68.2905129,9.90306667 C67.5808313,9.90306667 66.872317,10.0617333 66.2723559,10.4856 L63.9273718,8.738 L63.9273718,6.9904 C65.5626743,6.6198 66.7089034,5.18953333 66.7089034,3.54846667 C66.7089034,1.58893333 65.0175734,0 62.9994164,0 C60.9812593,0 59.2910966,1.58893333 59.2910966,3.54846667 C59.2910966,5.18953333 60.4361585,6.56653333 62.0726282,6.9904 L62.0726282,8.738 L59.7264769,10.4856 C59.1265158,10.0617333 58.4180014,9.90306667 57.7083198,9.90306667 C55.6901628,9.90306667 54,11.492 54,13.4515333 C54,15.4110667 55.6364697,17 57.7083198,17 C59.7264769,16.9467333 61.3629466,15.3578 61.3629466,13.3982667 C61.3629466,12.8157333 61.1995331,12.2332 60.9263991,11.7039333 L62.9994164,10.2215333 L65.0724337,11.7572 C64.7456066,12.2332 64.6358861,12.8157333 64.6358861,13.3982667 C64.6358861,15.3578 66.2723559,16.9467333 68.2905129,16.9467333 C70.30867,16.9467333 72,15.3578 72,13.3982667 C72,11.4387333 70.3635303,9.90306667 68.2905129,9.90306667 L68.2905129,9.90306667 Z M59.6179236,13.3982667 C59.6179236,14.4046667 58.7448285,15.1991333 57.7083198,15.1991333 C56.6718112,15.1991333 55.7998833,14.4046667 55.7998833,13.3982667 C55.7998833,12.393 56.6718112,11.5985333 57.7083198,11.5985333 C58.7448285,11.5985333 59.6179236,12.393 59.6179236,13.3982667 L59.6179236,13.3982667 Z M62.9994164,1.69433333 C64.035925,1.69433333 64.9090202,2.4888 64.9090202,3.4952 C64.9090202,4.5016 64.035925,5.3482 62.9994164,5.3482 C61.9629077,5.3482 61.0909798,4.55373333 61.0909798,3.54846667 C61.0909798,2.54206667 61.9629077,1.69433333 62.9994164,1.69433333 L62.9994164,1.69433333 Z M70.2001167,13.3982667 C70.2001167,14.4046667 69.3270216,15.1991333 68.2905129,15.1991333 C67.2540043,15.1991333 66.3809091,14.4046667 66.3809091,13.3982667 C66.3809091,12.393 67.2540043,11.5985333 68.2905129,11.5985333 C69.3270216,11.5985333 70.2001167,12.393 70.2001167,13.3982667 L70.2001167,13.3982667 Z" id="share-dark" fill="#000000" sketch:type="MSShapeGroup"></path>
            <path d="M0,35 L22.001,35 L22.001,32.5 L0,32.5 L0,35 Z M0,28.7 L22.001,28.7 L22.001,26.2 L0,26.2 L0,28.7 Z M0,22.5 L22.001,22.5 L22.001,20 L0,20 L0,22.5 Z" id="menu-white" fill="#FFFFFF" sketch:type="MSShapeGroup"></path>
            <path d="M34.0202703,27.5 L40,33.4797297 L38.4797297,35 L32.5,29.0202703 L26.5202703,35 L25,33.4797297 L30.9797297,27.5 L25,21.5202703 L26.5202703,20 L32.5,25.9797297 L38.4797297,20 L40,21.5202703 L34.0202703,27.5" id="close-white" fill="#FFFFFF" sketch:type="MSShapeGroup"></path>
            <path d="M93.8681908,4.25 L93.8681908,4.781 C93.8681908,10.412 89.4968953,17 81.6088061,17 C79.1569292,17 76.9184307,16.469 75,15.3 C75.3190799,15.3 75.6391476,15.406 76.0659046,15.406 C78.0910246,15.406 79.902766,14.556 81.3954276,13.388 C79.4769969,13.388 77.8776461,12.113 77.3451877,10.412 C77.5575783,10.412 77.8776461,10.519 78.1977138,10.519 C78.6244708,10.519 78.9435507,10.519 79.3703076,10.412 C77.4518769,9.987 75.9592154,8.287 75.9592154,6.162 C76.4916737,6.375 77.1318092,6.587 77.8776461,6.587 C76.7050522,5.737 75.9592154,4.462 75.9592154,2.975 C75.9592154,2.125 76.1725938,1.487 76.4916737,0.85 C78.6244708,3.4 81.8221846,5.1 85.3399661,5.206 C85.2332769,4.887 85.2332769,4.569 85.2332769,4.25 C85.2332769,1.913 87.1517076,0 89.4968953,0 C90.7761784,0 91.842083,0.531 92.695597,1.381 C93.6548123,1.169 94.6140277,0.85 95.3598645,0.319 C95.1474739,1.381 94.5073384,2.231 93.5481231,2.762 C94.4006492,2.656 95.2541631,2.444 96,2.125 C95.4665538,2.975 94.7207169,3.719 93.8681908,4.25" id="twitter-dark" fill="#000000" sketch:type="MSShapeGroup"></path>
            <path d="M153.868191,4.25 L153.868191,4.781 C153.868191,10.412 149.496895,17 141.608806,17 C139.156929,17 136.918431,16.469 135,15.3 C135.31908,15.3 135.639148,15.406 136.065905,15.406 C138.091025,15.406 139.902766,14.556 141.395428,13.388 C139.476997,13.388 137.877646,12.113 137.345188,10.412 C137.557578,10.412 137.877646,10.519 138.197714,10.519 C138.624471,10.519 138.943551,10.519 139.370308,10.412 C137.451877,9.987 135.959215,8.287 135.959215,6.162 C136.491674,6.375 137.131809,6.587 137.877646,6.587 C136.705052,5.737 135.959215,4.462 135.959215,2.975 C135.959215,2.125 136.172594,1.487 136.491674,0.85 C138.624471,3.4 141.822185,5.1 145.339966,5.206 C145.233277,4.887 145.233277,4.569 145.233277,4.25 C145.233277,1.913 147.151708,0 149.496895,0 C150.776178,0 151.842083,0.531 152.695597,1.381 C153.654812,1.169 154.614028,0.85 155.359865,0.319 C155.147474,1.381 154.507338,2.231 153.548123,2.762 C154.400649,2.656 155.254163,2.444 156,2.125 C155.466554,2.975 154.720717,3.719 153.868191,4.25" id="twitter-white" fill="#FFFFFF" sketch:type="MSShapeGroup"></path>
            <path d="M120,0 L120,2.02690243 L112.124506,8.2126934 C111.605731,8.64010104 110.98419,8.74619514 110.258893,8.74619514 C109.637352,8.74619514 108.912055,8.53299653 108.393281,8.2126934 L100,1.70659931 L100,0 L120,0 L120,0 Z M118.031621,5.86649826 L120,4.15989896 L120,16 L100.103755,16 L100.103755,3.73350174 L102.072134,5.44010104 L102.072134,12.9060941 L105.80336,8.10659931 L107.357708,9.27969687 L103.833992,13.9730976 L116.37253,13.9730976 L112.953557,9.6 L114.507905,8.42690243 L118.031621,13.0131986 L118.031621,5.86649826 L118.031621,5.86649826 Z M117.098814,2.02690243 L103.626482,2.02690243 L109.741107,6.61319861 C110.051383,6.82639722 110.777668,6.82639722 111.087945,6.61319861 L117.098814,2.02690243 L117.098814,2.02690243 Z" id="email-dark" fill="#000000" sketch:type="MSShapeGroup"></path>
            <path d="M180,0 L180,2.02690243 L172.124506,8.2126934 C171.605731,8.64010104 170.98419,8.74619514 170.258893,8.74619514 C169.637352,8.74619514 168.912055,8.53299653 168.393281,8.2126934 L160,1.70659931 L160,0 L180,0 L180,0 Z M178.031621,5.86649826 L180,4.15989896 L180,16 L160.103755,16 L160.103755,3.73350174 L162.072134,5.44010104 L162.072134,12.9060941 L165.80336,8.10659931 L167.357708,9.27969687 L163.833992,13.9730976 L176.37253,13.9730976 L172.953557,9.6 L174.507905,8.42690243 L178.031621,13.0131986 L178.031621,5.86649826 L178.031621,5.86649826 Z M177.098814,2.02690243 L163.626482,2.02690243 L169.741107,6.61319861 C170.051383,6.82639722 170.777668,6.82639722 171.087945,6.61319861 L177.098814,2.02690243 L177.098814,2.02690243 Z" id="email-white" fill="#FFFFFF" sketch:type="MSShapeGroup"></path>
            <path d="M129.14,19 L129.14,10.3337661 L132.383,10.3337661 L132.868,6.95528666 L129.14,6.95528666 L129.14,4.79933527 C129.14,3.82151018 129.442,3.1544973 131.006,3.1544973 L133,3.1544973 L133,0.133205235 C132.655,0.0917636061 131.471,0 130.094,0 C127.219,0 125.251,1.57379518 125.251,4.46484213 L125.251,6.95528666 L122,6.95528666 L122,10.3337661 L125.251,10.3337661 L125.251,19 L129.14,19" id="facebook-dark" fill="#000000" sketch:type="MSShapeGroup"></path>
            <path d="M187.583276,18.6666667 L187.61503,18.6666667 C189.827213,18.6458333 193.754101,16.9479167 196.982406,13.7708333 C200.221296,10.5833333 201.946586,6.71875 201.967756,4.55208333 C201.988925,2.375 199.723819,0.729166667 197.606898,0.125 C197.384621,0.0625 197.141175,0 196.908314,0 C196.040376,0 195.733423,0.697916667 195.585238,1.04166667 C195.278285,1.71875 194.8549,2.625 194.484439,3.41666667 C194.219824,3.97916667 193.976378,4.5 193.807024,4.875 C193.489486,5.58333333 193.436563,6.13541667 194.145732,6.82291667 L195.087762,7.76041667 C194.759639,8.30208333 194.145732,9.19791667 193.24604,10.0833333 C192.346349,10.96875 191.425488,11.5729167 190.875089,11.8958333 L189.933059,10.96875 C189.75312,10.7916667 189.372074,10.4166667 188.800506,10.4166667 C188.482968,10.4166667 188.207768,10.53125 187.943153,10.6458333 C187.572691,10.8125 187.032877,11.0520833 186.461308,11.3020833 C185.656878,11.6666667 184.736017,12.0833333 184.048018,12.3854167 C183.074234,12.8020833 182.820203,13.3645833 183.116572,14.375 C183.730479,16.4479167 185.392263,18.6666667 187.583276,18.6666667 L187.583276,18.6666667 Z M184.736017,13.8958333 C185.434601,13.59375 186.355462,13.1875 187.170476,12.8125 C187.742045,12.5625 188.260691,12.3229167 188.631152,12.15625 C188.662906,12.1458333 188.69466,12.1354167 188.715829,12.125 C188.726413,12.125 188.726413,12.1354167 188.736998,12.1458333 L190.55755,13.9375 L191.097365,13.6770833 C191.160873,13.6458333 192.812071,12.8645833 194.442101,11.2604167 C196.061545,9.65625 196.865976,8.03125 196.897729,7.96875 L197.15176,7.4375 L195.341792,5.65625 C195.331208,5.64583333 195.320623,5.63541667 195.320623,5.625 C195.331208,5.60416667 195.341792,5.58333333 195.352377,5.55208333 C195.521731,5.17708333 195.754592,4.66666667 196.019207,4.11458333 C196.389668,3.3125 196.813053,2.40625 197.120006,1.71875 L197.130591,1.71875 C198.686528,2.16666667 200.295388,3.34375 200.284803,4.53125 C200.263634,6.0625 198.855881,9.58333333 195.79693,12.59375 C192.727395,15.6041667 189.160382,16.9895833 187.593861,17 L187.583276,17 C186.376631,17 185.191155,15.4375 184.736017,13.9166667 L184.736017,13.8958333 L184.736017,13.8958333 Z" id="phone-white" fill="#FFFFFF" sketch:type="MSShapeGroup"></path>
        </g>
    </g>
</svg>