<?xml version="1.0" encoding="UTF-8" standalone="no"?>
<svg width="313px" height="226px" viewBox="0 0 313 226" version="1.1" xmlns="http://www.w3.org/2000/svg" xmlns:xlink="http://www.w3.org/1999/xlink" xmlns:sketch="http://www.bohemiancoding.com/sketch/ns">
    <!-- Generator: Sketch 3.3.3 (12072) - http://www.bohemiancoding.com/sketch -->
    <title>sprite</title>
    <desc>Created with Sketch.</desc>
    <defs></defs>
    <g id="Sprite" stroke="none" stroke-width="1" fill="none" fill-rule="evenodd" sketch:type="MSPage">
        <g id="sprite" sketch:type="MSArtboardGroup">
            <path d="M7.501,0 C3.375,0 0,3.376 0,7.501 C0,11.626 3.375,15.002 7.501,15.002 C10.548,15.002 13.22,13.174 14.345,10.501 L12.283,9.658 C11.486,11.486 9.657,12.752 7.501,12.752 C4.594,12.752 2.203,10.408 2.203,7.501 C2.203,4.595 4.547,2.25 7.501,2.25 C8.954,2.25 10.314,2.813 11.251,3.751 L9.095,5.907 L15.002,5.907 L15.002,0 L12.798,2.204 C11.439,0.844 9.564,0 7.501,0" id="reload-dark" fill="#000000" sketch:type="MSShapeGroup"></path>
            <g id="cam-dark" sketch:type="MSLayerGroup" transform="translate(146.998000, 0.000000)" fill="#000000">
                <path d="M15.831,9.758 C15.831,6.804 13.421,4.367 10.501,4.367 C7.581,4.367 5.171,6.804 5.171,9.758 C5.171,12.711 7.581,15.149 10.501,15.149 C13.421,15.149 15.831,12.711 15.831,9.758 L15.831,9.758 Z M10.501,13.227 C8.6,13.227 7.071,11.68 7.071,9.758 C7.071,7.836 8.6,6.289 10.501,6.289 C12.401,6.289 13.931,7.836 13.931,9.758 C13.931,11.68 12.401,13.227 10.501,13.227 L10.501,13.227 Z" id="Fill-2" sketch:type="MSShapeGroup"></path>
                <path d="M17.222,2.11 L15.692,2.11 L14.533,0 L6.561,0 L5.356,2.11 L3.78,2.11 C2.25,2.11 0.999,3.376 0.999,4.923 L0.999,12.142 C0.999,13.736 2.25,15.002 3.78,15.002 L6.932,15.002 L6.515,14.768 C6.005,14.486 5.495,13.924 4.985,13.033 L4.939,12.986 L3.734,12.986 C3.317,12.986 2.946,12.611 2.946,12.142 L2.946,4.923 C2.946,4.454 3.27,4.126 3.734,4.126 L6.422,4.126 L7.627,2.016 L13.374,2.016 L14.58,4.126 L17.221,4.126 C17.639,4.126 18.009,4.501 18.009,4.923 L18.009,12.142 C18.009,12.611 17.639,12.986 17.221,12.986 L16.016,12.986 L15.97,13.033 C15.46,13.877 14.95,14.439 14.44,14.768 L14.07,15.002 L17.222,15.002 C18.751,15.002 20.002,13.736 20.002,12.142 L20.002,4.923 C20.002,3.376 18.751,2.11 17.222,2.11" id="Fill-3" sketch:type="MSShapeGroup"></path>
            </g>
            <path d="M17,1.313 L23.3,7.501 L17,13.689 L18.35,15.002 L26,7.501 L18.35,0 L17,1.313" id="arrow-right-dark" fill="#000000" sketch:type="MSShapeGroup"></path>
            <path d="M43.2905129,9.90306667 C42.5808313,9.90306667 41.872317,10.0617333 41.2723559,10.4856 L38.9273718,8.738 L38.9273718,6.9904 C40.5626743,6.6198 41.7089034,5.18953333 41.7089034,3.54846667 C41.7089034,1.58893333 40.0175734,0 37.9994164,0 C35.9812593,0 34.2910966,1.58893333 34.2910966,3.54846667 C34.2910966,5.18953333 35.4361585,6.56653333 37.0726282,6.9904 L37.0726282,8.738 L34.7264769,10.4856 C34.1265158,10.0617333 33.4180014,9.90306667 32.7083198,9.90306667 C30.6901628,9.90306667 29,11.492 29,13.4515333 C29,15.4110667 30.6364697,17 32.7083198,17 C34.7264769,16.9467333 36.3629466,15.3578 36.3629466,13.3982667 C36.3629466,12.8157333 36.1995331,12.2332 35.9263991,11.7039333 L37.9994164,10.2215333 L40.0724337,11.7572 C39.7456066,12.2332 39.6358861,12.8157333 39.6358861,13.3982667 C39.6358861,15.3578 41.2723559,16.9467333 43.2905129,16.9467333 C45.30867,16.9467333 47,15.3578 47,13.3982667 C47,11.4387333 45.3635303,9.90306667 43.2905129,9.90306667 L43.2905129,9.90306667 Z M34.6179236,13.3982667 C34.6179236,14.4046667 33.7448285,15.1991333 32.7083198,15.1991333 C31.6718112,15.1991333 30.7998833,14.4046667 30.7998833,13.3982667 C30.7998833,12.393 31.6718112,11.5985333 32.7083198,11.5985333 C33.7448285,11.5985333 34.6179236,12.393 34.6179236,13.3982667 L34.6179236,13.3982667 Z M37.9994164,1.69433333 C39.035925,1.69433333 39.9090202,2.4888 39.9090202,3.4952 C39.9090202,4.5016 39.035925,5.3482 37.9994164,5.3482 C36.9629077,5.3482 36.0909798,4.55373333 36.0909798,3.54846667 C36.0909798,2.54206667 36.9629077,1.69433333 37.9994164,1.69433333 L37.9994164,1.69433333 Z M45.2001167,13.3982667 C45.2001167,14.4046667 44.3270216,15.1991333 43.2905129,15.1991333 C42.2540043,15.1991333 41.3809091,14.4046667 41.3809091,13.3982667 C41.3809091,12.393 42.2540043,11.5985333 43.2905129,11.5985333 C44.3270216,11.5985333 45.2001167,12.393 45.2001167,13.3982667 L45.2001167,13.3982667 Z" id="share-dark" fill="#000000" sketch:type="MSShapeGroup"></path>
            <path d="M0,35 L22.001,35 L22.001,32.5 L0,32.5 L0,35 Z M0,28.7 L22.001,28.7 L22.001,26.2 L0,26.2 L0,28.7 Z M0,22.5 L22.001,22.5 L22.001,20 L0,20 L0,22.5 Z" id="menu-white" fill="#FFFFFF" sketch:type="MSShapeGroup"></path>
            <path d="M34.0202703,27.5 L40,33.4797297 L38.4797297,35 L32.5,29.0202703 L26.5202703,35 L25,33.4797297 L30.9797297,27.5 L25,21.5202703 L26.5202703,20 L32.5,25.9797297 L38.4797297,20 L40,21.5202703 L34.0202703,27.5" id="close-white" fill="#FFFFFF" sketch:type="MSShapeGroup"></path>
            <path d="M68.8681908,4.25 L68.8681908,4.781 C68.8681908,10.412 64.4968953,17 56.6088061,17 C54.1569292,17 51.9184307,16.469 50,15.3 C50.3190799,15.3 50.6391476,15.406 51.0659046,15.406 C53.0910246,15.406 54.902766,14.556 56.3954276,13.388 C54.4769969,13.388 52.8776461,12.113 52.3451877,10.412 C52.5575783,10.412 52.8776461,10.519 53.1977138,10.519 C53.6244708,10.519 53.9435507,10.519 54.3703076,10.412 C52.4518769,9.987 50.9592154,8.287 50.9592154,6.162 C51.4916737,6.375 52.1318092,6.587 52.8776461,6.587 C51.7050522,5.737 50.9592154,4.462 50.9592154,2.975 C50.9592154,2.125 51.1725938,1.487 51.4916737,0.85 C53.6244708,3.4 56.8221846,5.1 60.3399661,5.206 C60.2332769,4.887 60.2332769,4.569 60.2332769,4.25 C60.2332769,1.913 62.1517076,0 64.4968953,0 C65.7761784,0 66.842083,0.531 67.695597,1.381 C68.6548123,1.169 69.6140277,0.85 70.3598645,0.319 C70.1474739,1.381 69.5073384,2.231 68.5481231,2.762 C69.4006492,2.656 70.2541631,2.444 71,2.125 C70.4665538,2.975 69.7207169,3.719 68.8681908,4.25" id="twitter-dark" fill="#000000" sketch:type="MSShapeGroup"></path>
            <path d="M60.8681908,24.25 L60.8681908,24.781 C60.8681908,30.412 56.4968953,37 48.6088061,37 C46.1569292,37 43.9184307,36.469 42,35.3 C42.3190799,35.3 42.6391476,35.406 43.0659046,35.406 C45.0910246,35.406 46.902766,34.556 48.3954276,33.388 C46.4769969,33.388 44.8776461,32.113 44.3451877,30.412 C44.5575783,30.412 44.8776461,30.519 45.1977138,30.519 C45.6244708,30.519 45.9435507,30.519 46.3703076,30.412 C44.4518769,29.987 42.9592154,28.287 42.9592154,26.162 C43.4916737,26.375 44.1318092,26.587 44.8776461,26.587 C43.7050522,25.737 42.9592154,24.462 42.9592154,22.975 C42.9592154,22.125 43.1725938,21.487 43.4916737,20.85 C45.6244708,23.4 48.8221846,25.1 52.3399661,25.206 C52.2332769,24.887 52.2332769,24.569 52.2332769,24.25 C52.2332769,21.913 54.1517076,20 56.4968953,20 C57.7761784,20 58.842083,20.531 59.695597,21.381 C60.6548123,21.169 61.6140277,20.85 62.3598645,20.319 C62.1474739,21.381 61.5073384,22.231 60.5481231,22.762 C61.4006492,22.656 62.2541631,22.444 63,22.125 C62.4665538,22.975 61.7207169,23.719 60.8681908,24.25" id="twitter-white" fill="#FFFFFF" sketch:type="MSShapeGroup"></path>
            <path d="M95,0 L95,2.02690243 L87.1245059,8.2126934 C86.6057312,8.64010104 85.9841897,8.74619514 85.2588933,8.74619514 C84.6373518,8.74619514 83.9120553,8.53299653 83.3932806,8.2126934 L75,1.70659931 L75,0 L95,0 L95,0 Z M93.0316206,5.86649826 L95,4.15989896 L95,16 L75.1037549,16 L75.1037549,3.73350174 L77.0721344,5.44010104 L77.0721344,12.9060941 L80.8033597,8.10659931 L82.3577075,9.27969687 L78.8339921,13.9730976 L91.3725296,13.9730976 L87.9535573,9.6 L89.5079051,8.42690243 L93.0316206,13.0131986 L93.0316206,5.86649826 L93.0316206,5.86649826 Z M92.0988142,2.02690243 L78.6264822,2.02690243 L84.7411067,6.61319861 C85.0513834,6.82639722 85.777668,6.82639722 86.0879447,6.61319861 L92.0988142,2.02690243 L92.0988142,2.02690243 Z" id="email-dark" fill="#000000" sketch:type="MSShapeGroup"></path>
            <path d="M87,20 L87,22.0269024 L79.1245059,28.2126934 C78.6057312,28.640101 77.9841897,28.7461951 77.2588933,28.7461951 C76.6373518,28.7461951 75.9120553,28.5329965 75.3932806,28.2126934 L67,21.7065993 L67,20 L87,20 L87,20 Z M85.0316206,25.8664983 L87,24.159899 L87,36 L67.1037549,36 L67.1037549,23.7335017 L69.0721344,25.440101 L69.0721344,32.9060941 L72.8033597,28.1065993 L74.3577075,29.2796969 L70.8339921,33.9730976 L83.3725296,33.9730976 L79.9535573,29.6 L81.5079051,28.4269024 L85.0316206,33.0131986 L85.0316206,25.8664983 L85.0316206,25.8664983 Z M84.0988142,22.0269024 L70.6264822,22.0269024 L76.7411067,26.6131986 C77.0513834,26.8263972 77.777668,26.8263972 78.0879447,26.6131986 L84.0988142,22.0269024 L84.0988142,22.0269024 Z" id="email-white" fill="#FFFFFF" sketch:type="MSShapeGroup"></path>
            <path d="M104.14,19 L104.14,10.3337661 L107.383,10.3337661 L107.868,6.95528666 L104.14,6.95528666 L104.14,4.79933527 C104.14,3.82151018 104.442,3.1544973 106.006,3.1544973 L108,3.1544973 L108,0.133205235 C107.655,0.0917636061 106.471,0 105.094,0 C102.219,0 100.251,1.57379518 100.251,4.46484213 L100.251,6.95528666 L97,6.95528666 L97,10.3337661 L100.251,10.3337661 L100.251,19 L104.14,19" id="facebook-dark" fill="#000000" sketch:type="MSShapeGroup"></path>
            <path d="M94.583276,38.6666667 L94.6150299,38.6666667 C96.8272125,38.6458333 100.754101,36.9479167 103.982406,33.7708333 C107.221296,30.5833333 108.946586,26.71875 108.967756,24.5520833 C108.988925,22.375 106.723819,20.7291667 104.606898,20.125 C104.384621,20.0625 104.141175,20 103.908314,20 C103.040376,20 102.733423,20.6979167 102.585238,21.0416667 C102.278285,21.71875 101.8549,22.625 101.484439,23.4166667 C101.219824,23.9791667 100.976378,24.5 100.807024,24.875 C100.489486,25.5833333 100.436563,26.1354167 101.145732,26.8229167 L102.087762,27.7604167 C101.759639,28.3020833 101.145732,29.1979167 100.24604,30.0833333 C99.3463488,30.96875 98.425488,31.5729167 97.8750885,31.8958333 L96.9330586,30.96875 C96.7531203,30.7916667 96.3720745,30.4166667 95.8005057,30.4166667 C95.4829676,30.4166667 95.2077678,30.53125 94.9431527,30.6458333 C94.5726914,30.8125 94.0328765,31.0520833 93.4613078,31.3020833 C92.6568778,31.6666667 91.736017,32.0833333 91.0480176,32.3854167 C90.0742339,32.8020833 89.8202033,33.3645833 90.1165723,34.375 C90.7304795,36.4479167 92.3922626,38.6666667 94.583276,38.6666667 L94.583276,38.6666667 Z M91.736017,33.8958333 C92.434601,33.59375 93.3554617,33.1875 94.1704764,32.8125 C94.7420451,32.5625 95.2606908,32.3229167 95.631152,32.15625 C95.6629059,32.1458333 95.6946597,32.1354167 95.7158289,32.125 C95.7264135,32.125 95.7264135,32.1354167 95.7369981,32.1458333 L97.5575503,33.9375 L98.0973653,33.6770833 C98.1608729,33.6458333 99.8120714,32.8645833 101.442101,31.2604167 C103.061545,29.65625 103.865976,28.03125 103.897729,27.96875 L104.15176,27.4375 L102.341792,25.65625 C102.331208,25.6458333 102.320623,25.6354167 102.320623,25.625 C102.331208,25.6041667 102.341792,25.5833333 102.352377,25.5520833 C102.521731,25.1770833 102.754592,24.6666667 103.019207,24.1145833 C103.389668,23.3125 103.813053,22.40625 104.120006,21.71875 L104.130591,21.71875 C105.686528,22.1666667 107.295388,23.34375 107.284803,24.53125 C107.263634,26.0625 105.855881,29.5833333 102.79693,32.59375 C99.7273946,35.6041667 96.1603823,36.9895833 94.5938607,37 L94.583276,37 C93.376631,37 92.1911551,35.4375 91.736017,33.9166667 L91.736017,33.8958333 L91.736017,33.8958333 Z" id="phone-white" fill="#FFFFFF" sketch:type="MSShapeGroup"></path>
            <path d="M186.98453,5 C186.841211,5 186.697892,5.03125 186.56481,5.08333333 L184.394552,5.98958333 L184.394552,5.83333333 C184.394552,4.45833333 183.299185,3.33333333 181.937655,3.33333333 L181.087978,3.33333333 L180.166642,0.5625 C180.054034,0.229166667 179.736685,0 179.388625,0 L171.291103,0 L171.291103,1.66666667 L178.805112,1.66666667 L179.910716,5 L181.937655,5 C182.388086,5 182.756621,5.375 182.756621,5.83333333 L182.756621,12.5 C182.756621,12.9583333 182.388086,13.3333333 181.937655,13.3333333 L171.454897,13.3333333 C171.004466,13.3333333 170.635931,12.9583333 170.635931,12.5 L170.635931,5.83333333 C170.635931,5.375 171.004466,5 171.454897,5 L178.180651,5 L177.627849,3.33333333 L171.454897,3.33333333 C170.103603,3.33333333 168.998,4.45833333 168.998,5.83333333 L168.998,12.5 C168.998,13.8854167 170.103603,15 171.454897,15 L181.937655,15 C183.299185,15 184.394552,13.8854167 184.394552,12.5 L184.394552,12.0104167 L186.56481,12.9166667 C186.697892,12.96875 186.841211,13 186.98453,13 C187.547569,13 187.998,12.5416667 187.998,11.9479167 L187.998,6.05208333 C187.998,5.45833333 187.547569,5 186.98453,5 L186.98453,5 Z M186.360069,11.0416667 L184.394552,10.21875 L184.394552,7.78125 L186.360069,6.95833333 L186.360069,11.0416667 Z M180.463517,11.3333333 L180.463517,9.66666667 L172.929034,9.66666667 L172.929034,11.3333333 L180.463517,11.3333333 Z" id="video-dark" fill="#000000" sketch:type="MSShapeGroup"></path>
            <path d="M123.83125,18.0717054 C122.959375,18.0717054 122.33125,17.6453488 121.740625,16.5794574 C124.225,15.0387597 125.8,12.2383721 125.8,8.85658915 C125.8,3.14922481 122.621875,0 117.653125,0 C112.684375,0 109,3.69186047 109,8.85658915 C109,14.5639535 112.13125,17.8585271 117.128125,17.8585271 C117.8875,17.8585271 118.61875,17.7616279 119.3125,17.5968992 C120.025,19.1182171 121.4125,20 122.85625,20 C123.325,20 123.803125,19.9224806 124.253125,19.7286822 L124.009375,18.0717054 L123.83125,18.0717054 Z M117.521875,12.3643411 C117.071875,12.3643411 116.621875,12.4709302 116.18125,12.6647287 L116.44375,14.1860465 C116.546875,14.1860465 116.65,14.1569767 116.734375,14.1569767 C117.49375,14.1569767 118,14.5348837 118.478125,15.4844961 C118.140625,15.5813953 117.775,15.629845 117.390625,15.629845 C114.68125,15.629845 113.003125,13.9147287 113.003125,8.85658915 C113.003125,4.59302326 114.68125,2.22868217 117.390625,2.22868217 C120.090625,2.22868217 121.796875,4.32170543 121.796875,8.85658915 C121.796875,11.1918605 121.3375,12.9263566 120.521875,14.0503876 C119.78125,13.003876 118.675,12.3643411 117.521875,12.3643411 L117.521875,12.3643411 Z" id="quora-dark" fill="#000000" sketch:type="MSShapeGroup"></path>
            <path d="M131.5,2.10074813 C131.482422,0.915710723 130.621094,0 129.267578,0 C127.896484,0 127,0.915710723 127,2.10074813 C127,3.27680798 127.878906,4.21047382 129.206055,4.21047382 L129.232422,4.21047382 C130.621094,4.21047382 131.5,3.27680798 131.5,2.10074813 L131.5,2.10074813 Z M127.37793,6.12269327 L127.37793,18 L131.12207,18 L131.12207,6.12269327 L127.37793,6.12269327 Z M137.125,11.1052369 C137.125,9.57007481 138.083008,8.80698254 139.208008,8.80698254 C140.333008,8.80698254 141.24707,9.57007481 141.24707,11.4912718 L141.24707,18 L145,18 L145,11.1052369 C145,7.65785536 143.12793,5.74563591 140.5,5.74563591 C138.99707,5.74563591 137.87207,6.61645885 137.125,7.76558603 L137.001953,6.12269327 L133.310547,6.12269327 C133.310547,6.52668329 133.37207,8.80698254 133.37207,8.80698254 L133.37207,18 L137.125,18 L137.125,11.1052369 Z" id="linkedin-dark" fill="#000000" sketch:type="MSShapeGroup"></path>
            <path d="M153.935681,100.392157 L147.19755,107.132353 C145.17611,109.154412 142.480858,110.257353 139.601838,110.257353 C136.722818,110.257353 134.027565,109.154412 132.006126,107.132353 L122.87902,98.0637255 C118.713629,93.8970588 118.713629,87.0955882 122.87902,82.9289216 L129.617152,76.1887255 C131.638591,74.1666667 134.333844,73.0637255 137.212864,73.0637255 C138.499234,73.0637255 139.724349,73.3088235 140.949464,73.7377451 L148.177642,66.5073529 C144.931087,64.4240196 141.194487,63.3210784 137.212864,63.3210784 C131.761103,63.3210784 126.61562,65.4656863 122.756508,69.2647059 L116.018377,76.004902 C107.993874,83.9705882 107.993874,96.9607843 116.018377,104.926471 L125.084227,113.995098 C129.004594,117.855392 134.150077,120 139.601838,120 C145.114855,120 150.199081,117.855392 154.058193,114.056373 L160.85758,107.316176 C164.655436,103.455882 166.799387,98.3088235 166.799387,92.8553922 C166.799387,88.9338235 165.696784,85.1960784 163.675345,82.0098039 L156.385911,89.2401961 C157.733538,93.0392157 156.937213,97.3897059 153.935681,100.392157 L153.935681,100.392157 Z M203.981623,35.0735294 L194.915773,25.9436275 C191.056662,22.1446078 185.911179,20 180.459418,20 C175.007657,20 169.862175,22.1446078 166.003063,25.9436275 L159.264931,32.6838235 C155.467075,36.5441176 153.323124,41.6911765 153.323124,47.1446078 C153.323124,51.0661765 154.425727,54.8651961 156.508423,58.0514706 L163.7366,50.8210784 C163.30781,49.6568627 163.062787,48.4313725 163.062787,47.1446078 C163.062787,44.2647059 164.165391,41.5686275 166.18683,39.6078431 L172.924962,32.8676471 C174.885145,30.8455882 177.580398,29.7426471 180.459418,29.7426471 C183.338438,29.7426471 186.033691,30.8455882 188.05513,32.8676471 L197.12098,41.9362745 C201.286371,46.1029412 201.286371,52.9044118 197.12098,57.0710784 L190.382848,63.8112745 C188.361409,65.8333333 185.727412,66.9362745 182.848392,66.9362745 C181.562021,66.9362745 180.398162,66.6911765 179.234303,66.3235294 L172.006126,73.5539216 C175.191424,75.5759804 178.928025,76.6789216 182.848392,76.6789216 C188.300153,76.6789216 193.445636,74.5343137 197.304747,70.6740196 L203.981623,63.995098 C212.006126,56.0294118 212.006126,43.0392157 203.981623,35.0735294 L203.981623,35.0735294 Z M180.153139,56.7647059 L173.23124,49.8406863 L139.295559,83.7867647 L146.217458,90.7107843 L180.153139,56.7647059 Z" id="link-red-lrg" fill="#E30613" sketch:type="MSShapeGroup"></path>
            <path d="M256.935681,100.392157 L250.19755,107.132353 C248.17611,109.154412 245.480858,110.257353 242.601838,110.257353 C239.722818,110.257353 237.027565,109.154412 235.006126,107.132353 L225.87902,98.0637255 C221.713629,93.8970588 221.713629,87.0955882 225.87902,82.9289216 L232.617152,76.1887255 C234.638591,74.1666667 237.333844,73.0637255 240.212864,73.0637255 C241.499234,73.0637255 242.724349,73.3088235 243.949464,73.7377451 L251.177642,66.5073529 C247.931087,64.4240196 244.194487,63.3210784 240.212864,63.3210784 C234.761103,63.3210784 229.61562,65.4656863 225.756508,69.2647059 L219.018377,76.004902 C210.993874,83.9705882 210.993874,96.9607843 219.018377,104.926471 L228.084227,113.995098 C232.004594,117.855392 237.150077,120 242.601838,120 C248.114855,120 253.199081,117.855392 257.058193,114.056373 L263.85758,107.316176 C267.655436,103.455882 269.799387,98.3088235 269.799387,92.8553922 C269.799387,88.9338235 268.696784,85.1960784 266.675345,82.0098039 L259.385911,89.2401961 C260.733538,93.0392157 259.937213,97.3897059 256.935681,100.392157 L256.935681,100.392157 Z M306.981623,35.0735294 L297.915773,25.9436275 C294.056662,22.1446078 288.911179,20 283.459418,20 C278.007657,20 272.862175,22.1446078 269.003063,25.9436275 L262.264931,32.6838235 C258.467075,36.5441176 256.323124,41.6911765 256.323124,47.1446078 C256.323124,51.0661765 257.425727,54.8651961 259.508423,58.0514706 L266.7366,50.8210784 C266.30781,49.6568627 266.062787,48.4313725 266.062787,47.1446078 C266.062787,44.2647059 267.165391,41.5686275 269.18683,39.6078431 L275.924962,32.8676471 C277.885145,30.8455882 280.580398,29.7426471 283.459418,29.7426471 C286.338438,29.7426471 289.033691,30.8455882 291.05513,32.8676471 L300.12098,41.9362745 C304.286371,46.1029412 304.286371,52.9044118 300.12098,57.0710784 L293.382848,63.8112745 C291.361409,65.8333333 288.727412,66.9362745 285.848392,66.9362745 C284.562021,66.9362745 283.398162,66.6911765 282.234303,66.3235294 L275.006126,73.5539216 C278.191424,75.5759804 281.928025,76.6789216 285.848392,76.6789216 C291.300153,76.6789216 296.445636,74.5343137 300.304747,70.6740196 L306.981623,63.995098 C315.006126,56.0294118 315.006126,43.0392157 306.981623,35.0735294 L306.981623,35.0735294 Z M283.153139,56.7647059 L276.23124,49.8406863 L242.295559,83.7867647 L249.217458,90.7107843 L283.153139,56.7647059 Z" id="link-grey-lrg" fill="#9A959E" sketch:type="MSShapeGroup"></path>
            <path d="M105.551724,125 L105.551724,201.146552 C105.551724,208.643858 99.4886853,214.706897 91.9913793,214.706897 C84.4940733,214.706897 78.4310345,208.643858 78.4310345,201.146552 L78.4310345,139.603448 C78.4310345,137.321659 80.3216595,135.431034 82.6034483,135.431034 C84.8852371,135.431034 86.7758621,137.321659 86.7758621,139.603448 L86.7758621,191.758621 L97.2068966,191.758621 L97.2068966,139.603448 C97.2068966,131.584591 90.6875,125 82.6034483,125 C74.5193966,125 68,131.584591 68,139.603448 L68,201.146552 C68,214.380927 78.7570043,225.137931 91.9913793,225.137931 L93.0344828,225.137931 L165.008621,225.137931 C178.242996,225.137931 189,214.380927 189,201.146552 L189,125 L105.551724,125 Z M178.568966,201.146552 C178.568966,208.643858 172.505927,214.706897 165.008621,214.706897 L111.745151,214.706897 C114.418103,210.860453 115.982759,206.166487 115.982759,201.146552 L115.982759,135.431034 L178.568966,135.431034 L178.568966,201.146552 Z M170.224138,191.758621 L124.327586,191.758621 L124.327586,202.189655 L170.224138,202.189655 L170.224138,191.758621 Z M170.224138,143.775862 L124.327586,143.775862 L124.327586,183.413793 L170.224138,183.413793 L170.224138,143.775862 Z M134.758621,154.206897 L159.793103,154.206897 L159.793103,172.982759 L134.758621,172.982759 L134.758621,154.206897 Z" id="news-grey-lrg" fill="#9A959E" sketch:type="MSShapeGroup"></path>
            <path d="M51.9459459,69.0625 L51.9459459,55 L43.5675676,55 L43.5675676,70.7291667 L52.7837838,92.7604167 L35.1891892,127.8125 L35.1891892,100.677083 C38.1739865,99.1666667 40.2162162,96.0416667 40.2162162,92.5 C40.2162162,87.4479167 36.0793919,83.3333333 31,83.3333333 C25.9206081,83.3333333 21.7837838,87.4479167 21.7837838,92.5 C21.7837838,96.0416667 23.8260135,99.1666667 26.8108108,100.677083 L26.8108108,127.760417 L9.21621622,92.7604167 L18.4324324,70.7291667 L18.4324324,55 L10.0540541,55 L10.0540541,69.0625 L0,93.0729167 L23.5641892,140 L38.4358108,140 L62,93.0729167 L51.9459459,69.0625 Z M58.6486486,40 L3.35135135,40 L3.35135135,48.3333333 L58.6486486,48.3333333 L58.6486486,40 Z" id="pen-grey-lrg" fill="#9A959E" sketch:type="MSShapeGroup"></path>
        </g>
    </g>
</svg>