<?xml version="1.0" encoding="UTF-8" standalone="no"?>
<svg width="213px" height="120px" viewBox="0 0 213 120" version="1.1" xmlns="http://www.w3.org/2000/svg" xmlns:xlink="http://www.w3.org/1999/xlink" xmlns:sketch="http://www.bohemiancoding.com/sketch/ns">
    <!-- Generator: Sketch 3.3.3 (12072) - http://www.bohemiancoding.com/sketch -->
    <title>sprite</title>
    <desc>Created with Sketch.</desc>
    <defs></defs>
    <g id="Page-1" stroke="none" stroke-width="1" fill="none" fill-rule="evenodd" sketch:type="MSPage">
        <g id="sprite" sketch:type="MSArtboardGroup">
            <path d="M7.501,0 C3.375,0 0,3.376 0,7.501 C0,11.626 3.375,15.002 7.501,15.002 C10.548,15.002 13.22,13.174 14.345,10.501 L12.283,9.658 C11.486,11.486 9.657,12.752 7.501,12.752 C4.594,12.752 2.203,10.408 2.203,7.501 C2.203,4.595 4.547,2.25 7.501,2.25 C8.954,2.25 10.314,2.813 11.251,3.751 L9.095,5.907 L15.002,5.907 L15.002,0 L12.798,2.204 C11.439,0.844 9.564,0 7.501,0" id="reload-dark" fill="#000000" sketch:type="MSShapeGroup"></path>
            <g id="cam-dark" sketch:type="MSLayerGroup" transform="translate(17.000000, 0.000000)" fill="#000000">
                <path d="M15.831,9.758 C15.831,6.804 13.421,4.367 10.501,4.367 C7.581,4.367 5.171,6.804 5.171,9.758 C5.171,12.711 7.581,15.149 10.501,15.149 C13.421,15.149 15.831,12.711 15.831,9.758 L15.831,9.758 Z M10.501,13.227 C8.6,13.227 7.071,11.68 7.071,9.758 C7.071,7.836 8.6,6.289 10.501,6.289 C12.401,6.289 13.931,7.836 13.931,9.758 C13.931,11.68 12.401,13.227 10.501,13.227 L10.501,13.227 Z" id="Fill-2" sketch:type="MSShapeGroup"></path>
                <path d="M17.222,2.11 L15.692,2.11 L14.533,0 L6.561,0 L5.356,2.11 L3.78,2.11 C2.25,2.11 0.999,3.376 0.999,4.923 L0.999,12.142 C0.999,13.736 2.25,15.002 3.78,15.002 L6.932,15.002 L6.515,14.768 C6.005,14.486 5.495,13.924 4.985,13.033 L4.939,12.986 L3.734,12.986 C3.317,12.986 2.946,12.611 2.946,12.142 L2.946,4.923 C2.946,4.454 3.27,4.126 3.734,4.126 L6.422,4.126 L7.627,2.016 L13.374,2.016 L14.58,4.126 L17.221,4.126 C17.639,4.126 18.009,4.501 18.009,4.923 L18.009,12.142 C18.009,12.611 17.639,12.986 17.221,12.986 L16.016,12.986 L15.97,13.033 C15.46,13.877 14.95,14.439 14.44,14.768 L14.07,15.002 L17.222,15.002 C18.751,15.002 20.002,13.736 20.002,12.142 L20.002,4.923 C20.002,3.376 18.751,2.11 17.222,2.11" id="Fill-3" sketch:type="MSShapeGroup"></path>
            </g>
            <path d="M42,1.313 L48.3,7.501 L42,13.689 L43.35,15.002 L51,7.501 L43.35,0 L42,1.313" id="arrow-right-dark" fill="#000000" sketch:type="MSShapeGroup"></path>
            <path d="M68.2905129,9.90306667 C67.5808313,9.90306667 66.872317,10.0617333 66.2723559,10.4856 L63.9273718,8.738 L63.9273718,6.9904 C65.5626743,6.6198 66.7089034,5.18953333 66.7089034,3.54846667 C66.7089034,1.58893333 65.0175734,0 62.9994164,0 C60.9812593,0 59.2910966,1.58893333 59.2910966,3.54846667 C59.2910966,5.18953333 60.4361585,6.56653333 62.0726282,6.9904 L62.0726282,8.738 L59.7264769,10.4856 C59.1265158,10.0617333 58.4180014,9.90306667 57.7083198,9.90306667 C55.6901628,9.90306667 54,11.492 54,13.4515333 C54,15.4110667 55.6364697,17 57.7083198,17 C59.7264769,16.9467333 61.3629466,15.3578 61.3629466,13.3982667 C61.3629466,12.8157333 61.1995331,12.2332 60.9263991,11.7039333 L62.9994164,10.2215333 L65.0724337,11.7572 C64.7456066,12.2332 64.6358861,12.8157333 64.6358861,13.3982667 C64.6358861,15.3578 66.2723559,16.9467333 68.2905129,16.9467333 C70.30867,16.9467333 72,15.3578 72,13.3982667 C72,11.4387333 70.3635303,9.90306667 68.2905129,9.90306667 L68.2905129,9.90306667 Z M59.6179236,13.3982667 C59.6179236,14.4046667 58.7448285,15.1991333 57.7083198,15.1991333 C56.6718112,15.1991333 55.7998833,14.4046667 55.7998833,13.3982667 C55.7998833,12.393 56.6718112,11.5985333 57.7083198,11.5985333 C58.7448285,11.5985333 59.6179236,12.393 59.6179236,13.3982667 L59.6179236,13.3982667 Z M62.9994164,1.69433333 C64.035925,1.69433333 64.9090202,2.4888 64.9090202,3.4952 C64.9090202,4.5016 64.035925,5.3482 62.9994164,5.3482 C61.9629077,5.3482 61.0909798,4.55373333 61.0909798,3.54846667 C61.0909798,2.54206667 61.9629077,1.69433333 62.9994164,1.69433333 L62.9994164,1.69433333 Z M70.2001167,13.3982667 C70.2001167,14.4046667 69.3270216,15.1991333 68.2905129,15.1991333 C67.2540043,15.1991333 66.3809091,14.4046667 66.3809091,13.3982667 C66.3809091,12.393 67.2540043,11.5985333 68.2905129,11.5985333 C69.3270216,11.5985333 70.2001167,12.393 70.2001167,13.3982667 L70.2001167,13.3982667 Z" id="share-dark" fill="#000000" sketch:type="MSShapeGroup"></path>
            <path d="M0,35 L22.001,35 L22.001,32.5 L0,32.5 L0,35 Z M0,28.7 L22.001,28.7 L22.001,26.2 L0,26.2 L0,28.7 Z M0,22.5 L22.001,22.5 L22.001,20 L0,20 L0,22.5 Z" id="menu-white" fill="#FFFFFF" sketch:type="MSShapeGroup"></path>
            <path d="M34.0202703,27.5 L40,33.4797297 L38.4797297,35 L32.5,29.0202703 L26.5202703,35 L25,33.4797297 L30.9797297,27.5 L25,21.5202703 L26.5202703,20 L32.5,25.9797297 L38.4797297,20 L40,21.5202703 L34.0202703,27.5" id="close-white" fill="#FFFFFF" sketch:type="MSShapeGroup"></path>
            <path d="M93.8681908,4.25 L93.8681908,4.781 C93.8681908,10.412 89.4968953,17 81.6088061,17 C79.1569292,17 76.9184307,16.469 75,15.3 C75.3190799,15.3 75.6391476,15.406 76.0659046,15.406 C78.0910246,15.406 79.902766,14.556 81.3954276,13.388 C79.4769969,13.388 77.8776461,12.113 77.3451877,10.412 C77.5575783,10.412 77.8776461,10.519 78.1977138,10.519 C78.6244708,10.519 78.9435507,10.519 79.3703076,10.412 C77.4518769,9.987 75.9592154,8.287 75.9592154,6.162 C76.4916737,6.375 77.1318092,6.587 77.8776461,6.587 C76.7050522,5.737 75.9592154,4.462 75.9592154,2.975 C75.9592154,2.125 76.1725938,1.487 76.4916737,0.85 C78.6244708,3.4 81.8221846,5.1 85.3399661,5.206 C85.2332769,4.887 85.2332769,4.569 85.2332769,4.25 C85.2332769,1.913 87.1517076,0 89.4968953,0 C90.7761784,0 91.842083,0.531 92.695597,1.381 C93.6548123,1.169 94.6140277,0.85 95.3598645,0.319 C95.1474739,1.381 94.5073384,2.231 93.5481231,2.762 C94.4006492,2.656 95.2541631,2.444 96,2.125 C95.4665538,2.975 94.7207169,3.719 93.8681908,4.25" id="twitter-dark" fill="#000000" sketch:type="MSShapeGroup"></path>
            <path d="M60.8681908,24.25 L60.8681908,24.781 C60.8681908,30.412 56.4968953,37 48.6088061,37 C46.1569292,37 43.9184307,36.469 42,35.3 C42.3190799,35.3 42.6391476,35.406 43.0659046,35.406 C45.0910246,35.406 46.902766,34.556 48.3954276,33.388 C46.4769969,33.388 44.8776461,32.113 44.3451877,30.412 C44.5575783,30.412 44.8776461,30.519 45.1977138,30.519 C45.6244708,30.519 45.9435507,30.519 46.3703076,30.412 C44.4518769,29.987 42.9592154,28.287 42.9592154,26.162 C43.4916737,26.375 44.1318092,26.587 44.8776461,26.587 C43.7050522,25.737 42.9592154,24.462 42.9592154,22.975 C42.9592154,22.125 43.1725938,21.487 43.4916737,20.85 C45.6244708,23.4 48.8221846,25.1 52.3399661,25.206 C52.2332769,24.887 52.2332769,24.569 52.2332769,24.25 C52.2332769,21.913 54.1517076,20 56.4968953,20 C57.7761784,20 58.842083,20.531 59.695597,21.381 C60.6548123,21.169 61.6140277,20.85 62.3598645,20.319 C62.1474739,21.381 61.5073384,22.231 60.5481231,22.762 C61.4006492,22.656 62.2541631,22.444 63,22.125 C62.4665538,22.975 61.7207169,23.719 60.8681908,24.25" id="twitter-white" fill="#FFFFFF" sketch:type="MSShapeGroup"></path>
            <path d="M120,0 L120,2.02690243 L112.124506,8.2126934 C111.605731,8.64010104 110.98419,8.74619514 110.258893,8.74619514 C109.637352,8.74619514 108.912055,8.53299653 108.393281,8.2126934 L100,1.70659931 L100,0 L120,0 L120,0 Z M118.031621,5.86649826 L120,4.15989896 L120,16 L100.103755,16 L100.103755,3.73350174 L102.072134,5.44010104 L102.072134,12.9060941 L105.80336,8.10659931 L107.357708,9.27969687 L103.833992,13.9730976 L116.37253,13.9730976 L112.953557,9.6 L114.507905,8.42690243 L118.031621,13.0131986 L118.031621,5.86649826 L118.031621,5.86649826 Z M117.098814,2.02690243 L103.626482,2.02690243 L109.741107,6.61319861 C110.051383,6.82639722 110.777668,6.82639722 111.087945,6.61319861 L117.098814,2.02690243 L117.098814,2.02690243 Z" id="email-dark" fill="#000000" sketch:type="MSShapeGroup"></path>
            <path d="M87,20 L87,22.0269024 L79.1245059,28.2126934 C78.6057312,28.640101 77.9841897,28.7461951 77.2588933,28.7461951 C76.6373518,28.7461951 75.9120553,28.5329965 75.3932806,28.2126934 L67,21.7065993 L67,20 L87,20 L87,20 Z M85.0316206,25.8664983 L87,24.159899 L87,36 L67.1037549,36 L67.1037549,23.7335017 L69.0721344,25.440101 L69.0721344,32.9060941 L72.8033597,28.1065993 L74.3577075,29.2796969 L70.8339921,33.9730976 L83.3725296,33.9730976 L79.9535573,29.6 L81.5079051,28.4269024 L85.0316206,33.0131986 L85.0316206,25.8664983 L85.0316206,25.8664983 Z M84.0988142,22.0269024 L70.6264822,22.0269024 L76.7411067,26.6131986 C77.0513834,26.8263972 77.777668,26.8263972 78.0879447,26.6131986 L84.0988142,22.0269024 L84.0988142,22.0269024 Z" id="email-white" fill="#FFFFFF" sketch:type="MSShapeGroup"></path>
            <path d="M129.14,19 L129.14,10.3337661 L132.383,10.3337661 L132.868,6.95528666 L129.14,6.95528666 L129.14,4.79933527 C129.14,3.82151018 129.442,3.1544973 131.006,3.1544973 L133,3.1544973 L133,0.133205235 C132.655,0.0917636061 131.471,0 130.094,0 C127.219,0 125.251,1.57379518 125.251,4.46484213 L125.251,6.95528666 L122,6.95528666 L122,10.3337661 L125.251,10.3337661 L125.251,19 L129.14,19" id="facebook-dark" fill="#000000" sketch:type="MSShapeGroup"></path>
            <path d="M94.583276,38.6666667 L94.6150299,38.6666667 C96.8272125,38.6458333 100.754101,36.9479167 103.982406,33.7708333 C107.221296,30.5833333 108.946586,26.71875 108.967756,24.5520833 C108.988925,22.375 106.723819,20.7291667 104.606898,20.125 C104.384621,20.0625 104.141175,20 103.908314,20 C103.040376,20 102.733423,20.6979167 102.585238,21.0416667 C102.278285,21.71875 101.8549,22.625 101.484439,23.4166667 C101.219824,23.9791667 100.976378,24.5 100.807024,24.875 C100.489486,25.5833333 100.436563,26.1354167 101.145732,26.8229167 L102.087762,27.7604167 C101.759639,28.3020833 101.145732,29.1979167 100.24604,30.0833333 C99.3463488,30.96875 98.425488,31.5729167 97.8750885,31.8958333 L96.9330586,30.96875 C96.7531203,30.7916667 96.3720745,30.4166667 95.8005057,30.4166667 C95.4829676,30.4166667 95.2077678,30.53125 94.9431527,30.6458333 C94.5726914,30.8125 94.0328765,31.0520833 93.4613078,31.3020833 C92.6568778,31.6666667 91.736017,32.0833333 91.0480176,32.3854167 C90.0742339,32.8020833 89.8202033,33.3645833 90.1165723,34.375 C90.7304795,36.4479167 92.3922626,38.6666667 94.583276,38.6666667 L94.583276,38.6666667 Z M91.736017,33.8958333 C92.434601,33.59375 93.3554617,33.1875 94.1704764,32.8125 C94.7420451,32.5625 95.2606908,32.3229167 95.631152,32.15625 C95.6629059,32.1458333 95.6946597,32.1354167 95.7158289,32.125 C95.7264135,32.125 95.7264135,32.1354167 95.7369981,32.1458333 L97.5575503,33.9375 L98.0973653,33.6770833 C98.1608729,33.6458333 99.8120714,32.8645833 101.442101,31.2604167 C103.061545,29.65625 103.865976,28.03125 103.897729,27.96875 L104.15176,27.4375 L102.341792,25.65625 C102.331208,25.6458333 102.320623,25.6354167 102.320623,25.625 C102.331208,25.6041667 102.341792,25.5833333 102.352377,25.5520833 C102.521731,25.1770833 102.754592,24.6666667 103.019207,24.1145833 C103.389668,23.3125 103.813053,22.40625 104.120006,21.71875 L104.130591,21.71875 C105.686528,22.1666667 107.295388,23.34375 107.284803,24.53125 C107.263634,26.0625 105.855881,29.5833333 102.79693,32.59375 C99.7273946,35.6041667 96.1603823,36.9895833 94.5938607,37 L94.583276,37 C93.376631,37 92.1911551,35.4375 91.736017,33.9166667 L91.736017,33.8958333 L91.736017,33.8958333 Z" id="phone-white" fill="#FFFFFF" sketch:type="MSShapeGroup"></path>
            <path d="M156.935681,100.392157 L150.19755,107.132353 C148.17611,109.154412 145.480858,110.257353 142.601838,110.257353 C139.722818,110.257353 137.027565,109.154412 135.006126,107.132353 L125.87902,98.0637255 C121.713629,93.8970588 121.713629,87.0955882 125.87902,82.9289216 L132.617152,76.1887255 C134.638591,74.1666667 137.333844,73.0637255 140.212864,73.0637255 C141.499234,73.0637255 142.724349,73.3088235 143.949464,73.7377451 L151.177642,66.5073529 C147.931087,64.4240196 144.194487,63.3210784 140.212864,63.3210784 C134.761103,63.3210784 129.61562,65.4656863 125.756508,69.2647059 L119.018377,76.004902 C110.993874,83.9705882 110.993874,96.9607843 119.018377,104.926471 L128.084227,113.995098 C132.004594,117.855392 137.150077,120 142.601838,120 C148.114855,120 153.199081,117.855392 157.058193,114.056373 L163.85758,107.316176 C167.655436,103.455882 169.799387,98.3088235 169.799387,92.8553922 C169.799387,88.9338235 168.696784,85.1960784 166.675345,82.0098039 L159.385911,89.2401961 C160.733538,93.0392157 159.937213,97.3897059 156.935681,100.392157 L156.935681,100.392157 Z M206.981623,35.0735294 L197.915773,25.9436275 C194.056662,22.1446078 188.911179,20 183.459418,20 C178.007657,20 172.862175,22.1446078 169.003063,25.9436275 L162.264931,32.6838235 C158.467075,36.5441176 156.323124,41.6911765 156.323124,47.1446078 C156.323124,51.0661765 157.425727,54.8651961 159.508423,58.0514706 L166.7366,50.8210784 C166.30781,49.6568627 166.062787,48.4313725 166.062787,47.1446078 C166.062787,44.2647059 167.165391,41.5686275 169.18683,39.6078431 L175.924962,32.8676471 C177.885145,30.8455882 180.580398,29.7426471 183.459418,29.7426471 C186.338438,29.7426471 189.033691,30.8455882 191.05513,32.8676471 L200.12098,41.9362745 C204.286371,46.1029412 204.286371,52.9044118 200.12098,57.0710784 L193.382848,63.8112745 C191.361409,65.8333333 188.727412,66.9362745 185.848392,66.9362745 C184.562021,66.9362745 183.398162,66.6911765 182.234303,66.3235294 L175.006126,73.5539216 C178.191424,75.5759804 181.928025,76.6789216 185.848392,76.6789216 C191.300153,76.6789216 196.445636,74.5343137 200.304747,70.6740196 L206.981623,63.995098 C215.006126,56.0294118 215.006126,43.0392157 206.981623,35.0735294 L206.981623,35.0735294 Z M183.153139,56.7647059 L176.23124,49.8406863 L142.295559,83.7867647 L149.217458,90.7107843 L183.153139,56.7647059 Z" id="link-red-lrg" fill="#E30613" sketch:type="MSShapeGroup"></path>
            <path d="M150.83125,17.1681202 C149.959375,17.1681202 149.33125,16.7630814 148.740625,15.7504845 C151.225,14.2868217 152.8,11.6264535 152.8,8.41375969 C152.8,2.99176357 149.621875,0 144.653125,0 C139.684375,0 136,3.50726744 136,8.41375969 C136,13.8357558 139.13125,16.9656008 144.128125,16.9656008 C144.8875,16.9656008 145.61875,16.8735465 146.3125,16.7170543 C147.025,18.1623062 148.4125,19 149.85625,19 C150.325,19 150.803125,18.9263566 151.253125,18.7422481 L151.009375,17.1681202 L150.83125,17.1681202 Z M144.521875,11.746124 C144.071875,11.746124 143.621875,11.8473837 143.18125,12.0314922 L143.44375,13.4767442 C143.546875,13.4767442 143.65,13.4491279 143.734375,13.4491279 C144.49375,13.4491279 145,13.8081395 145.478125,14.7102713 C145.140625,14.8023256 144.775,14.8483527 144.390625,14.8483527 C141.68125,14.8483527 140.003125,13.2189922 140.003125,8.41375969 C140.003125,4.36337209 141.68125,2.11724806 144.390625,2.11724806 C147.090625,2.11724806 148.796875,4.10562016 148.796875,8.41375969 C148.796875,10.6322674 148.3375,12.2800388 147.521875,13.3478682 C146.78125,12.3536822 145.675,11.746124 144.521875,11.746124 L144.521875,11.746124 Z" id="quora-dark" fill="#000000" sketch:type="MSShapeGroup"></path>
            <path d="M154.37793,6.12269327 L154.37793,18 L158.12207,18 L158.12207,6.12269327 L154.37793,6.12269327 Z M164.125,11.1052369 C164.125,9.57007481 165.083008,8.80698254 166.208008,8.80698254 C167.333008,8.80698254 168.24707,9.57007481 168.24707,11.4912718 L168.24707,18 L172,18 L172,11.1052369 C172,7.65785536 170.12793,5.74563591 167.5,5.74563591 C165.99707,5.74563591 164.87207,6.61645885 164.125,7.76558603 L164.001953,6.12269327 L160.310547,6.12269327 C160.310547,6.52668329 160.37207,8.80698254 160.37207,8.80698254 L160.37207,18 L164.125,18 L164.125,11.1052369 Z M156.232422,4.21047382 C157.621094,4.21047382 158.5,3.27680798 158.5,2.10074813 C158.482422,0.915710723 157.621094,0 156.267578,0 C154.896484,0 154,0.915710723 154,2.10074813 C154,3.27680798 154.878906,4.21047382 156.206055,4.21047382 L156.232422,4.21047382 L156.232422,4.21047382 Z" id="linkedin-dark" fill="#000000" sketch:type="MSShapeGroup"></path>
        </g>
    </g>
</svg>