<svg width="133" height="35" viewBox="0 0 133 35" xmlns="http://www.w3.org/2000/svg"><title>sprite</title><g fill="none" fill-rule="evenodd"><path d="M7.5 0C3.376 0 0 3.376 0 7.5c0 4.126 3.375 7.502 7.5 7.502 3.048 0 5.72-1.828 6.845-4.5l-2.062-.844c-.797 1.828-2.626 3.094-4.782 3.094-2.905 0-5.296-2.344-5.296-5.25 0-2.907 2.344-5.252 5.298-5.252 1.454 0 2.814.563 3.75 1.5L9.096 5.908h5.907V0L12.8 2.204C11.437.844 9.563 0 7.5 0" fill="#000"/><g fill="#000"><path d="M32.83 9.758c0-2.954-2.41-5.39-5.33-5.39s-5.33 2.436-5.33 5.39c0 2.953 2.41 5.39 5.33 5.39s5.33-2.437 5.33-5.39zm-5.33 3.47c-1.9 0-3.43-1.548-3.43-3.47 0-1.922 1.53-3.47 3.43-3.47 1.9 0 3.43 1.548 3.43 3.47 0 1.922-1.53 3.47-3.43 3.47zM34.222 2.11h-1.53L31.532 0h-7.97l-1.206 2.11H20.78C19.25 2.11 18 3.376 18 4.923v7.22c0 1.593 1.25 2.86 2.78 2.86h3.152l-.417-.235c-.51-.282-1.02-.844-1.53-1.735l-.046-.047h-1.207c-.417 0-.788-.375-.788-.844v-7.22c0-.468.324-.796.788-.796h2.688l1.206-2.11h5.747l1.206 2.11h2.64c.42 0 .79.375.79.797v7.22c0 .468-.37.843-.79.843h-1.205l-.046.047c-.51.844-1.02 1.406-1.53 1.735l-.37.234h3.15c1.53 0 2.78-1.266 2.78-2.86v-7.22c0-1.546-1.25-2.812-2.78-2.812"/></g><path d="M42 1.313L48.3 7.5 42 13.69 43.35 15 51 7.5 43.35 0 42 1.313m26.29 8.59c-.71 0-1.418.16-2.018.583l-2.345-1.748V6.99c1.636-.37 2.782-1.8 2.782-3.442C66.71 1.588 65.016 0 63 0c-2.02 0-3.71 1.59-3.71 3.548 0 1.642 1.146 3.02 2.783 3.442v1.748l-2.347 1.748c-.6-.424-1.308-.583-2.018-.583-2.018 0-3.708 1.59-3.708 3.55C54 15.41 55.636 17 57.708 17c2.018-.053 3.655-1.642 3.655-3.602 0-.582-.163-1.165-.437-1.694L63 10.222l2.072 1.535c-.326.476-.436 1.06-.436 1.64 0 1.96 1.636 3.55 3.655 3.55 2.02 0 3.71-1.59 3.71-3.55 0-1.958-1.635-3.494-3.71-3.494zm-8.672 3.495c0 1.007-.873 1.8-1.91 1.8-1.036 0-1.908-.793-1.908-1.8 0-1.005.872-1.8 1.908-1.8 1.037 0 1.91.795 1.91 1.8zm3.38-11.704c1.038 0 1.91.795 1.91 1.8 0 1.008-.872 1.854-1.91 1.854-1.035 0-1.907-.794-1.907-1.8s.874-1.854 1.91-1.854zM70.2 13.398c0 1.007-.873 1.8-1.91 1.8-1.036 0-1.91-.793-1.91-1.8 0-1.005.874-1.8 1.91-1.8 1.037 0 1.91.795 1.91 1.8z" fill="#000"/><path d="M0 35h22v-2.5H0V35zm0-6.3h22v-2.5H0v2.5zm0-6.2h22V20H0v2.5zm34.02 5L40 33.48 38.48 35l-5.98-5.98L26.52 35 25 33.48l5.98-5.98L25 21.52 26.52 20l5.98 5.98L38.48 20 40 21.52l-5.98 5.98" fill="#FFF"/><path d="M93.868 4.25v.53c0 5.632-4.37 12.22-12.26 12.22-2.45 0-4.69-.53-6.608-1.7.32 0 .64.106 1.066.106 2.025 0 3.837-.85 5.33-2.018-1.92 0-3.518-1.275-4.05-2.976.212 0 .532.107.852.107.426 0 .746 0 1.172-.11-1.918-.424-3.41-2.124-3.41-4.25.532.214 1.172.426 1.918.426-1.173-.85-1.92-2.125-1.92-3.612 0-.85.215-1.488.534-2.125 2.132 2.55 5.33 4.25 8.848 4.355-.107-.32-.107-.637-.107-.956 0-2.338 1.92-4.25 4.264-4.25 1.28 0 2.345.53 3.2 1.38.958-.21 1.917-.53 2.663-1.06-.213 1.06-.853 1.91-1.812 2.44.853-.105 1.706-.317 2.452-.636-.533.85-1.28 1.594-2.132 2.125M120 0v2.027l-7.875 6.186c-.52.427-1.14.533-1.866.533-.624 0-1.35-.213-1.868-.533L100 1.707V0h20zm-1.968 5.866L120 4.16V16h-19.896V3.734l1.968 1.706v7.466l3.73-4.8 1.556 1.174-3.524 4.693h12.54l-3.42-4.373 1.554-1.173 3.524 4.586V5.866zm-.933-3.84h-13.475l6.115 4.587c.31.213 1.038.213 1.348 0l6.01-4.586zM129.14 19v-8.666h3.243l.485-3.38h-3.728V4.8c0-.978.302-1.646 1.866-1.646H133V.134C132.655.09 131.47 0 130.094 0c-2.875 0-4.843 1.574-4.843 4.465v2.49H122v3.38h3.25V19h3.89" fill="#000"/></g></svg>