<svg width="210" height="120" viewBox="0 0 210 120" xmlns="http://www.w3.org/2000/svg"><title>sprite</title><g fill="none" fill-rule="evenodd"><path d="M7.5 0C3.376 0 0 3.376 0 7.5c0 4.126 3.375 7.502 7.5 7.502 3.048 0 5.72-1.828 6.845-4.5l-2.062-.844c-.797 1.828-2.626 3.094-4.782 3.094-2.906 0-5.297-2.344-5.297-5.25 0-2.907 2.344-5.252 5.298-5.252 1.454 0 2.814.563 3.75 1.5L9.096 5.908h5.907V0l-2.204 2.204C11.438.844 9.564 0 7.5 0" fill="#000"/><g fill="#000"><path d="M162.83 9.758c0-2.954-2.41-5.39-5.33-5.39s-5.33 2.436-5.33 5.39c0 2.953 2.41 5.39 5.33 5.39s5.33-2.437 5.33-5.39zm-5.33 3.47c-1.902 0-3.43-1.548-3.43-3.47 0-1.922 1.528-3.47 3.43-3.47 1.9 0 3.43 1.548 3.43 3.47 0 1.922-1.53 3.47-3.43 3.47z"/><path d="M164.22 2.11h-1.53L161.53 0h-7.97l-1.206 2.11h-1.576c-1.53 0-2.78 1.266-2.78 2.813v7.22c0 1.593 1.25 2.86 2.78 2.86h3.152l-.417-.235c-.51-.282-1.02-.844-1.53-1.735l-.046-.047h-1.205c-.417 0-.788-.375-.788-.844v-7.22c0-.468.324-.796.788-.796h2.688l1.205-2.11h5.747l1.206 2.11h2.64c.42 0 .79.375.79.797v7.22c0 .468-.37.843-.79.843h-1.204l-.046.047c-.51.844-1.02 1.406-1.53 1.735l-.37.234h3.152c1.53 0 2.78-1.266 2.78-2.86v-7.22c0-1.546-1.25-2.812-2.78-2.812"/></g><path d="M17 1.313L23.3 7.5 17 13.69 18.35 15l7.65-7.5L18.35 0 17 1.313M43.29 9.903c-.71 0-1.418.16-2.018.583l-2.345-1.748V6.99c1.636-.37 2.782-1.8 2.782-3.442C41.71 1.588 40.017 0 38 0c-2.02 0-3.71 1.59-3.71 3.548 0 1.642 1.146 3.02 2.783 3.442v1.748l-2.347 1.748c-.6-.424-1.308-.583-2.018-.583-2.018 0-3.708 1.59-3.708 3.55C29 15.41 30.636 17 32.708 17c2.018-.053 3.655-1.642 3.655-3.602 0-.582-.163-1.165-.437-1.694L38 10.222l2.072 1.535c-.326.476-.436 1.06-.436 1.64 0 1.96 1.636 3.55 3.655 3.55 2.02 0 3.71-1.59 3.71-3.55 0-1.958-1.636-3.494-3.71-3.494zm-8.672 3.495c0 1.007-.873 1.8-1.91 1.8-1.036 0-1.908-.793-1.908-1.8 0-1.005.872-1.8 1.908-1.8 1.037 0 1.91.795 1.91 1.8zm3.38-11.704c1.038 0 1.91.795 1.91 1.8 0 1.008-.872 1.854-1.91 1.854-1.035 0-1.907-.794-1.907-1.8s.873-1.854 1.91-1.854zM45.2 13.398c0 1.007-.873 1.8-1.91 1.8-1.036 0-1.91-.793-1.91-1.8 0-1.005.874-1.8 1.91-1.8 1.037 0 1.91.795 1.91 1.8z" fill="#000"/><path d="M0 35h22v-2.5H0V35zm0-6.3h22v-2.5H0v2.5zm0-6.2h22V20H0v2.5zM34.02 27.5L40 33.48 38.48 35l-5.98-5.98L26.52 35 25 33.48l5.98-5.98L25 21.52 26.52 20l5.98 5.98L38.48 20 40 21.52l-5.98 5.98" fill="#FFF"/><path d="M68.868 4.25v.53c0 5.632-4.37 12.22-12.26 12.22-2.45 0-4.69-.53-6.608-1.7.32 0 .64.106 1.066.106 2.025 0 3.837-.85 5.33-2.018-1.92 0-3.518-1.275-4.05-2.976.212 0 .532.107.852.107.426 0 .746 0 1.172-.108-1.918-.425-3.41-2.125-3.41-4.25.532.213 1.172.425 1.918.425-1.173-.85-1.92-2.125-1.92-3.612 0-.85.215-1.488.534-2.125 2.132 2.55 5.33 4.25 8.848 4.356-.107-.32-.107-.637-.107-.956 0-2.337 1.92-4.25 4.264-4.25 1.28 0 2.345.53 3.2 1.38.958-.21 1.917-.53 2.663-1.06-.213 1.06-.853 1.91-1.812 2.442.853-.106 1.706-.318 2.452-.637-.533.85-1.28 1.594-2.132 2.125" fill="#000"/><path d="M60.868 24.25v.53c0 5.632-4.37 12.22-12.26 12.22-2.45 0-4.69-.53-6.608-1.7.32 0 .64.106 1.066.106 2.025 0 3.837-.85 5.33-2.018-1.92 0-3.518-1.275-4.05-2.976.212 0 .532.107.852.107.426 0 .746 0 1.172-.108-1.918-.425-3.41-2.125-3.41-4.25.532.213 1.172.425 1.918.425-1.173-.85-1.92-2.125-1.92-3.612 0-.85.215-1.488.534-2.125 2.132 2.55 5.33 4.25 8.848 4.356-.107-.32-.107-.637-.107-.956 0-2.337 1.92-4.25 4.264-4.25 1.28 0 2.345.53 3.2 1.38.958-.21 1.917-.53 2.663-1.06-.213 1.06-.853 1.91-1.812 2.442.853-.106 1.706-.318 2.452-.637-.533.85-1.28 1.594-2.132 2.125" fill="#FFF"/><path d="M95 0v2.027l-7.875 6.186c-.52.427-1.14.533-1.866.533-.623 0-1.348-.213-1.867-.533L75 1.707V0h20zm-1.968 5.866L95 4.16V16H75.104V3.734l1.968 1.706v7.466l3.73-4.8L82.36 9.28l-3.524 4.693h12.54L87.953 9.6l1.554-1.173 3.524 4.586V5.866zm-.933-3.84H78.625l6.115 4.587c.31.213 1.038.213 1.348 0l6.01-4.586z" fill="#000"/><path d="M87 20v2.027l-7.875 6.186c-.52.427-1.14.533-1.866.533-.623 0-1.348-.213-1.867-.533L67 21.707V20h20zm-1.968 5.866L87 24.16V36H67.104V23.734l1.968 1.706v7.466l3.73-4.8 1.556 1.174-3.524 4.693h12.54l-3.42-4.373 1.554-1.173 3.524 4.586v-7.147zm-.933-3.84H70.625l6.115 4.587c.31.213 1.038.213 1.348 0l6.01-4.586z" fill="#FFF"/><path d="M104.14 19v-8.666h3.243l.485-3.38h-3.728V4.8c0-.978.302-1.646 1.866-1.646H108V.134C107.655.09 106.47 0 105.094 0c-2.875 0-4.843 1.574-4.843 4.465v2.49H97v3.38h3.25V19h3.89" fill="#000"/><path d="M94.583 38.667h.032c2.212-.02 6.14-1.72 9.367-4.896 3.24-3.187 4.965-7.05 4.986-9.218.02-2.177-2.244-3.823-4.36-4.427-.223-.063-.467-.125-.7-.125-.868 0-1.175.698-1.323 1.042-.307.677-.73 1.583-1.1 2.375-.265.562-.51 1.083-.678 1.458-.318.708-.37 1.26.34 1.948l.94.937c-.327.542-.94 1.438-1.84 2.323-.9.886-1.822 1.49-2.372 1.813l-.942-.927c-.18-.178-.56-.553-1.132-.553-.317 0-.592.114-.857.23-.37.166-.91.405-1.482.655-.803.365-1.724.78-2.412 1.083-.974.417-1.228.98-.93 1.99.612 2.073 2.274 4.292 4.465 4.292zm-2.847-4.77c.7-.303 1.62-.71 2.434-1.084.572-.25 1.09-.49 1.46-.657.033-.01.065-.02.086-.03.01 0 .01.01.02.02l1.822 1.79.54-.26c.063-.03 1.714-.81 3.344-2.416 1.62-1.604 2.424-3.23 2.456-3.29l.254-.532-1.81-1.782c-.01-.01-.02-.02-.02-.03.01-.022.02-.043.03-.074.17-.375.403-.885.667-1.437.37-.802.793-1.71 1.1-2.396h.01c1.557.447 3.165 1.624 3.155 2.81-.02 1.532-1.43 5.053-4.488 8.064-3.07 3.01-6.637 4.396-8.203 4.406h-.01c-1.207 0-2.393-1.563-2.848-3.083v-.02z" fill="#FFF"/><path d="M153.936 100.392l-6.738 6.74c-2.022 2.022-4.717 3.125-7.596 3.125-2.88 0-5.574-1.103-7.596-3.125l-9.127-9.068c-4.166-4.167-4.166-10.968 0-15.135l6.737-6.74c2.022-2.023 4.717-3.126 7.596-3.126 1.286 0 2.51.245 3.736.674l7.228-7.23c-3.247-2.084-6.984-3.187-10.965-3.187-5.452 0-10.597 2.146-14.456 5.945l-6.74 6.74c-8.023 7.966-8.023 20.956 0 28.92l9.067 9.07c3.92 3.86 9.066 6.005 14.518 6.005 5.513 0 10.597-2.145 14.456-5.944l6.8-6.74c3.797-3.86 5.94-9.007 5.94-14.46 0-3.922-1.1-7.66-3.123-10.846l-7.29 7.23c1.35 3.8.552 8.15-2.45 11.152zm50.046-65.318l-9.066-9.13c-3.86-3.8-9.005-5.944-14.457-5.944s-10.598 2.145-14.457 5.944l-6.738 6.74c-3.798 3.86-5.942 9.007-5.942 14.46 0 3.922 1.103 7.72 3.185 10.907l7.23-7.23c-.43-1.163-.675-2.39-.675-3.675 0-2.88 1.102-5.576 3.124-7.537l6.738-6.74c1.96-2.022 4.655-3.125 7.534-3.125 2.878 0 5.574 1.103 7.595 3.125l9.066 9.068c4.166 4.167 4.166 10.968 0 15.135l-6.737 6.74c-2.022 2.023-4.656 3.126-7.535 3.126-1.286 0-2.45-.245-3.614-.612l-7.228 7.23c3.185 2.022 6.922 3.125 10.842 3.125 5.452 0 10.598-2.146 14.457-6.006l6.677-6.68c8.024-7.965 8.024-20.955 0-28.92zm-23.83 21.69l-6.92-6.923-33.936 33.947 6.92 6.924 33.937-33.945z" fill="#E30613"/><path d="M186.985 5c-.144 0-.287.03-.42.083l-2.17.907v-.157c0-1.375-1.096-2.5-2.457-2.5h-.85l-.92-2.77c-.114-.334-.43-.563-.78-.563h-8.097v1.667h7.515L179.91 5h2.028c.45 0 .82.375.82.833V12.5c0 .458-.37.833-.82.833h-10.483c-.45 0-.82-.375-.82-.833V5.833c0-.458.37-.833.82-.833h6.726l-.552-1.667h-6.173c-1.35 0-2.457 1.125-2.457 2.5V12.5c0 1.385 1.106 2.5 2.457 2.5h10.483c1.36 0 2.457-1.115 2.457-2.5v-.49l2.17.907c.133.052.276.083.42.083.563 0 1.013-.458 1.013-1.052V6.052c0-.594-.45-1.052-1.013-1.052zm-.625 6.042l-1.965-.823V7.78l1.965-.822v4.084zm-5.896.29V9.668h-7.535v1.666h7.534zM123.83 18.072c-.87 0-1.5-.427-2.09-1.493 2.485-1.54 4.06-4.342 4.06-7.723C125.8 3.15 122.622 0 117.653 0 112.683 0 109 3.692 109 8.857c0 5.707 3.13 9.002 8.128 9.002.76 0 1.49-.098 2.184-.263.713 1.52 2.1 2.403 3.544 2.403.47 0 .947-.078 1.397-.27l-.244-1.658h-.18zm-6.308-5.708c-.45 0-.9.107-1.34.3l.262 1.522c.103 0 .206-.03.29-.03.76 0 1.266.38 1.744 1.328-.337.097-.703.146-1.087.146-2.71 0-4.387-1.715-4.387-6.773 0-4.264 1.678-6.628 4.388-6.628 2.7 0 4.407 2.092 4.407 6.627 0 2.335-.46 4.07-1.275 5.193-.74-1.046-1.847-1.686-3-1.686zM131.5 2.1c-.018-1.184-.88-2.1-2.232-2.1C127.896 0 127 .916 127 2.1c0 1.177.88 2.11 2.206 2.11h.026c1.39 0 2.268-.933 2.268-2.11zm-4.122 4.023V18h3.744V6.123h-3.744zm9.747 4.982c0-1.535.958-2.298 2.083-2.298 1.125 0 2.04.763 2.04 2.684V18H145v-6.895c0-3.447-1.872-5.36-4.5-5.36-1.503 0-2.628.87-3.375 2.02l-.123-1.642h-3.69c0 .404.06 2.684.06 2.684V18h3.753v-6.895z" fill="#000"/></g></svg>