<svg width="313" height="226" viewBox="0 0 313 226" xmlns="http://www.w3.org/2000/svg"><title>sprite</title><g fill="none" fill-rule="evenodd"><path d="M7.501 0C3.375 0 0 3.376 0 7.501s3.375 7.501 7.501 7.501c3.047 0 5.719-1.828 6.844-4.501l-2.062-.843c-.797 1.828-2.626 3.094-4.782 3.094-2.907 0-5.298-2.344-5.298-5.251 0-2.906 2.344-5.251 5.298-5.251 1.453 0 2.813.563 3.75 1.501L9.095 5.907h5.907V0l-2.204 2.204A7.474 7.474 0 0 0 7.501 0" fill="#000"/><g fill="#000"><path d="M162.829 9.758c0-2.954-2.41-5.391-5.33-5.391s-5.33 2.437-5.33 5.391c0 2.953 2.41 5.391 5.33 5.391s5.33-2.438 5.33-5.391zm-5.33 3.469c-1.901 0-3.43-1.547-3.43-3.469s1.529-3.469 3.43-3.469c1.9 0 3.43 1.547 3.43 3.469s-1.53 3.469-3.43 3.469z"/><path d="M164.22 2.11h-1.53L161.531 0h-7.972l-1.205 2.11h-1.576c-1.53 0-2.781 1.266-2.781 2.813v7.219c0 1.594 1.251 2.86 2.781 2.86h3.152l-.417-.234c-.51-.282-1.02-.844-1.53-1.735l-.046-.047h-1.205c-.417 0-.788-.375-.788-.844V4.923c0-.469.324-.797.788-.797h2.688l1.205-2.11h5.747l1.206 2.11h2.641c.418 0 .788.375.788.797v7.219c0 .469-.37.844-.788.844h-1.205l-.046.047c-.51.844-1.02 1.406-1.53 1.735l-.37.234h3.152c1.529 0 2.78-1.266 2.78-2.86V4.923c0-1.547-1.251-2.813-2.78-2.813"/></g><path d="M17 1.313l6.3 6.188-6.3 6.188 1.35 1.313L26 7.501 18.35 0 17 1.313M43.29 9.903c-.71 0-1.418.159-2.018.583l-2.345-1.748V6.99c1.636-.37 2.782-1.8 2.782-3.442 0-1.96-1.691-3.548-3.71-3.548-2.018 0-3.708 1.589-3.708 3.548 0 1.642 1.145 3.019 2.782 3.442v1.748l-2.347 1.748c-.6-.424-1.308-.583-2.018-.583-2.018 0-3.708 1.589-3.708 3.549S30.636 17 32.708 17c2.018-.053 3.655-1.642 3.655-3.602 0-.582-.163-1.165-.437-1.694L38 10.222l2.073 1.535c-.326.476-.436 1.059-.436 1.641 0 1.96 1.636 3.549 3.655 3.549 2.018 0 3.709-1.59 3.709-3.549 0-1.96-1.636-3.495-3.71-3.495zm-8.672 3.495c0 1.007-.873 1.801-1.91 1.801-1.036 0-1.908-.794-1.908-1.8s.872-1.8 1.908-1.8c1.037 0 1.91.794 1.91 1.8zm3.381-11.704c1.037 0 1.91.795 1.91 1.801 0 1.007-.873 1.853-1.91 1.853-1.036 0-1.908-.794-1.908-1.8s.872-1.854 1.908-1.854zM45.2 13.398c0 1.007-.873 1.801-1.91 1.801-1.036 0-1.91-.794-1.91-1.8s.874-1.8 1.91-1.8c1.037 0 1.91.794 1.91 1.8z" fill="#000"/><path d="M0 35h22.001v-2.5H0V35zm0-6.3h22.001v-2.5H0v2.5zm0-6.2h22.001V20H0v2.5zM34.02 27.5L40 33.48 38.48 35l-5.98-5.98L26.52 35 25 33.48l5.98-5.98L25 21.52 26.52 20l5.98 5.98L38.48 20 40 21.52l-5.98 5.98" fill="#FFF"/><path d="M68.868 4.25v.531c0 5.631-4.371 12.219-12.26 12.219-2.451 0-4.69-.531-6.608-1.7.32 0 .64.106 1.066.106 2.025 0 3.837-.85 5.33-2.018a4.252 4.252 0 0 1-4.05-2.976c.212 0 .532.107.852.107.426 0 .746 0 1.172-.107a4.346 4.346 0 0 1-3.41-4.25c.532.213 1.172.425 1.918.425-1.173-.85-1.919-2.125-1.919-3.612 0-.85.214-1.488.533-2.125 2.132 2.55 5.33 4.25 8.848 4.356-.107-.319-.107-.637-.107-.956 0-2.337 1.919-4.25 4.264-4.25 1.28 0 2.345.531 3.199 1.381.959-.212 1.918-.531 2.664-1.062-.213 1.062-.853 1.912-1.812 2.443.853-.106 1.706-.318 2.452-.637a6.778 6.778 0 0 1-2.132 2.125" fill="#000"/><path d="M60.868 24.25v.531c0 5.631-4.371 12.219-12.26 12.219-2.451 0-4.69-.531-6.608-1.7.32 0 .64.106 1.066.106 2.025 0 3.837-.85 5.33-2.018a4.252 4.252 0 0 1-4.05-2.976c.212 0 .532.107.852.107.426 0 .746 0 1.172-.107a4.346 4.346 0 0 1-3.41-4.25c.532.213 1.172.425 1.918.425-1.173-.85-1.919-2.125-1.919-3.612 0-.85.214-1.488.533-2.125 2.132 2.55 5.33 4.25 8.848 4.356-.107-.319-.107-.637-.107-.956 0-2.337 1.919-4.25 4.264-4.25 1.28 0 2.345.531 3.199 1.381.959-.212 1.918-.531 2.664-1.062-.213 1.062-.853 1.912-1.812 2.443.853-.106 1.706-.318 2.452-.637a6.778 6.778 0 0 1-2.132 2.125" fill="#FFF"/><path d="M95 0v2.027l-7.875 6.186c-.52.427-1.14.533-1.866.533a3.796 3.796 0 0 1-1.866-.533L75 1.707V0h20zm-1.968 5.866L95 4.16V16H75.104V3.734l1.968 1.706v7.466l3.731-4.8 1.555 1.174-3.524 4.693h12.539L87.953 9.6l1.555-1.173 3.524 4.586V5.866zm-.933-3.84H78.626l6.115 4.587c.31.213 1.037.213 1.347 0l6.01-4.586z" fill="#000"/><path d="M87 20v2.027l-7.875 6.186c-.52.427-1.14.533-1.866.533a3.796 3.796 0 0 1-1.866-.533L67 21.707V20h20zm-1.968 5.866L87 24.16V36H67.104V23.734l1.968 1.706v7.466l3.731-4.8 1.555 1.174-3.524 4.693h12.539l-3.42-4.373 1.555-1.173 3.524 4.586v-7.147zm-.933-3.84H70.626l6.115 4.587c.31.213 1.037.213 1.347 0l6.01-4.586z" fill="#FFF"/><path d="M104.14 19v-8.666h3.243l.485-3.379h-3.728V4.8c0-.977.302-1.645 1.866-1.645H108V.134A29.599 29.599 0 0 0 105.094 0c-2.875 0-4.843 1.574-4.843 4.465v2.49H97v3.379h3.251V19h3.889" fill="#000"/><path d="M94.583 38.667h.032c2.212-.021 6.14-1.72 9.367-4.896 3.24-3.188 4.965-7.052 4.986-9.219.02-2.177-2.244-3.823-4.361-4.427-.222-.063-.466-.125-.699-.125-.868 0-1.175.698-1.323 1.042-.307.677-.73 1.583-1.1 2.375-.265.562-.509 1.083-.678 1.458-.318.708-.37 1.26.339 1.948l.942.937a12.236 12.236 0 0 1-1.842 2.323c-.9.886-1.82 1.49-2.37 1.813l-.943-.927c-.18-.177-.56-.552-1.132-.552-.318 0-.593.114-.858.229-.37.166-.91.406-1.482.656-.804.365-1.725.781-2.413 1.083-.974.417-1.228.98-.931 1.99.613 2.073 2.275 4.292 4.466 4.292zm-2.847-4.771c.699-.302 1.62-.709 2.434-1.084.572-.25 1.09-.49 1.461-.656.032-.01.064-.02.085-.031.01 0 .01.01.021.02l1.82 1.792.54-.26c.064-.031 1.715-.812 3.345-2.417 1.62-1.604 2.424-3.229 2.456-3.291l.254-.532-1.81-1.78c-.01-.011-.021-.022-.021-.032a69.72 69.72 0 0 1 .699-1.51c.37-.802.793-1.709 1.1-2.396h.01c1.557.448 3.165 1.625 3.155 2.812-.021 1.532-1.43 5.052-4.488 8.063-3.07 3.01-6.637 4.396-8.203 4.406h-.01c-1.207 0-2.393-1.563-2.848-3.083v-.021z" fill="#FFF"/><path d="M186.985 5a1.16 1.16 0 0 0-.42.083l-2.17.907v-.157c0-1.375-1.096-2.5-2.457-2.5h-.85l-.921-2.77a.83.83 0 0 0-.778-.563h-8.098v1.667h7.514L179.911 5h2.027c.45 0 .819.375.819.833V12.5a.829.829 0 0 1-.82.833h-10.482a.829.829 0 0 1-.82-.833V5.833c0-.458.37-.833.82-.833h6.726l-.553-1.667h-6.173c-1.351 0-2.457 1.125-2.457 2.5V12.5c0 1.385 1.106 2.5 2.457 2.5h10.483c1.361 0 2.457-1.115 2.457-2.5v-.49l2.17.907c.133.052.276.083.42.083.563 0 1.013-.458 1.013-1.052V6.052c0-.594-.45-1.052-1.013-1.052zm-.625 6.042l-1.965-.823V7.78l1.965-.823v4.084zm-5.896.291V9.667h-7.535v1.666h7.535zM123.831 18.072c-.872 0-1.5-.427-2.09-1.493 2.484-1.54 4.059-4.34 4.059-7.722 0-5.708-3.178-8.857-8.147-8.857S109 3.692 109 8.857c0 5.707 3.131 9.002 8.128 9.002.76 0 1.49-.097 2.184-.262.713 1.521 2.1 2.403 3.544 2.403.469 0 .947-.078 1.397-.271l-.244-1.657h-.178zm-6.31-5.708c-.45 0-.9.107-1.34.3l.263 1.522c.103 0 .206-.029.29-.029.76 0 1.266.378 1.744 1.327a3.941 3.941 0 0 1-1.087.146c-2.71 0-4.388-1.715-4.388-6.773 0-4.264 1.678-6.628 4.388-6.628 2.7 0 4.406 2.093 4.406 6.628 0 2.335-.46 4.07-1.275 5.193-.74-1.046-1.847-1.686-3-1.686zM131.5 2.1c-.018-1.184-.879-2.1-2.232-2.1C127.896 0 127 .916 127 2.1c0 1.177.879 2.11 2.206 2.11h.026c1.39 0 2.268-.933 2.268-2.11zm-4.122 4.023V18h3.744V6.123h-3.744zm9.747 4.982c0-1.535.958-2.298 2.083-2.298 1.125 0 2.04.763 2.04 2.684V18H145v-6.895c0-3.447-1.872-5.36-4.5-5.36-1.503 0-2.628.871-3.375 2.02l-.123-1.642h-3.691c0 .404.061 2.684.061 2.684V18h3.753v-6.895z" fill="#000"/><path d="M153.936 100.392l-6.738 6.74c-2.022 2.022-4.717 3.125-7.596 3.125-2.88 0-5.574-1.103-7.596-3.125l-9.127-9.068c-4.165-4.167-4.165-10.968 0-15.135l6.738-6.74c2.022-2.022 4.717-3.125 7.596-3.125 1.286 0 2.511.245 3.736.674l7.229-7.23c-3.247-2.084-6.984-3.187-10.965-3.187-5.452 0-10.597 2.145-14.456 5.944l-6.739 6.74c-8.024 7.966-8.024 20.956 0 28.921l9.066 9.07c3.92 3.86 9.066 6.004 14.518 6.004 5.513 0 10.597-2.145 14.456-5.944l6.8-6.74c3.797-3.86 5.941-9.007 5.941-14.46 0-3.922-1.102-7.66-3.124-10.846l-7.29 7.23c1.349 3.8.552 8.15-2.45 11.152zm50.046-65.318l-9.066-9.13c-3.86-3.8-9.005-5.944-14.457-5.944-5.451 0-10.597 2.145-14.456 5.944l-6.738 6.74c-3.798 3.86-5.942 9.007-5.942 14.46 0 3.922 1.103 7.721 3.185 10.907l7.229-7.23a10.574 10.574 0 0 1-.674-3.676c0-2.88 1.102-5.576 3.124-7.537l6.738-6.74c1.96-2.022 4.655-3.125 7.534-3.125 2.88 0 5.575 1.103 7.596 3.125l9.066 9.068c4.165 4.167 4.165 10.968 0 15.135l-6.738 6.74c-2.022 2.022-4.656 3.125-7.535 3.125-1.286 0-2.45-.245-3.614-.612l-7.228 7.23c3.185 2.022 6.922 3.125 10.842 3.125 5.452 0 10.598-2.145 14.457-6.005l6.677-6.679c8.024-7.966 8.024-20.956 0-28.921zm-23.829 21.69l-6.922-6.923-33.935 33.946 6.921 6.924 33.936-33.946z" fill="#E30613"/><path d="M256.936 100.392l-6.738 6.74c-2.022 2.022-4.717 3.125-7.596 3.125-2.88 0-5.574-1.103-7.596-3.125l-9.127-9.068c-4.165-4.167-4.165-10.968 0-15.135l6.738-6.74c2.022-2.022 4.717-3.125 7.596-3.125 1.286 0 2.511.245 3.736.674l7.229-7.23c-3.247-2.084-6.984-3.187-10.965-3.187-5.452 0-10.597 2.145-14.456 5.944l-6.739 6.74c-8.024 7.966-8.024 20.956 0 28.921l9.066 9.07c3.92 3.86 9.066 6.004 14.518 6.004 5.513 0 10.597-2.145 14.456-5.944l6.8-6.74c3.797-3.86 5.941-9.007 5.941-14.46 0-3.922-1.102-7.66-3.124-10.846l-7.29 7.23c1.349 3.8.552 8.15-2.45 11.152zm50.046-65.318l-9.066-9.13c-3.86-3.8-9.005-5.944-14.457-5.944-5.451 0-10.597 2.145-14.456 5.944l-6.738 6.74c-3.798 3.86-5.942 9.007-5.942 14.46 0 3.922 1.103 7.721 3.185 10.907l7.229-7.23a10.574 10.574 0 0 1-.674-3.676c0-2.88 1.102-5.576 3.124-7.537l6.738-6.74c1.96-2.022 4.655-3.125 7.534-3.125 2.88 0 5.575 1.103 7.596 3.125l9.066 9.068c4.165 4.167 4.165 10.968 0 15.135l-6.738 6.74c-2.022 2.022-4.656 3.125-7.535 3.125-1.286 0-2.45-.245-3.614-.612l-7.228 7.23c3.185 2.022 6.922 3.125 10.842 3.125 5.452 0 10.598-2.145 14.457-6.005l6.677-6.679c8.024-7.966 8.024-20.956 0-28.921zm-23.829 21.69l-6.922-6.923-33.935 33.946 6.921 6.924 33.936-33.946zM105.552 125v76.147c0 7.497-6.063 13.56-13.56 13.56-7.498 0-13.561-6.063-13.561-13.56v-61.544c0-2.281 1.89-4.172 4.172-4.172s4.173 1.89 4.173 4.172v52.156h10.43v-52.156c0-8.018-6.519-14.603-14.603-14.603S68 131.585 68 139.603v61.544c0 13.234 10.757 23.99 23.991 23.99h73.018c13.234 0 23.991-10.756 23.991-23.99V125h-83.448zm73.017 76.147c0 7.497-6.063 13.56-13.56 13.56h-53.264a23.727 23.727 0 0 0 4.238-13.56V135.43h62.586v65.716zm-8.345-9.388h-45.896v10.43h45.896v-10.43zm0-47.983h-45.896v39.638h45.896v-39.638zm-35.465 10.43h25.034v18.777H134.76v-18.776zM51.946 69.063V55h-8.378v15.73l9.216 22.03-17.595 35.052v-27.135a9.19 9.19 0 0 0 5.027-8.177c0-5.052-4.137-9.167-9.216-9.167-5.08 0-9.216 4.115-9.216 9.167a9.19 9.19 0 0 0 5.027 8.177v27.083l-17.595-35 9.216-22.03V55h-8.378v14.063L0 93.073 23.564 140h14.872L62 93.073l-10.054-24.01zM58.649 40H3.35v8.333H58.65V40z" fill="#9A959E"/></g></svg>