<svg xmlns="http://www.w3.org/2000/svg" xmlns:xlink="http://www.w3.org/1999/xlink" width="69.5" height="16.6" viewBox="0 0 69.5 16.6"><symbol id="b" viewBox="-20.5 -16 41 32"><path d="M11.5-4.5C11.5 1.8 6.3 7 0 7S-11.5 1.8-11.5-4.5-6.3-16 0-16s11.5 5.2 11.5 11.5zM0-11.9c-4.1 0-7.4 3.3-7.4 7.4S-4.1 2.9 0 2.9c4.1 0 7.4-3.3 7.4-7.4S4.1-11.9 0-11.9z"/><path d="M14.5 11.5h-3.3L8.7 16H-8.5l-2.6-4.5h-3.4c-3.3 0-6-2.7-6-6V-9.9c0-3.4 2.7-6.1 6-6.1h6.8l-.9.5c-1.1.6-2.2 1.8-3.3 3.7l-.1.1h-2.6c-.9 0-1.7.8-1.7 1.8V5.5c0 1 .7 1.7 1.7 1.7h5.8l2.6 4.5H6.2l2.6-4.5h5.7c.9 0 1.7-.8 1.7-1.7V-9.9c0-1-.8-1.8-1.7-1.8h-2.6l-.1-.1c-1.1-1.8-2.2-3-3.3-3.7l-.8-.5h6.8c3.3 0 6 2.7 6 6.1V5.5c0 3.3-2.7 6-6 6z"/></symbol><symbol id="a" viewBox="-16 -16 32 32"><path d="M0 16c-8.8 0-16-7.2-16-16s7.2-16 16-16c6.5 0 12.2 3.9 14.6 9.6l-4.4 1.8C8.5-8.5 4.6-11.2 0-11.2c-6.2 0-11.3 5-11.3 11.2s5 11.2 11.3 11.2c3.1 0 6-1.2 8-3.2L3.4 3.4H16V16l-4.7-4.7C8.4 14.2 4.4 16 0 16z"/></symbol><symbol id="c" viewBox="-10 -16 20 32"><path d="M-10 13.2L4 0l-14-13.2 3-2.8L10 0-7 16z"/></symbol><symbol id="d" viewBox="-16.5 -16 33 32"><path d="M9.7-2.7C8.4-2.7 7.1-3 6-3.8L1.7-.5v3.3c3 .7 5.1 3.4 5.1 6.5C6.8 13 3.7 16 0 16s-6.8-3-6.8-6.7c0-3.1 2.1-5.7 5.1-6.5V-.5L-6-3.8c-1.1.8-2.4 1.1-3.7 1.1-3.7 0-6.8-3-6.8-6.7s3-6.7 6.8-6.7C-6-16-3-13-3-9.3c0 1.1-.3 2.2-.8 3.2L0-3.3l3.8-2.9c-.6-.9-.8-2-.8-3.1C3-13 6-16 9.7-16s6.8 3 6.8 6.7-3 6.6-6.8 6.6zM-6.2-9.3c0-1.9-1.6-3.4-3.5-3.4s-3.5 1.5-3.5 3.4 1.6 3.4 3.5 3.4 3.5-1.5 3.5-3.4zM0 12.8c1.9 0 3.5-1.5 3.5-3.4S1.9 5.9 0 5.9s-3.5 1.5-3.5 3.4 1.6 3.5 3.5 3.5zM13.2-9.3c0-1.9-1.6-3.4-3.5-3.4s-3.5 1.5-3.5 3.4 1.6 3.4 3.5 3.4 3.5-1.5 3.5-3.4z"/></symbol><use xlink:href="#a" width="32" height="32" x="-16" y="-16" transform="matrix(.4688 0 0 -.4688 7.5 7.5)" overflow="visible"/><use xlink:href="#b" width="41" height="32" x="-20.5" y="-16" transform="matrix(.4635 0 0 -.4688 27.5 7.5)" overflow="visible"/><use xlink:href="#c" width="20" height="32" x="-10" y="-16" transform="matrix(.45 0 0 -.4688 44.5 7.5)" overflow="visible"/><use xlink:href="#d" width="33" height="32" x="-16.5" y="-16" transform="matrix(.4688 0 0 -.4688 59.734 7.5)" overflow="visible"/></svg>