<svg id="Layer_1" xmlns="http://www.w3.org/2000/svg" xmlns:xlink="http://www.w3.org/1999/xlink" width="159.5" height="18.9" viewBox="-454 377.4 159.5 18.9"><style>.st0{fill:#FFFFFF;}</style><symbol id="_x2E_i-cam" viewBox="-20.5 -16 41 32"><path id="XMLID_3_" d="M11.5-4.5C11.5 1.8 6.3 7 0 7S-11.5 1.8-11.5-4.5-6.3-16 0-16s11.5 5.2 11.5 11.5zM0-11.9c-4.1 0-7.4 3.3-7.4 7.4S-4.1 2.9 0 2.9 7.4-.4 7.4-4.5 4.1-11.9 0-11.9z"/><path id="XMLID_2_" d="M14.5 11.5h-3.3L8.7 16H-8.5l-2.6-4.5h-3.4c-3.3 0-6-2.7-6-6V-9.9c0-3.4 2.7-6.1 6-6.1h6.8l-.9.5c-1.1.6-2.2 1.8-3.3 3.7l-.1.1h-2.6c-.9 0-1.7.8-1.7 1.8V5.5c0 1 .7 1.7 1.7 1.7h5.8l2.6 4.5H6.2l2.6-4.5h5.7c.9 0 1.7-.8 1.7-1.7V-9.9c0-1-.8-1.8-1.7-1.8h-2.6l-.1-.1c-1.1-1.8-2.2-3-3.3-3.7l-.8-.5h6.8c3.3 0 6 2.7 6 6.1V5.5c0 3.3-2.7 6-6 6z"/></symbol><symbol id="_x2E_i-close" viewBox="-7.4 -7.4 14.8 14.8"><path id="XMLID_7_" class="st0" d="M1.5 0l5.9-5.9-1.5-1.5L0-1.5l-5.9-5.9-1.5 1.5L-1.5 0l-5.9 5.9 1.5 1.5L0 1.5l5.9 5.9 1.5-1.5L1.5 0z"/></symbol><symbol id="_x2E_i-email" viewBox="-9.6 -7.5 19.1 15"><path d="M9.6 7.5V5.6L2-.2C1.5-.6.9-.7.2-.7c-.6 0-1.3.2-1.8.5l-8.1 6.1v1.6H9.6zM7.7 2l1.9 1.6V-7.5H-9.6V4l1.9-1.6v-7l3.6 4.5 1.5-1.1L-6-5.6H6.1L2.8-1.5 4.3-.4l3.4-4.3V2zm-.9 3.6h-13l5.9-4.3c.3-.2 1-.2 1.3 0l5.8 4.3z"/></symbol><symbol id="_x2E_i-load" viewBox="-16 -16 32 32"><path id="XMLID_1_" d="M0 16c-8.8 0-16-7.2-16-16s7.2-16 16-16c6.5 0 12.2 3.9 14.6 9.6l-4.4 1.8C8.5-8.5 4.6-11.2 0-11.2c-6.2 0-11.3 5-11.3 11.2s5 11.2 11.3 11.2c3.1 0 6-1.2 8-3.2L3.4 3.4H16V16l-4.7-4.7C8.4 14.2 4.4 16 0 16z"/></symbol><symbol id="_x2E_i-menu" viewBox="-11.2 -7.5 22.5 15"><path id="XMLID_6_" class="st0" d="M-11.2-7.5h22.5V-5h-22.5v-2.5zm0 6.3h22.5v2.5h-22.5v-2.5zm0 8.7V5h22.5v2.5h-22.5z"/></symbol><symbol id="_x2E_i-rarrow" viewBox="-10 -16 20 32"><path id="XMLID_4_" d="M-10 13.2L4 0l-14-13.2 3-2.8L10 0-7 16z"/></symbol><symbol id="_x2E_i-share" viewBox="-16.5 -16.1 33 32.1"><path id="XMLID_5_" d="M9.7-2.7C8.4-2.7 7.1-3 6-3.8L1.7-.5v3.3c3 .7 5.1 3.4 5.1 6.5C6.8 13 3.7 16 0 16s-6.8-3-6.8-6.7c0-3.1 2.1-5.7 5.1-6.5V-.5L-6-3.8c-1.1.8-2.4 1.1-3.7 1.1-3.7 0-6.8-3-6.8-6.7s3-6.7 6.8-6.7C-6-16-3-13-3-9.3c0 1.1-.3 2.2-.8 3.2L0-3.3l3.8-2.9c-.6-.9-.8-2-.8-3.1C3-13 6-16 9.7-16s6.8 3 6.8 6.7-3 6.6-6.8 6.6zM-6.2-9.3c0-1.9-1.6-3.4-3.5-3.4s-3.5 1.5-3.5 3.4 1.6 3.4 3.5 3.4 3.5-1.5 3.5-3.4zM0 12.8c1.9 0 3.5-1.5 3.5-3.4S1.9 5.9 0 5.9s-3.5 1.5-3.5 3.4 1.6 3.5 3.5 3.5zM13.2-9.3c0-1.9-1.6-3.4-3.5-3.4s-3.5 1.5-3.5 3.4 1.6 3.4 3.5 3.4 3.5-1.5 3.5-3.4z"/></symbol><symbol id="_x2E_i-twitter" viewBox="-9.8 -11.9 19.7 16"><path d="M7.8.2v-.5c0-5.3-4.1-11.5-11.5-11.5-2.3 0-4.4.5-6.2 1.6.3 0 .6-.1 1-.1 1.9 0 3.6.8 5 1.9-1.8 0-3.3 1.2-3.8 2.8.2 0 .5-.1.8-.1.4 0 .7 0 1.1.1-1.8.4-3.2 2-3.2 4 .5-.2 1.1-.4 1.8-.4C-8.3-1.2-9 0-9 1.4c0 .8.2 1.4.5 2 2-2.4 5-4 8.3-4.1-.1.3-.1.6-.1.9 0 2.2 1.8 4 4 4 1.2 0 2.2-.5 3-1.3.9.2 1.8.5 2.5 1-.2-1-.8-1.8-1.7-2.3.8.1 1.6.3 2.3.6-.5-.8-1.2-1.5-2-2z"/></symbol><g id="Layer_2"><use xlink:href="#_x2E_i-load" width="32" height="32" id="XMLID_60_" x="-16" y="-16" transform="matrix(.4688 0 0 -.4688 -446.5 384.9)" overflow="visible"/><use xlink:href="#_x2E_i-cam" width="41" height="32" id="XMLID_105_" x="-20.5" y="-16" transform="matrix(.4635 0 0 -.4688 -426.5 384.9)" overflow="visible"/><use xlink:href="#_x2E_i-rarrow" width="20" height="32" id="XMLID_99_" x="-10" y="-16" transform="matrix(.45 0 0 -.4688 -409.5 384.9)" overflow="visible"/><use xlink:href="#_x2E_i-share" width="33" height="32.1" id="XMLID_113_" x="-16.5" y="-16.1" transform="matrix(.4673 0 0 -.4673 -394.266 384.9)" overflow="visible"/><use xlink:href="#_x2E_i-menu" width="22.5" height="15" id="XMLID_177_" x="-11.2" y="-7.5" transform="matrix(.9778 0 0 -1 -372.483 384.9)" overflow="visible"/><use xlink:href="#_x2E_i-close" width="14.8" height="14.8" id="XMLID_178_" x="-7.4" y="-7.4" transform="matrix(1 0 0 -1 -350.867 384.992)" overflow="visible"/></g><use xlink:href="#_x2E_i-twitter" width="19.7" height="16" id="XMLID_8_" x="-9.8" y="-11.9" transform="matrix(1.079 0 0 -1.0625 -330.768 381.608)" overflow="visible"/><use xlink:href="#_x2E_i-email" width="19.1" height="15" id="XMLID_9_" x="-9.6" y="-7.5" transform="matrix(1.0597 0 0 -1.0667 -306.814 385.2)" overflow="visible"/></svg>