<?xml version="1.0" encoding="UTF-8" standalone="no"?>
<!DOCTYPE svg  PUBLIC '-//W3C//DTD SVG 1.1//EN'  'http://www.w3.org/Graphics/SVG/1.1/DTD/svg11.dtd'>
<svg xmlns="http://www.w3.org/2000/svg">
<defs>
<font id="DagnyOffcProBold-Regular" horiz-adv-x="570">
<font-face underline-position="-1" font-weight="700" descent="-200" panose-1="2 11 8 4 2 1 1 1 1 2" units-per-em="1000" unicode-range="U+0020-201D" bbox="-48 -239 934 869" x-height="502" underline-thickness="100" font-family="DagnyOffcProBold" ascent="800" cap-height="706"/>
<missing-glyph horiz-adv-x="1000"/>
<glyph glyph-name=".notdef" horiz-adv-x="1000"/>
<glyph glyph-name=".null" horiz-adv-x="0"/>
<glyph glyph-name="nonmarkingreturn" horiz-adv-x="1000"/>
<glyph glyph-name="space" horiz-adv-x="225" unicode=" "/>
<glyph glyph-name="exclam" horiz-adv-x="283" unicode="!" d="M65 152h151v-152h-151v152zM91 222l-25 280v204h151v-204l-25 -280h-101z"/>
<glyph glyph-name="quotedbl" horiz-adv-x="414" unicode='&quot;' d="M233 598v108h131v-108l-32 -179h-66zM50 598v108h131v-108l-32 -179h-66z"/>
<glyph glyph-name="numbersign" horiz-adv-x="694" unicode="#" d="M386 308l17 110h-94l-17 -110h94zM171 213h-127v95h140l17 110h-129v95h142l29 193h109l-29 -193h92l30 193h105l-27 -193h127v-95h-139l-17 -110h127v-95h-141l-32 -213h-107l31 213h-93l-32 -213h-110z"/>
<glyph glyph-name="dollar" horiz-adv-x="598" unicode="$" d="M188 494q0 -27 21 -43t64 -29v146q-39 -5 -62 -23.5t-23 -50.5zM428 182q0 30 -20 47t-66 31v-158q42 6 64 27t22 53zM273 -100v86q-92 5 -151 33.5t-96 71.5l93 94q19 -27 59.5 -51t94.5 -32v177q-46 11 -87.5 25.5t-72.5 38t-49.5 58.5t-18.5 87q0 39 15.5 72.5 t45 59.5t72 42.5t95.5 20.5v93h69v-94q76 -6 132.5 -32.5t92.5 -66.5l-92 -87q-23 26 -55.5 45.5t-77.5 25.5v-163q120 -32 174.5 -82t54.5 -125q0 -48 -18 -86t-48.5 -64.5t-72.5 -41.5t-90 -19v-86h-69z"/>
<glyph glyph-name="percent" horiz-adv-x="915" unicode="%" d="M595 731l76 -34l-349 -711l-75 32zM703 -11q-47 0 -82 18t-58.5 48.5t-35.5 70.5t-12 84q0 42 12 80.5t36 68t59 47t81 17.5q51 0 86.5 -17.5t58 -47t32.5 -68t10 -80.5q0 -43 -10.5 -83t-33 -70.5t-58 -49t-85.5 -18.5zM703 76q19 0 32 13t20 32.5t10 43.5t3 45 t-2.5 43.5t-9.5 41t-20 31t-33 12.5t-33 -12t-20.5 -31t-10 -41.5t-2.5 -43.5q0 -22 2.5 -45.5t10 -43t20 -32.5t33.5 -13zM212 290q-47 0 -82 18t-58.5 48.5t-35.5 70.5t-12 84q0 42 12 80.5t36 68t59 47t81 17.5q51 0 86.5 -17.5t58 -47t32.5 -68t10 -80.5 q0 -43 -10.5 -83t-33 -70.5t-58 -49t-85.5 -18.5zM212 377q19 0 32 13t20 32.5t10 43.5t3 45t-2.5 43.5t-9.5 41t-20 31t-33 12.5t-33 -12t-20.5 -31t-10 -41.5t-2.5 -43.5q0 -22 2.5 -45.5t10 -43t20 -32.5t33.5 -13z"/>
<glyph glyph-name="ampersand" horiz-adv-x="741" unicode="&amp;" d="M329 454q42 21 61 46.5t19 58.5q0 29 -21.5 51t-56.5 22t-51 -20t-16 -44q0 -18 6 -33t15.5 -28.5t21 -26.5t22.5 -26zM276 325q-41 -22 -65.5 -51t-24.5 -77q0 -49 34 -78t88 -29q38 0 70 12t56 31zM655 -16q-47 0 -80 19.5t-67 52.5q-31 -20 -58 -33.5t-54 -22t-56 -12 t-64 -3.5q-58 0 -101 16t-71.5 43t-43 63t-14.5 76q0 39 12 70t33.5 56.5t53 47t70.5 39.5q-41 46 -63.5 86.5t-22.5 85.5q0 69 49.5 112t147.5 43q38 0 75.5 -10t67 -30t48 -50.5t18.5 -71.5q0 -38 -13 -66t-34 -49t-47 -36.5t-53 -28.5l146 -171q10 12 18 28.5t13.5 32.5 t9 29.5t4.5 21.5l109 -25q-1 -16 -6 -36.5t-14.5 -43t-24.5 -45.5t-36 -43q3 -4 9.5 -11t15.5 -13.5t20.5 -11t24.5 -4.5q20 0 33 11l26 -91q-11 -11 -34.5 -18t-46.5 -7z"/>
<glyph glyph-name="quotesingle" horiz-adv-x="231" unicode="&apos;" d="M50 598v108h131v-108l-32 -179h-66z"/>
<glyph glyph-name="parenleft" horiz-adv-x="355" unicode="(" d="M276 -203q-56 44 -101.5 94.5t-77.5 108.5t-49.5 124.5t-17.5 144.5q0 74 18 142.5t50 129t77.5 111.5t100.5 92l55 -53q-43 -49 -72.5 -96.5t-48 -97.5t-26.5 -106t-8 -122q0 -63 8.5 -118.5t27.5 -106.5t48.5 -99t70.5 -96z"/>
<glyph glyph-name="parenright" horiz-adv-x="355" unicode=")" d="M24 -151q41 48 70.5 96t48 99t27.5 107t9 119q0 66 -8 121t-26.5 105.5t-48 97.5t-72.5 97l55 53q55 -41 100.5 -92t77.5 -111.5t50 -128.5t18 -142q0 -78 -17.5 -145t-49.5 -125t-77.5 -108.5t-101.5 -94.5z"/>
<glyph glyph-name="asterisk" horiz-adv-x="370" unicode="*" d="M131 561l-103 32l17 61l102 -30v99h71v-99l100 34l24 -64l-106 -33l72 -92l-59 -43l-66 92l-62 -92l-61 43z"/>
<glyph glyph-name="plus" horiz-adv-x="560" unicode="+" d="M228 243h-196v102h196v192h105v-192h195v-102h-195v-201h-105v201z"/>
<glyph glyph-name="comma" horiz-adv-x="255" unicode="," d="M51 -116q45 21 57.5 44t12.5 56v16h-69v152h151v-155q0 -38 -7.5 -66t-22.5 -49t-38 -36t-54 -27z"/>
<glyph glyph-name="hyphen" horiz-adv-x="377" unicode="-" d="M48 358h281v-118h-281v118z"/>
<glyph glyph-name="period" horiz-adv-x="255" unicode="." d="M52 152h151v-152h-151v152z"/>
<glyph glyph-name="slash" horiz-adv-x="466" unicode="/" d="M318 706h115l-283 -706h-118z"/>
<glyph glyph-name="zero" d="M284 -16q-68 0 -117.5 30.5t-82.5 80t-49 113t-16 129.5t16 128.5t49 111t84 78.5t121 30t119.5 -30t81 -78.5t46 -111t14.5 -127.5t-14.5 -128.5t-46 -113.5t-82.5 -81t-123 -31zM284 98q36 0 58 25t34 61.5t16 77.5t4 72q0 30 -4 71t-16 78t-34 63t-59 26 q-34 0 -55.5 -22.5t-33.5 -56t-16.5 -72t-4.5 -69.5q0 -32 3 -75.5t14 -83.5t33 -67.5t61 -27.5z" unicode="0"/>
<glyph glyph-name="one" d="M94 104h134v403q-23 -15 -51.5 -20.5t-75.5 -5.5v102q34 0 59.5 3.5t44 13.5t31.5 27t21 44h105v-567h134v-104h-402v104z" unicode="1"/>
<glyph glyph-name="two" d="M32 94q30 17 67 41.5t75 55t74 64.5t64.5 71.5t45.5 76t17 76.5q0 22 -5.5 41t-17.5 33.5t-30.5 23t-44.5 8.5q-48 0 -74 -30.5t-37 -75.5l-126 33q32 85 90.5 129t161.5 44q45 0 86.5 -11.5t74 -36t52 -62.5t19.5 -91q0 -41 -14 -79.5t-38 -74t-55.5 -67t-65.5 -59.5 t-69 -51.5t-66 -41.5h321v-111h-505v94z" unicode="2"/>
<glyph glyph-name="three" d="M158 192q14 -45 45 -74t82 -29q49 0 75.5 29.5t26.5 80.5q0 50 -32.5 80t-84.5 30h-12t-16 -1v89h30q45 0 72 26t27 68q0 40 -23.5 67.5t-72.5 27.5q-47 0 -77 -28.5t-42 -78.5l-116 39q55 167 244 167q46 0 88 -11t74.5 -32.5t51.5 -54t19 -75.5q0 -63 -38 -100.5 t-97 -49.5q32 -5 60 -18t49 -34.5t33.5 -51.5t12.5 -68q0 -57 -23 -96t-59 -63t-79 -34.5t-83 -10.5q-99 0 -162 40.5t-98 117.5z" unicode="3"/>
<glyph glyph-name="four" d="M320 259v268l-187 -268h187zM19 259l297 412h141v-412h94v-102h-94v-157h-137v157h-301v102z" unicode="4"/>
<glyph glyph-name="five" d="M151 181q17 -48 49.5 -69.5t69.5 -21.5q54 0 85 35t31 98t-31 98.5t-83 35.5q-42 0 -70 -20t-43 -44l-113 15l48 363h405v-114h-315l-21 -167q24 30 63 48t90 18q53 0 94.5 -18t70 -48.5t43 -72t14.5 -87.5q0 -59 -19.5 -104.5t-54 -76.5t-80.5 -46.5t-98 -15.5 q-42 0 -80.5 7.5t-72.5 25t-60.5 46.5t-44.5 72z" unicode="5"/>
<glyph glyph-name="six" d="M288 84q47 0 72 36t25 89q0 26 -6.5 49t-19 40.5t-30.5 27.5t-41 10t-40.5 -10t-30.5 -27.5t-19.5 -40.5t-6.5 -49q0 -53 26.5 -89t70.5 -36zM394 507q-12 34 -38.5 54t-58.5 20q-56 0 -90.5 -51t-34.5 -159v-9q0 -6 1 -14q20 37 58.5 62t99.5 25q48 0 86 -16.5t64.5 -46 t41 -70.5t14.5 -91q0 -41 -15.5 -82t-45.5 -73t-75 -52t-104 -20q-57 0 -105.5 22t-84 63.5t-55.5 101t-20 134.5q0 97 22 168.5t58.5 118.5t84.5 70t100 23q42 0 76.5 -10.5t61.5 -27.5t46 -39.5t30 -47.5z" unicode="6"/>
<glyph glyph-name="seven" d="M113 0q9 81 38 164.5t66.5 159t79.5 136.5t78 97h-323v114h465v-116q-37 -33 -80.5 -94.5t-82.5 -137.5t-67 -160t-33 -163h-141z" unicode="7"/>
<glyph glyph-name="eight" d="M285 93q48 0 79 31.5t31 82.5q0 23 -8 43.5t-23 35.5t-35 24t-44 9q-53 0 -82 -32.5t-29 -79.5q0 -48 30 -81t81 -33zM193 493q0 -20 7 -37t19.5 -30t29.5 -20.5t36 -7.5t36 7.5t29.5 20.5t19.5 30t7 37q0 42 -25 69t-67 27q-45 0 -68.5 -27.5t-23.5 -68.5zM173 363 q-24 7 -45 20.5t-36.5 31t-25 39.5t-9.5 48q0 46 19 80.5t50.5 57.5t73 34t85.5 11q42 0 83 -11.5t73 -34.5t52 -57t20 -80q0 -51 -33.5 -88t-83.5 -51q63 -14 102 -55.5t39 -108.5q0 -55 -21 -95.5t-56.5 -67t-81 -39.5t-93.5 -13t-93.5 13t-80.5 39.5t-56.5 67t-21.5 95.5 q0 64 36 107t104 57z" unicode="8"/>
<glyph glyph-name="nine" d="M175 162q11 -34 38.5 -54t59.5 -20q56 0 90 50.5t34 160.5v8t-1 14q-10 -18 -24 -33.5t-33.5 -27.5t-45 -19t-58.5 -7q-46 0 -83.5 16t-64 45.5t-41 71t-14.5 91.5q0 40 15.5 81t47 73t78 52.5t109.5 20.5q58 0 105 -23t80.5 -65t51.5 -101.5t18 -132.5q0 -96 -22 -167.5 t-58.5 -118.5t-85 -70t-102.5 -23q-41 0 -75.5 11t-61.5 28.5t-46 40t-28 45.5zM283 333q21 0 39 10t30.5 27t19.5 40t7 49q0 25 -6.5 48t-19 40t-30.5 27.5t-41 10.5q-24 0 -42.5 -10t-31 -27t-18.5 -39.5t-6 -48.5q0 -57 27.5 -92t71.5 -35z" unicode="9"/>
<glyph glyph-name="colon" horiz-adv-x="255" unicode=":" d="M52 498h151v-152h-151v152zM52 152h151v-152h-151v152z"/>
<glyph glyph-name="semicolon" horiz-adv-x="255" unicode=";" d="M52 498h151v-152h-151v152zM51 -116q45 21 57.5 44t12.5 56v16h-69v152h151v-155q0 -38 -7.5 -66t-22.5 -49t-38 -36t-54 -27z"/>
<glyph glyph-name="less" horiz-adv-x="560" unicode="&lt;" d="M505 530v-118l-248 -122l248 -122v-119l-451 241z"/>
<glyph glyph-name="equal" horiz-adv-x="560" unicode="=" d="M32 445h496v-102h-496v102zM32 245h496v-102h-496v102z"/>
<glyph glyph-name="greater" horiz-adv-x="560" unicode="&gt;" d="M54 168l249 122l-249 122v118l451 -240l-451 -241v119z"/>
<glyph glyph-name="question" horiz-adv-x="535" unicode="?" d="M171 152h151v-152h-151v152zM184 222q-1 12 -1.5 26.5t-0.5 21.5q0 35 14.5 59.5t27.5 37.5q21 22 44 40t41.5 35.5t30.5 38t12 49.5q0 41 -27 63t-66 22q-44 0 -72.5 -24.5t-42.5 -66.5l-120 47q26 72 90 111t157 39q115 0 177.5 -50.5t62.5 -135.5q0 -39 -20.5 -77.5 t-75.5 -81.5q-16 -12 -32 -24.5t-30.5 -26t-25 -29.5t-14.5 -36q-2 -14 -3 -24.5t-1 -13.5h-125z"/>
<glyph glyph-name="at" horiz-adv-x="834" unicode="@" d="M485 223l-64 -13q-45 -8 -67.5 -21t-22.5 -49q0 -23 15.5 -41.5t48.5 -18.5q17 0 33 7t29 20.5t20.5 32.5t7.5 43v40zM603 -129q-47 -15 -89 -19t-86 -4q-81 0 -151 25t-121.5 74.5t-81.5 122t-30 167.5q0 79 27.5 148t77 119t118.5 79t152 29q87 0 155.5 -26t116.5 -73 t73.5 -113.5t25.5 -147.5q0 -54 -11 -99t-33.5 -77.5t-55.5 -50.5t-78 -18q-27 0 -45.5 6.5t-31 17t-20 23.5t-11.5 25q-20 -32 -56.5 -51.5t-80.5 -19.5q-23 0 -46 7t-41.5 22t-30.5 38t-12 55q0 37 13.5 61t35.5 39t51 23.5t60 14.5l88 16v19q0 33 -14.5 51.5t-53.5 18.5 q-26 0 -55.5 -9t-64.5 -40l-46 61q33 30 81.5 45t94.5 15q31 0 59.5 -5.5t49.5 -21.5t33.5 -44.5t12.5 -73.5v-146q0 -42 11.5 -58.5t33.5 -16.5q35 0 54.5 46.5t19.5 126.5q0 68 -20.5 120.5t-57.5 88t-89 54t-115 18.5q-66 0 -118 -23t-88.5 -62t-56 -92t-19.5 -113 q0 -75 21 -134t59 -99.5t91 -61.5t118 -21q33 0 76 3.5t88 17.5z"/>
<glyph glyph-name="A" horiz-adv-x="688" unicode="A" d="M429 272q-22 66 -43.5 128.5t-43.5 138.5q-20 -72 -42.5 -136.5t-44.5 -130.5h174zM279 706h131l266 -706h-153l-55 161h-252l-54 -161h-150z"/>
<glyph glyph-name="B" horiz-adv-x="647" unicode="B" d="M345 111q54 0 83.5 25t29.5 74q0 51 -35 73t-89 22h-125v-194h136zM311 416q58 0 90.5 19t32.5 74q0 46 -28.5 66t-80.5 20h-116v-179h102zM63 706h293q44 0 86.5 -10t75.5 -32.5t53 -57.5t20 -86q0 -28 -9.5 -54t-27.5 -47.5t-43.5 -36.5t-56.5 -21q72 -13 116 -53.5 t44 -116.5q0 -57 -19.5 -93.5t-53 -58.5t-78 -30.5t-93.5 -8.5h-307v706z"/>
<glyph glyph-name="C" horiz-adv-x="707" unicode="C" d="M679 155q-50 -87 -122 -129t-178 -42q-85 0 -150 28t-108.5 77.5t-65.5 117t-22 147.5q0 81 23 148t67 116t108 76t147 27q94 0 169 -35t129 -120l-139 -70q-23 47 -64 72.5t-94 25.5q-48 0 -84 -18.5t-60 -51t-35.5 -76.5t-11.5 -94t12.5 -94t37.5 -77t61 -52.5 t84 -19.5q57 0 97 26t66 86z"/>
<glyph glyph-name="D" horiz-adv-x="706" unicode="D" d="M308 111q62 0 102.5 20t64 53.5t33 77.5t9.5 92t-9.5 91.5t-33.5 77t-65.5 53t-104.5 19.5h-95v-484h99zM63 706h242q182 0 275.5 -84.5t93.5 -268.5q0 -175 -94.5 -264t-266.5 -89h-250v706z"/>
<glyph glyph-name="E" horiz-adv-x="578" unicode="E" d="M63 706h470v-111h-324v-169h234v-110h-234v-205h335v-111h-481v706z"/>
<glyph glyph-name="F" horiz-adv-x="554" unicode="F" d="M63 706h471v-111h-325v-189h234v-111h-234v-295h-146v706z"/>
<glyph glyph-name="G" horiz-adv-x="746" unicode="G" d="M574 94q-25 -47 -77 -78.5t-127 -31.5q-83 0 -145.5 28t-105.5 77.5t-64.5 117.5t-21.5 147q0 81 23 148t66.5 116t107.5 76t145 27q94 0 174.5 -38.5t129.5 -117.5l-139 -69q-9 24 -26.5 42.5t-39.5 31t-47.5 18.5t-50.5 6q-49 0 -84.5 -18.5t-58.5 -51t-34 -76.5 t-11 -94t12.5 -94.5t36.5 -77.5t58.5 -52t78.5 -19q45 0 78 15t54 37t31 48t10 49v16h-152v111h288v-387h-89z"/>
<glyph glyph-name="H" horiz-adv-x="686" unicode="H" d="M63 706h146v-280h269v280h146v-706h-146v305h-269v-305h-146v706z"/>
<glyph glyph-name="I" horiz-adv-x="286" unicode="I" d="M70 706h146v-706h-146v706z"/>
<glyph glyph-name="J" horiz-adv-x="360" unicode="J" d="M23 109q15 -4 30.5 -5.5t26.5 -1.5q36 0 53.5 14.5t17.5 56.5v533h146v-543q0 -92 -42 -135.5t-130 -43.5q-32 0 -59.5 3t-47.5 10z"/>
<glyph glyph-name="K" horiz-adv-x="676" unicode="K" d="M63 706h146v-314l263 314h172l-247 -284l277 -422h-171l-201 313l-93 -106v-207h-146v706z"/>
<glyph glyph-name="L" horiz-adv-x="557" unicode="L" d="M63 706h146v-595h314v-111h-460v706z"/>
<glyph glyph-name="M" horiz-adv-x="807" unicode="M" d="M63 706h171q22 -55 47.5 -119t49.5 -125.5t44 -114.5t31 -86q11 33 30.5 85.5t43.5 114t49.5 125.5t48.5 120h166v-706h-137v135t0.5 139.5t1.5 127.5t3 99q-14 -41 -37.5 -100.5t-51 -127t-57.5 -138.5t-56 -136h-13q-27 66 -57.5 138.5t-58.5 140.5t-51 126.5t-36 96.5 q2 -40 3 -100t1.5 -128.5t1 -139.5t0.5 -133h-137v706z"/>
<glyph glyph-name="N" horiz-adv-x="693" unicode="N" d="M63 706h162q42 -76 80 -143.5t72 -129.5t64.5 -119t57.5 -111q-5 131 -5.5 254.5t-0.5 248.5h137v-706h-162q-36 64 -75 133.5t-75.5 136.5t-69 127.5t-54.5 105.5q5 -121 5 -233q0 -11 -0.5 -29t-0.5 -43q0 -98 2 -198h-137v706z"/>
<glyph glyph-name="O" horiz-adv-x="755" unicode="O" d="M377 111q84 0 136.5 61.5t52.5 179.5q0 56 -13.5 100.5t-38.5 76t-60.5 48.5t-79.5 17q-88 0 -137 -65t-49 -177q0 -59 15 -104t40.5 -75.5t60 -46t73.5 -15.5zM377 -16q-72 0 -134.5 23.5t-109.5 70t-74 115t-27 159.5t27 160t74 115.5t109.5 70t134.5 23.5t135 -23.5 t110 -69.5t74 -115.5t27 -160.5t-28 -159.5t-75 -115t-110 -70t-133 -23.5z"/>
<glyph glyph-name="P" horiz-adv-x="634" unicode="P" d="M317 370q29 0 53 5.5t41.5 19t27 36.5t9.5 57q0 30 -10.5 50t-28.5 33t-42 18.5t-51 5.5h-107v-225h108zM63 706h276q52 0 100 -12t84.5 -38t58.5 -67.5t22 -100.5q0 -65 -20.5 -109.5t-56 -72.5t-84 -40t-103.5 -12h-131v-254h-146v706z"/>
<glyph glyph-name="Q" horiz-adv-x="755" unicode="Q" d="M379 111q84 0 136.5 61.5t52.5 179.5q0 56 -13.5 100.5t-38.5 76t-60.5 48.5t-79.5 17q-88 0 -137.5 -65t-49.5 -177q0 -59 15 -104t41 -75.5t60.5 -46t73.5 -15.5zM643 -169q-85 0 -159 37t-117 117q-79 3 -141 30t-104.5 74t-65 113.5t-22.5 149.5q0 91 27 160 t74 115.5t109.5 70t134.5 23.5q71 0 134 -23.5t110 -69.5t74.5 -115.5t27.5 -160.5q0 -66 -15 -121t-42 -98t-64.5 -73.5t-83.5 -46.5q13 -19 33 -32t43.5 -20.5t47 -10.5t43.5 -3h12z"/>
<glyph glyph-name="R" horiz-adv-x="667" unicode="R" d="M326 376q24 0 46 5.5t38.5 18t26.5 34.5t10 55q0 30 -10.5 50t-27.5 32.5t-38.5 18t-44.5 5.5h-117v-219h117zM63 706h267q55 0 105 -11.5t87.5 -37t59.5 -66t22 -99.5q0 -44 -15 -76t-40 -54t-56.5 -35t-65.5 -18q28 -5 49.5 -20.5t39.5 -47.5l138 -241h-171l-96 184 q-23 45 -49 60.5t-69 15.5h-60v-260h-146v706z"/>
<glyph glyph-name="S" horiz-adv-x="622" unicode="S" d="M124 195q11 -17 29.5 -32.5t43.5 -28.5t55 -20.5t65 -7.5q54 0 87.5 22.5t33.5 61.5q0 24 -12.5 40t-36.5 28t-57.5 22t-75.5 21q-100 26 -151.5 74t-51.5 129q0 45 18 85t52 69t83.5 46t112.5 17q78 0 148 -26.5t117 -80.5l-97 -91q-29 33 -73.5 55t-100.5 22 q-57 0 -82.5 -21.5t-25.5 -54.5q0 -36 33.5 -58t104.5 -41q69 -18 115.5 -39t75.5 -47t41.5 -58t12.5 -73q0 -54 -22 -96t-59.5 -70.5t-87.5 -43t-106 -14.5q-107 0 -178.5 32t-108.5 80z"/>
<glyph glyph-name="T" horiz-adv-x="580" unicode="T" d="M217 595h-203v111h552v-111h-203v-595h-146v595z"/>
<glyph glyph-name="U" horiz-adv-x="687" unicode="U" d="M63 706h146v-449q0 -78 35 -112t99 -34t99 34t35 109v452h146v-460q0 -41 -9.5 -87t-39 -85t-85 -64.5t-146.5 -25.5q-92 0 -147 25.5t-84.5 64.5t-39 85t-9.5 87v460z"/>
<glyph glyph-name="V" horiz-adv-x="681" unicode="V" d="M10 706h156q24 -72 49 -144.5t48.5 -142t43.5 -133.5t35 -119q15 56 36 120.5t44 133.5t48 141t49 144h151l-264 -706h-132z"/>
<glyph glyph-name="W" horiz-adv-x="947" unicode="W" d="M13 706h156q14 -60 30.5 -129t33 -137t31 -130t23.5 -109q5 42 19.5 103.5t33.5 131t39 140t37 130.5h118q19 -74 40.5 -146.5t40.5 -138.5t34.5 -123t23.5 -99q11 96 41 221t67 286h153l-199 -706h-132q-40 142 -78 265t-58 217q-8 -48 -22 -108t-31.5 -124.5 t-36 -128.5t-34.5 -121h-132z"/>
<glyph glyph-name="X" horiz-adv-x="708" unicode="X" d="M248 370l-211 336h166l151 -252l150 252h166l-212 -336l237 -370h-177l-164 287l-165 -287h-176z"/>
<glyph glyph-name="Y" horiz-adv-x="680" unicode="Y" d="M264 316l-251 390h167l159 -279l162 279h166l-257 -390v-316h-146v316z"/>
<glyph glyph-name="Z" horiz-adv-x="616" unicode="Z" d="M33 111l377 484h-347v111h513v-111l-377 -484h384v-111h-550v111z"/>
<glyph glyph-name="bracketleft" horiz-adv-x="340" unicode="[" d="M60 732h251v-80h-141v-750h141v-93h-251v923z"/>
<glyph glyph-name="backslash" horiz-adv-x="466" unicode="\" d="M433 0h-117l-284 706h115z"/>
<glyph glyph-name="bracketright" horiz-adv-x="340" unicode="]" d="M30 -98h139v750h-139v80h251v-923h-251v93z"/>
<glyph glyph-name="asciicircum" horiz-adv-x="629" unicode="^" d="M277 706h83l192 -395h-112l-122 261h-2l-128 -261h-112z"/>
<glyph glyph-name="underscore" horiz-adv-x="500" unicode="_" d="M-10 -51h520v-100h-520v100z"/>
<glyph glyph-name="grave" horiz-adv-x="323" unicode="`" d="M50 714h153l70 -137h-103z"/>
<glyph glyph-name="a" horiz-adv-x="531" unicode="a" d="M337 236l-87 -16q-45 -8 -65 -25t-20 -46t18 -48.5t50 -19.5q43 0 73.5 32.5t30.5 89.5v33zM360 0q-6 14 -9.5 33.5t-5.5 37.5q-16 -37 -52.5 -62t-94.5 -25q-78 0 -120.5 45t-42.5 115q0 39 14 66.5t39 46.5t60 30.5t78 17.5l111 17v19q0 44 -21.5 58t-55.5 14 q-51 0 -85.5 -19t-60.5 -45l-65 90q31 30 88 54t140 24q105 0 151 -46t46 -140v-188q0 -29 0.5 -49t2.5 -35.5t6 -29.5t10 -29h-133z"/>
<glyph glyph-name="b" horiz-adv-x="558" unicode="b" d="M191 249q0 -32 6 -60t18 -48.5t30.5 -32.5t44.5 -12q46 0 70.5 41t24.5 112q0 73 -25.5 114.5t-73.5 41.5q-25 0 -43 -11t-29.5 -29.5t-17 -44t-5.5 -53.5v-18zM55 706h136v-269q17 34 53.5 57t89.5 23q39 0 74 -15t61.5 -47t42 -81t15.5 -117q0 -64 -14.5 -114 t-40.5 -84.5t-63 -52.5t-82 -18q-47 0 -86 21.5t-62 67.5l-13 -77h-111v706z"/>
<glyph glyph-name="c" horiz-adv-x="516" unicode="c" d="M499 107q-35 -63 -90.5 -93t-129.5 -30q-65 0 -111.5 20.5t-76.5 56.5t-44.5 84.5t-14.5 103.5q0 60 16.5 109t48 84.5t77.5 55t105 19.5q77 0 129.5 -32.5t87.5 -93.5l-113 -55q-16 40 -41.5 58.5t-58.5 18.5q-29 0 -49.5 -12t-34 -33t-20 -49.5t-6.5 -61.5 q0 -29 5.5 -59t19 -54t36 -39.5t57.5 -15.5q40 0 65.5 21t40.5 58z"/>
<glyph glyph-name="d" horiz-adv-x="559" unicode="d" d="M368 269q0 26 -5.5 50.5t-17 44t-30 31t-44.5 11.5q-50 0 -74 -41.5t-24 -107.5q0 -73 27 -116t73 -43q25 0 43 12t29.5 32.5t17 48t5.5 57.5v21zM376 81q-20 -44 -55.5 -68t-88.5 -24q-45 0 -82.5 18t-63.5 52.5t-40.5 83.5t-14.5 112q0 69 17 118.5t44.5 81t63.5 46.5 t75 15q53 0 87.5 -22.5t49.5 -54.5v267h137v-706h-129v81z"/>
<glyph glyph-name="e" horiz-adv-x="544" unicode="e" d="M275 417q-47 0 -72.5 -31.5t-31.5 -88.5h203q0 24 -6 45.5t-18 38t-30.5 26.5t-44.5 10zM171 219q8 -70 40.5 -101.5t81.5 -31.5q72 0 109 67l101 -57q-35 -55 -90 -83.5t-127 -28.5q-62 0 -109.5 20.5t-79.5 56t-48.5 84t-16.5 104.5q0 57 16.5 106t48 85t77 56.5 t104.5 20.5q57 0 100.5 -20t73.5 -55.5t45 -85t15 -108.5q0 -13 -0.5 -19.5t-0.5 -9.5h-340z"/>
<glyph glyph-name="f" horiz-adv-x="339" unicode="f" d="M97 414h-84v88h79q-8 26 -12 51t-4 45q0 25 6.5 48.5t23.5 40.5t46.5 27.5t74.5 10.5q37 0 64.5 -4.5t51.5 -13.5l-21 -102q-11 6 -30 10t-33 4q-46 0 -46 -44q0 -20 5.5 -40.5t10.5 -32.5h98v-88h-93v-414h-137v414z"/>
<glyph glyph-name="g" horiz-adv-x="558" unicode="g" d="M367 266q0 26 -4.5 50.5t-16 44t-29.5 31.5t-45 12q-45 0 -71.5 -37t-26.5 -109q0 -66 24 -105.5t75 -39.5q48 0 71 37t23 99v17zM110 -21q29 -29 71 -45.5t88 -16.5q58 0 78 29t20 76v65q-17 -33 -52 -55t-89 -22q-39 0 -74 14t-62 44t-42.5 76.5t-15.5 111.5 q0 61 14 109t40.5 81.5t63.5 51.5t83 18q51 0 88 -23.5t57 -67.5l18 77h108v-476q0 -45 -12.5 -83.5t-40 -67.5t-72.5 -45.5t-109 -16.5q-81 0 -139 21.5t-96 47.5z"/>
<glyph glyph-name="h" horiz-adv-x="561" unicode="h" d="M55 706h136v-282q18 38 57 65.5t100 27.5q83 0 122 -53.5t39 -152.5v-311h-136v288q0 53 -20.5 81.5t-62.5 28.5q-44 0 -71.5 -36t-27.5 -108v-254h-136v706z"/>
<glyph glyph-name="i" horiz-adv-x="245" unicode="i" d="M55 502h136v-502h-136v502zM55 700h136v-111h-136v111z"/>
<glyph glyph-name="j" horiz-adv-x="255" unicode="j" d="M65 700h136v-111h-136v111zM-36 -74q10 -4 26 -6t27 -2q25 0 36.5 13.5t11.5 45.5v525h136v-534q0 -75 -34.5 -113.5t-119.5 -38.5q-26 0 -50 4t-43 12z"/>
<glyph glyph-name="k" horiz-adv-x="565" unicode="k" d="M55 706h136v-407l189 203h167l-198 -190l207 -312h-156l-137 228l-72 -69v-159h-136v706z"/>
<glyph glyph-name="l" horiz-adv-x="245" unicode="l" d="M55 706h136v-706h-136v706z"/>
<glyph glyph-name="m" horiz-adv-x="843" unicode="m" d="M55 502h121l11 -81q20 45 56.5 70.5t90.5 25.5q61 0 94.5 -29.5t46.5 -69.5q9 19 21.5 37t31 31.5t44.5 22t61 8.5q49 0 80.5 -17t48.5 -44.5t23.5 -63.5t6.5 -75v-317h-136v279q0 60 -18 89.5t-59 29.5q-17 0 -32.5 -6.5t-28 -22.5t-20 -43t-7.5 -67v-259h-136v280 q0 118 -75 118q-17 0 -32.5 -7t-28.5 -24.5t-20.5 -46t-7.5 -71.5v-249h-136v502z"/>
<glyph glyph-name="n" horiz-adv-x="561" unicode="n" d="M55 502h121l11 -81q21 39 63 67.5t98 28.5q82 0 121.5 -51.5t39.5 -151.5v-314h-136v281q0 63 -21 90t-62 27q-43 0 -71 -35t-28 -115v-248h-136v502z"/>
<glyph glyph-name="o" horiz-adv-x="554" unicode="o" d="M280 89q51 0 76 45t25 117q0 71 -26 116.5t-78 45.5q-53 0 -78.5 -45.5t-25.5 -116.5q0 -72 26 -117t81 -45zM277 -16q-62 0 -108 20.5t-76.5 56.5t-46 84.5t-15.5 105.5t16 105.5t47.5 84t77 56t105.5 20.5t106 -20t77 -56t47 -84.5t16 -105.5t-16 -105.5t-47 -84.5 t-77 -56.5t-106 -20.5z"/>
<glyph glyph-name="p" horiz-adv-x="558" unicode="p" d="M190 241q0 -30 6.5 -56t19 -46t31 -31.5t42.5 -11.5q46 0 71 41t25 113q0 69 -24 112t-75 43q-26 0 -44 -12t-29.5 -31.5t-17 -45t-5.5 -53.5v-22zM55 502h135v-77q18 38 53.5 65t93.5 27q90 0 140 -69t50 -193q0 -74 -17.5 -124.5t-46 -82.5t-64 -46t-72.5 -14 q-45 0 -82 19t-54 52v-233h-136v676z"/>
<glyph glyph-name="q" horiz-adv-x="559" unicode="q" d="M368 258q0 67 -24 107.5t-73 40.5q-27 0 -45.5 -11.5t-30 -31.5t-17 -47.5t-5.5 -60.5q0 -77 27 -117t72 -40q48 0 72 39t24 105v16zM368 62q-19 -35 -52 -55t-81 -20q-41 0 -78 15t-65 47.5t-44.5 82t-16.5 118.5q0 126 53.5 196t147.5 70q49 0 87.5 -22t59.5 -70l19 78 h107v-676h-137v236z"/>
<glyph glyph-name="r" horiz-adv-x="375" unicode="r" d="M55 502h121l10 -99q23 49 66 81.5t110 32.5v-139q-8 2 -19 3t-25 1q-22 0 -44.5 -5.5t-41 -21.5t-30 -44.5t-11.5 -73.5v-237h-136v502z"/>
<glyph glyph-name="s" horiz-adv-x="474" unicode="s" d="M87 151q12 -13 28.5 -25t36 -21.5t41.5 -15t45 -5.5q27 0 50.5 11.5t23.5 37.5q0 23 -20 36t-50 23t-65.5 20t-65.5 27.5t-50 45.5t-20 75q0 41 17 70.5t45 49t64 28.5t75 9q63 0 112 -16t87 -45l-63 -90q-10 10 -26 19t-34.5 16.5t-39.5 12t-41 4.5q-23 0 -40.5 -10 t-17.5 -33q0 -21 20 -33.5t50 -23t65 -21.5t65 -28.5t50 -46t20 -72.5q0 -42 -18 -73t-47 -52t-66 -31t-74 -10q-137 0 -221 75z"/>
<glyph glyph-name="t" horiz-adv-x="356" unicode="t" d="M95 414h-82v88h16q34 0 54.5 11t32.5 30t17.5 45.5t11.5 57.5h85v-144h106v-88h-106v-263q0 -30 10.5 -46t42.5 -16q10 0 22 2t26 8l10 -96q-25 -11 -50.5 -15t-51.5 -4q-43 0 -70.5 11t-44 31t-23 47.5t-6.5 59.5v281z"/>
<glyph glyph-name="u" horiz-adv-x="558" unicode="u" d="M52 502h136v-286q0 -112 79 -112q48 0 74.5 37.5t26.5 110.5v250h136v-502h-128v85q-20 -43 -54.5 -70t-99.5 -27q-87 0 -128.5 50.5t-41.5 145.5v318z"/>
<glyph glyph-name="v" horiz-adv-x="510" unicode="v" d="M10 502h152l97 -375l95 375h146l-166 -502h-160z"/>
<glyph glyph-name="w" horiz-adv-x="788" unicode="w" d="M12 502h147l85 -372l77 372h146l77 -372l84 372h146l-157 -502h-147l-77 313l-77 -313h-147z"/>
<glyph glyph-name="x" horiz-adv-x="568" unicode="x" d="M188 266l-149 236h148l97 -162l99 162h146l-150 -237l176 -265h-157l-114 190l-115 -190h-156z"/>
<glyph glyph-name="y" horiz-adv-x="517" unicode="y" d="M57 -71q16 -5 33.5 -8.5t32.5 -3.5q27 0 41 14.5t26 53.5l-177 517h146l100 -366l99 366h146l-167 -485q-17 -48 -32 -85.5t-37 -63.5t-55.5 -39.5t-85.5 -13.5q-9 0 -21 0.5t-24.5 1.5t-24 2.5t-18.5 3.5z"/>
<glyph glyph-name="z" horiz-adv-x="511" unicode="z" d="M33 97l270 304h-258v101h420v-97l-276 -304h289v-101h-445v97z"/>
<glyph glyph-name="braceleft" horiz-adv-x="381" unicode="{" d="M353 -193q-11 -2 -29.5 -3t-29.5 -1q-59 0 -95 15t-55 42.5t-25 66t-6 86.5v118q0 51 -17.5 78.5t-65.5 41.5v41q29 7 45.5 19.5t25 29t10.5 37.5t2 46v103q0 54 7.5 94t28 66.5t55.5 39.5t91 13q21 0 34 -1.5t24 -3.5l-8 -69q-8 1 -14.5 1.5t-20.5 0.5q-27 0 -43.5 -9.5 t-25 -26.5t-11 -41t-2.5 -52v-80q0 -34 -2.5 -63t-12 -52.5t-29.5 -42t-56 -30.5q33 -12 53 -29t30.5 -39t13.5 -48t3 -57v-97q0 -30 2.5 -53.5t11.5 -40t26 -25t45 -8.5q8 0 15.5 0.5t16.5 1.5z"/>
<glyph glyph-name="bar" horiz-adv-x="337" unicode="|" d="M111 775h115v-946h-115v946z"/>
<glyph glyph-name="braceright" horiz-adv-x="381" unicode="}" d="M36 -124q9 -1 16.5 -1.5t15.5 -0.5q28 0 45 8.5t26 25t12 40t3 53.5v97q0 31 3 57.5t13 48.5t30 38.5t53 28.5q-35 13 -55 31t-30 41.5t-12 52.5t-2 63v80q0 29 -2.5 53t-11 41t-25 26.5t-43.5 9.5q-14 0 -21 -0.5t-15 -1.5l-7 69q11 1 24 2.5t33 1.5q56 0 91.5 -13 t55.5 -39.5t27.5 -66.5t7.5 -94v-103q0 -25 2.5 -45.5t10.5 -37t24.5 -29t45.5 -20.5v-41q-48 -14 -65.5 -41.5t-17.5 -78.5v-118q0 -48 -6 -86.5t-25 -66t-54.5 -42.5t-95.5 -15q-10 0 -28.5 1t-29.5 3z"/>
<glyph glyph-name="asciitilde" horiz-adv-x="560" unicode="~" d="M34 236q0 26 7 53t23.5 49.5t43 36.5t65.5 14q24 0 53 -7.5t58 -17t55 -17t45 -7.5q28 0 35 15t9 34h98q0 -33 -5.5 -60.5t-19 -48t-35.5 -32t-56 -11.5q-33 0 -65.5 8t-62 17t-55 17t-44.5 8q-26 0 -38 -12t-17 -39h-94z"/>
<glyph glyph-name="uni00A0" horiz-adv-x="225" unicode=" "/>
<glyph glyph-name="exclamdown" horiz-adv-x="283" unicode="¡" d="M218 350h-151v152h151v-152zM192 280l25 -280v-204h-151v204l25 280h101z"/>
<glyph glyph-name="cent" horiz-adv-x="550" unicode="¢" d="M182 257q0 -24 3.5 -48t12 -45.5t22 -39t34.5 -26.5v308q-38 -14 -55 -54.5t-17 -94.5zM254 -100v86q-56 5 -96 27.5t-66 58t-38.5 81t-12.5 96.5q0 55 14 101.5t41 81t67 56t91 27.5v87h69v-87q63 -8 107 -39t75 -85l-113 -55q-23 58 -69 72v-317q30 5 50 25t33 52 l102 -61q-31 -56 -77.5 -85.5t-107.5 -35.5v-86h-69z"/>
<glyph glyph-name="sterling" horiz-adv-x="761" unicode="£" d="M277 113q-17 13 -37.5 25.5t-44.5 12.5q-46 0 -46 -39q0 -16 13.5 -27.5t39.5 -11.5q18 0 38.5 9t36.5 31zM102 396h77q-10 14 -25.5 41.5t-15.5 70.5t17.5 76t49 55.5t76.5 34t101 11.5q57 0 100.5 -10.5t75.5 -28t54.5 -40.5t36.5 -49l-122 -62q-17 40 -56 65.5 t-90 25.5q-16 0 -33 -4t-31 -13.5t-23 -24t-9 -35.5q0 -25 17.5 -52.5t48.5 -60.5h204v-78h-149q16 -33 23 -58t7 -50t-5 -46.5t-13 -38.5q20 -13 50 -25t62 -12q40 0 55 27t15 68h121q0 -44 -12.5 -80t-36 -62t-58 -40.5t-79.5 -14.5q-57 0 -99.5 21t-71.5 42 q-34 -32 -74.5 -48t-83.5 -16q-55 0 -89 14t-52.5 35t-24.5 44t-6 41q0 31 11.5 54.5t30.5 39t44 23t53 7.5q22 0 42 -5t36.5 -12t29 -14.5t19.5 -12.5q0 6 -0.5 17t-4.5 22q-8 23 -21 42.5t-33 39.5h-139v76z"/>
<glyph glyph-name="currency" horiz-adv-x="717" unicode="¤" d="M359 185q27 0 50 10.5t40 30.5t27 50.5t10 70.5q0 75 -35.5 118t-92.5 43q-54 0 -91 -42.5t-37 -118.5q0 -81 37.5 -121.5t91.5 -40.5zM143 203q-15 29 -24 65.5t-9 78.5q0 87 34 147l-89 88l71 71l86 -86q62 41 146 41q83 0 145 -41l88 86l70 -71l-90 -89 q35 -59 35 -146q0 -42 -8.5 -79t-25.5 -65l90 -88l-72 -71l-84 84q-32 -23 -68.5 -33t-79.5 -10q-45 0 -80 10.5t-67 33.5l-85 -85l-70 71z"/>
<glyph glyph-name="yen" horiz-adv-x="700" unicode="¥" d="M276 209h-211v78h203v16l-30 50h-173v78h125l-148 240h158l149 -280l151 280h157l-148 -240h128v-78h-177l-31 -50v-16h208v-78h-215v-209h-146v209z"/>
<glyph glyph-name="brokenbar" horiz-adv-x="337" unicode="¦" d="M111 249h115v-420h-115v420zM111 775h115v-420h-115v420z"/>
<glyph glyph-name="section" horiz-adv-x="609" unicode="§" d="M237 377q-17 -10 -34.5 -27.5t-17.5 -45.5q0 -24 18.5 -42t46.5 -33t61.5 -28t64.5 -28q20 13 36.5 31t16.5 42q0 22 -17 40t-44.5 33t-62 29t-68.5 29zM109 -11q13 -13 34 -25.5t47 -23t55 -17t59 -6.5q32 0 57.5 16.5t25.5 52.5q0 11 -5 21.5t-18.5 21t-37.5 22.5 t-62 27q-39 15 -77 32t-68 40.5t-48.5 54.5t-18.5 73q0 30 8.5 53.5t22 42t29.5 32t30 23.5q-22 17 -40.5 44.5t-18.5 72.5q0 41 17 73.5t48.5 55.5t75.5 35t98 12q60 0 118 -13.5t105 -44.5l-70 -99q-42 27 -79.5 39t-88.5 12q-14 0 -28.5 -3.5t-26 -11t-18.5 -18.5t-7 -27 q0 -19 13.5 -33t37 -26t55 -24t67.5 -28q86 -39 124.5 -82.5t38.5 -102.5q0 -48 -27.5 -83.5t-64.5 -60.5q23 -18 40.5 -48.5t17.5 -68.5q0 -51 -20.5 -86.5t-54 -58.5t-75.5 -33.5t-85 -10.5q-75 0 -140 17.5t-110 51.5z"/>
<glyph glyph-name="dieresis" horiz-adv-x="444" unicode="¨" d="M261 700h133v-111h-133v111zM50 700h132v-111h-132v111z"/>
<glyph glyph-name="copyright" horiz-adv-x="829" unicode="©" d="M414 50q65 0 119 24.5t92.5 66t60 96.5t21.5 116t-21 115.5t-59.5 96t-92 65.5t-118.5 24t-119 -24t-93 -65.5t-60.5 -96t-21.5 -115.5q0 -63 22 -118t61 -96t92.5 -65t116.5 -24zM594 195q-43 -41 -86 -55t-88 -14q-56 0 -98 18.5t-70 49.5t-42 72t-14 86 q0 46 14.5 87.5t43 72.5t70.5 49t96 18q36 0 64.5 -7.5t49.5 -18t35.5 -22.5t24.5 -21l-69 -72q-22 22 -48 35t-58 13q-35 0 -58 -12.5t-36.5 -32t-18.5 -43t-5 -46.5q0 -57 31.5 -94.5t88.5 -37.5q21 0 37.5 4.5t29.5 11t22 14l15 12.5zM414 -10q-72 0 -137.5 26.5 t-115.5 74.5t-79.5 114.5t-29.5 147.5q0 78 28.5 144.5t78 115t115.5 76t142 27.5q80 0 146.5 -28.5t114 -78t74 -115.5t26.5 -141t-27.5 -141.5t-76 -115.5t-115 -77.5t-144.5 -28.5z"/>
<glyph glyph-name="ordfeminine" horiz-adv-x="394" unicode="ª" d="M244 510l-59 -10q-30 -5 -41.5 -17t-11.5 -30q0 -20 10.5 -32.5t32.5 -12.5q29 0 49 22.5t20 61.5v18zM261 341q-5 10 -8 23t-3 25q-11 -24 -36 -41.5t-67 -17.5q-57 0 -88 33.5t-31 82.5q0 58 37.5 85t100.5 37l78 12v10q0 29 -14 38.5t-39 9.5q-33 0 -58.5 -14 t-42.5 -31l-51 73q23 20 64.5 37.5t104.5 17.5q76 0 110 -34.5t34 -104.5v-134q0 -22 0.5 -37t2 -27t4 -22t7.5 -21h-105z"/>
<glyph glyph-name="guillemotleft" horiz-adv-x="619" unicode="«" d="M574 493v-119l-143 -112l143 -112v-119l-287 231zM322 493v-119l-143 -112l143 -112v-119l-288 231z"/>
<glyph glyph-name="logicalnot" horiz-adv-x="560" unicode="¬" d="M32 345h496v-303h-113v201h-383v102z"/>
<glyph glyph-name="uni00AD" horiz-adv-x="377" unicode="­" d="M48 358h281v-118h-281v118z"/>
<glyph glyph-name="registered" horiz-adv-x="523" unicode="®" d="M262 551q17 0 29.5 6.5t12.5 26.5q0 17 -14 23.5t-30 6.5h-32v-63h34zM169 660h91q18 0 36.5 -2.5t33.5 -9.5t24.5 -21t9.5 -36q0 -30 -17 -44.5t-34 -18.5q20 -8 32 -40q8 -20 15.5 -40t15.5 -39h-64l-21 57q-9 26 -18.5 33.5t-23.5 7.5h-21v-98h-59v251zM260 344 q44 0 77 15t55.5 40.5t34 59t11.5 71.5q0 37 -11.5 71t-34.5 60t-56.5 41t-76.5 15t-75.5 -15t-54 -40.5t-32.5 -59t-11 -71.5t12 -72t34.5 -59.5t54.5 -40.5t73 -15zM261 303q-48 0 -89 17.5t-70 48t-45.5 72t-16.5 90.5q0 47 15.5 88.5t44 72t69.5 48t92 17.5 q52 0 93.5 -18t70 -49t43.5 -72.5t15 -87.5q0 -47 -16.5 -88.5t-45.5 -72t-70 -48.5t-90 -18z"/>
<glyph glyph-name="macron" horiz-adv-x="416" unicode="¯" d="M50 690h316v-92h-316v92z"/>
<glyph glyph-name="degree" horiz-adv-x="359" unicode="°" d="M180 511q29 0 46 20t17 49q0 26 -16.5 47t-46.5 21q-32 0 -48.5 -21t-16.5 -47q0 -28 17.5 -48.5t47.5 -20.5zM180 437q-31 0 -58 11t-46.5 30t-30.5 45t-11 56t11 56.5t30.5 45.5t46 30t57.5 11t58 -11t46 -30.5t30 -45t11 -55.5t-11 -56.5t-30 -45.5t-45.5 -30 t-57.5 -11z"/>
<glyph glyph-name="plusminus" horiz-adv-x="560" unicode="±" d="M32 103h496v-103h-496v103zM228 303h-196v103h196v172h105v-172h195v-103h-195v-162h-105v162z"/>
<glyph glyph-name="twosuperior" horiz-adv-x="402" unicode="²" d="M21 327q30 15 71 39t78 53.5t63 62t26 64.5q0 25 -15 42t-48 17q-32 0 -53.5 -21t-29.5 -47l-92 33q15 45 60 78t122 33q33 0 64 -7t55.5 -23t39 -40.5t14.5 -58.5q0 -39 -22.5 -72.5t-55 -61t-70 -48.5t-67.5 -35h220v-78h-360v70z"/>
<glyph glyph-name="threesuperior" horiz-adv-x="402" unicode="³" d="M121 387q6 -24 26 -43t49 -19q33 0 49 17.5t16 43.5t-17.5 42.5t-45.5 16.5h-9.5t-13.5 -1v63q8 -1 13 -1h9q27 0 40 15t13 35q0 19 -13 34t-45 15q-28 0 -47 -16.5t-27 -46.5l-92 30q42 108 172 108q33 0 63.5 -6.5t54 -20t38 -34t14.5 -47.5q0 -38 -27 -60.5t-65 -29.5 q42 -5 73 -31t31 -74q0 -38 -17 -63t-43 -39.5t-56 -20.5t-56 -6q-69 0 -113 24.5t-73 79.5z"/>
<glyph glyph-name="acute" horiz-adv-x="323" unicode="´" d="M152 577h-102l70 137h153z"/>
<glyph glyph-name="mu" horiz-adv-x="558" unicode="µ" d="M52 502h136v-286q0 -112 79 -112q48 0 74.5 37.5t26.5 110.5v250h136v-502h-128v85q-8 -22 -17.5 -40t-22 -30.5t-30 -19.5t-40.5 -7q-24 0 -44 9.5t-34 30.5v-202h-136v676z"/>
<glyph glyph-name="paragraph" horiz-adv-x="608" unicode="¶" d="M231 274q-81 20 -128.5 69.5t-47.5 137.5q0 104 64.5 164.5t186.5 60.5h268v-88h-42v-792h-104v792h-96v-792h-101v448z"/>
<glyph glyph-name="periodcentered" horiz-adv-x="275" unicode="·" d="M62 374h151v-152h-151v152z"/>
<glyph glyph-name="cedilla" horiz-adv-x="332" unicode="¸" d="M74 -156q7 -5 21 -10t34 -5q23 0 35.5 8.5t12.5 27.5q0 18 -14 29.5t-47 11.5h-9t-12 -1l37 95h76l-22 -49q40 -5 68 -25t28 -63q0 -51 -38.5 -76.5t-98.5 -25.5q-29 0 -55 4.5t-40 15.5z"/>
<glyph glyph-name="onesuperior" horiz-adv-x="320" unicode="¹" d="M131 554q-15 -6 -32.5 -10t-52.5 -4v80q49 0 73.5 9t34.5 42h83v-414h-106v297z"/>
<glyph glyph-name="ordmasculine" horiz-adv-x="416" unicode="º" d="M211 414q20 0 32.5 10.5t19.5 27t9.5 36t2.5 37.5q0 17 -3 37t-10.5 37t-20.5 28t-33 11q-21 0 -34 -11.5t-20.5 -28.5t-10.5 -36.5t-3 -36.5q0 -18 3 -37.5t10.5 -36t21.5 -27t36 -10.5zM208 330q-45 0 -79 15t-56.5 41t-33.5 61.5t-11 77.5t12 77.5t34.5 62t56 41.5 t77.5 15t78 -15t56.5 -41.5t34 -62t11.5 -77.5t-11.5 -77.5t-34 -61.5t-56.5 -41t-78 -15z"/>
<glyph glyph-name="guillemotright" horiz-adv-x="619" unicode="»" d="M332 262l-288 -231v119l144 112l-144 112v119zM584 262l-287 -231v119l143 112l-143 112v119z"/>
<glyph glyph-name="onequarter" horiz-adv-x="797" unicode="¼" d="M501 731l76 -34l-349 -711l-75 32zM598 167v141l-113 -141h113zM395 166l203 250h107v-249h67v-76h-67v-89h-107v89h-203v75zM109 592q-15 -6 -32.5 -10t-52.5 -4v80q49 0 73.5 9t34.5 42h83v-414h-106v297z"/>
<glyph glyph-name="onehalf" horiz-adv-x="845" unicode="½" d="M501 731l76 -34l-349 -711l-75 32zM453 72q30 15 71 39t78 53.5t63 62t26 64.5q0 25 -15 42t-48 17q-32 0 -53.5 -21t-29.5 -47l-92 33q15 45 60 78t122 33q33 0 64 -7t55.5 -23t39 -40.5t14.5 -58.5q0 -39 -22.5 -72.5t-55 -61t-70 -48.5t-67.5 -35h220v-78h-360v70z M109 592q-15 -6 -32.5 -10t-52.5 -4v80q49 0 73.5 9t34.5 42h83v-414h-106v297z"/>
<glyph glyph-name="threequarters" horiz-adv-x="904" unicode="¾" d="M608 731l76 -34l-349 -711l-75 32zM706 167v141l-113 -141h113zM503 166l203 250h107v-249h67v-76h-67v-89h-107v89h-203v75zM123 425q6 -24 26 -43t49 -19q33 0 49 17.5t16 43.5t-17.5 42.5t-45.5 16.5h-9.5t-13.5 -1v63q8 -1 13 -1h9q27 0 40 15t13 35q0 19 -13 34 t-45 15q-28 0 -47 -16.5t-27 -46.5l-92 30q42 108 172 108q33 0 63.5 -6.5t54 -20t38 -34t14.5 -47.5q0 -38 -27 -60.5t-65 -29.5q42 -5 73 -31t31 -74q0 -38 -17 -63t-43 -39.5t-56 -20.5t-56 -6q-69 0 -113 24.5t-73 79.5z"/>
<glyph glyph-name="questiondown" horiz-adv-x="535" unicode="¿" d="M364 350h-151v152h151v-152zM351 280q1 -12 1.5 -26.5t0.5 -21.5q0 -35 -14.5 -59.5t-27.5 -37.5q-21 -23 -44 -40.5t-41.5 -35t-30.5 -38.5t-12 -49q0 -41 27 -63t66 -22q44 0 72.5 24.5t42.5 66.5l120 -47q-26 -72 -90 -111t-157 -39q-115 0 -177.5 50.5t-62.5 135.5 q0 39 20.5 77.5t75.5 81.5q16 12 32 24.5t30.5 26t25 29.5t14.5 36q2 14 3 24.5t1 13.5h125z"/>
<glyph glyph-name="Agrave" horiz-adv-x="688" unicode="À" d="M175 857h153l78 -110h-103zM429 272q-22 66 -43.5 128.5t-43.5 138.5q-20 -72 -42.5 -136.5t-44.5 -130.5h174zM279 706h131l266 -706h-153l-55 161h-252l-54 -161h-150z"/>
<glyph glyph-name="Aacute" horiz-adv-x="688" unicode="Á" d="M386 747h-103l78 110h153zM429 272q-22 66 -43.5 128.5t-43.5 138.5q-20 -72 -42.5 -136.5t-44.5 -130.5h174zM279 706h131l266 -706h-153l-55 161h-252l-54 -161h-150z"/>
<glyph glyph-name="Acircumflex" horiz-adv-x="688" unicode="Â" d="M262 865h161l85 -118h-103l-63 57l-62 -57h-103zM429 272q-22 66 -43.5 128.5t-43.5 138.5q-20 -72 -42.5 -136.5t-44.5 -130.5h174zM279 706h131l266 -706h-153l-55 161h-252l-54 -161h-150z"/>
<glyph glyph-name="Atilde" horiz-adv-x="688" unicode="Ã" d="M170 746q3 21 8.5 43t16.5 39t28 28t43 11q19 0 38 -5t36 -11t32 -11t27 -5q14 0 21.5 7.5t12.5 26.5h85q-3 -24 -9 -45.5t-17.5 -38.5t-28.5 -27t-43 -10q-19 0 -37.5 5.5t-35.5 12t-32 12t-27 5.5t-20.5 -8.5t-13.5 -28.5h-84zM429 272q-22 66 -43.5 128.5t-43.5 138.5 q-20 -72 -42.5 -136.5t-44.5 -130.5h174zM279 706h131l266 -706h-153l-55 161h-252l-54 -161h-150z"/>
<glyph glyph-name="Adieresis" horiz-adv-x="688" unicode="Ä" d="M384 854h133v-103h-133v103zM173 854h132v-103h-132v103zM429 272q-22 66 -43.5 128.5t-43.5 138.5q-20 -72 -42.5 -136.5t-44.5 -130.5h174zM279 706h131l266 -706h-153l-55 161h-252l-54 -161h-150z"/>
<glyph glyph-name="Aring" horiz-adv-x="688" unicode="Å" d="M345 708q23 0 35.5 14t12.5 34t-12.5 34t-35.5 14t-35 -14t-12 -34t12.5 -34t34.5 -14zM429 272q-22 66 -43.5 128.5t-43.5 138.5q-20 -72 -42.5 -136.5t-44.5 -130.5h174zM267 675q-16 15 -25 35.5t-9 45.5q0 23 8.5 42.5t23.5 34t35.5 23t44.5 8.5q49 0 80.5 -31 t31.5 -77q0 -25 -9.5 -46t-26.5 -35l255 -675h-153l-55 161h-252l-54 -161h-150z"/>
<glyph glyph-name="AE" horiz-adv-x="968" unicode="Æ" d="M453 272v327l-159 -327h159zM453 161h-213l-78 -161h-150l362 706h550v-111h-325v-169h234v-110h-234v-205h335v-111h-481v161z"/>
<glyph glyph-name="Ccedilla" horiz-adv-x="707" unicode="Ç" d="M271 -156q7 -5 21 -10t34 -5q23 0 35.5 8.5t12.5 27.5q0 18 -14 29.5t-47 11.5h-9t-12 -1l32 82q-72 9 -126 40t-91 79.5t-55.5 111.5t-18.5 136q0 81 23 148t67 116t108 76t147 27q94 0 169 -35t129 -120l-139 -70q-23 47 -64 72.5t-94 25.5q-48 0 -84 -18.5t-60 -51 t-35.5 -76.5t-11.5 -94t12.5 -94t37 -77t60 -52.5t81.5 -19.5q54 0 95 27t67 87l138 -70q-48 -85 -116 -126t-165 -44l-15 -34q40 -5 68 -25t28 -63q0 -51 -38.5 -76.5t-98.5 -25.5q-29 0 -55 4.5t-40 15.5z"/>
<glyph glyph-name="Egrave" horiz-adv-x="578" unicode="È" d="M139 857h153l78 -110h-103zM63 706h470v-111h-324v-169h234v-110h-234v-205h335v-111h-481v706z"/>
<glyph glyph-name="Eacute" horiz-adv-x="578" unicode="É" d="M320 747h-103l78 110h153zM63 706h470v-111h-324v-169h234v-110h-234v-205h335v-111h-481v706z"/>
<glyph glyph-name="Ecircumflex" horiz-adv-x="578" unicode="Ê" d="M219 865h161l85 -118h-103l-63 57l-62 -57h-103zM63 706h470v-111h-324v-169h234v-110h-234v-205h335v-111h-481v706z"/>
<glyph glyph-name="Edieresis" horiz-adv-x="578" unicode="Ë" d="M338 854h133v-103h-133v103zM127 854h132v-103h-132v103zM63 706h470v-111h-324v-169h234v-110h-234v-205h335v-111h-481v706z"/>
<glyph glyph-name="Igrave" horiz-adv-x="286" unicode="Ì" d="M-17 857h153l78 -110h-103zM70 706h146v-706h-146v706z"/>
<glyph glyph-name="Iacute" horiz-adv-x="286" unicode="Í" d="M174 747h-103l78 110h153zM70 706h146v-706h-146v706z"/>
<glyph glyph-name="Icircumflex" horiz-adv-x="286" unicode="Î" d="M64 865h161l85 -118h-103l-63 57l-62 -57h-103zM70 706h146v-706h-146v706z"/>
<glyph glyph-name="Idieresis" horiz-adv-x="286" unicode="Ï" d="M182 854h133v-103h-133v103zM-29 854h132v-103h-132v103zM70 706h146v-706h-146v706z"/>
<glyph glyph-name="Eth" horiz-adv-x="716" unicode="Ð" d="M318 111q62 0 102.5 20t64 53.5t33 77.5t9.5 92t-9.5 91.5t-33.5 77t-65.5 53t-104.5 19.5h-95v-189h142v-98h-142v-197h99zM73 308h-53v98h53v300h242q182 0 275.5 -84.5t93.5 -268.5q0 -175 -94.5 -264t-266.5 -89h-250v308z"/>
<glyph glyph-name="Ntilde" horiz-adv-x="693" unicode="Ñ" d="M179 746q3 21 8.5 43t16.5 39t28 28t43 11q19 0 38 -5t36 -11t32 -11t27 -5q14 0 21.5 7.5t12.5 26.5h85q-3 -24 -9 -45.5t-17.5 -38.5t-28.5 -27t-43 -10q-19 0 -37.5 5.5t-35.5 12t-32 12t-27 5.5t-20.5 -8.5t-13.5 -28.5h-84zM63 706h162q42 -76 80 -143.5t72 -129.5 t64.5 -119t57.5 -111q-5 131 -5.5 254.5t-0.5 248.5h137v-706h-162q-36 64 -75 133.5t-75.5 136.5t-69 127.5t-54.5 105.5q5 -121 5 -233q0 -11 -0.5 -29t-0.5 -43q0 -98 2 -198h-137v706z"/>
<glyph glyph-name="Ograve" horiz-adv-x="755" unicode="Ò" d="M217 857h153l78 -110h-103zM377 111q84 0 136.5 61.5t52.5 179.5q0 56 -13.5 100.5t-38.5 76t-60.5 48.5t-79.5 17q-88 0 -137 -65t-49 -177q0 -59 15 -104t40.5 -75.5t60 -46t73.5 -15.5zM377 -16q-72 0 -134.5 23.5t-109.5 70t-74 115t-27 159.5t27 160t74 115.5 t109.5 70t134.5 23.5t135 -23.5t110 -69.5t74 -115.5t27 -160.5t-28 -159.5t-75 -115t-110 -70t-133 -23.5z"/>
<glyph glyph-name="Oacute" horiz-adv-x="755" unicode="Ó" d="M407 747h-103l78 110h153zM377 111q84 0 136.5 61.5t52.5 179.5q0 56 -13.5 100.5t-38.5 76t-60.5 48.5t-79.5 17q-88 0 -137 -65t-49 -177q0 -59 15 -104t40.5 -75.5t60 -46t73.5 -15.5zM377 -16q-72 0 -134.5 23.5t-109.5 70t-74 115t-27 159.5t27 160t74 115.5 t109.5 70t134.5 23.5t135 -23.5t110 -69.5t74 -115.5t27 -160.5t-28 -159.5t-75 -115t-110 -70t-133 -23.5z"/>
<glyph glyph-name="Ocircumflex" horiz-adv-x="755" unicode="Ô" d="M295 865h161l85 -118h-103l-63 57l-62 -57h-103zM377 111q84 0 136.5 61.5t52.5 179.5q0 56 -13.5 100.5t-38.5 76t-60.5 48.5t-79.5 17q-88 0 -137 -65t-49 -177q0 -59 15 -104t40.5 -75.5t60 -46t73.5 -15.5zM377 -16q-72 0 -134.5 23.5t-109.5 70t-74 115t-27 159.5 t27 160t74 115.5t109.5 70t134.5 23.5t135 -23.5t110 -69.5t74 -115.5t27 -160.5t-28 -159.5t-75 -115t-110 -70t-133 -23.5z"/>
<glyph glyph-name="Otilde" horiz-adv-x="755" unicode="Õ" d="M202 746q3 21 8.5 43t16.5 39t28 28t43 11q19 0 38 -5t36 -11t32 -11t27 -5q14 0 21.5 7.5t12.5 26.5h85q-3 -24 -9 -45.5t-17.5 -38.5t-28.5 -27t-43 -10q-19 0 -37.5 5.5t-35.5 12t-32 12t-27 5.5t-20.5 -8.5t-13.5 -28.5h-84zM377 111q84 0 136.5 61.5t52.5 179.5 q0 56 -13.5 100.5t-38.5 76t-60.5 48.5t-79.5 17q-88 0 -137 -65t-49 -177q0 -59 15 -104t40.5 -75.5t60 -46t73.5 -15.5zM377 -16q-72 0 -134.5 23.5t-109.5 70t-74 115t-27 159.5t27 160t74 115.5t109.5 70t134.5 23.5t135 -23.5t110 -69.5t74 -115.5t27 -160.5 t-28 -159.5t-75 -115t-110 -70t-133 -23.5z"/>
<glyph glyph-name="Odieresis" horiz-adv-x="755" unicode="Ö" d="M415 854h133v-103h-133v103zM204 854h132v-103h-132v103zM377 111q84 0 136.5 61.5t52.5 179.5q0 56 -13.5 100.5t-38.5 76t-60.5 48.5t-79.5 17q-88 0 -137 -65t-49 -177q0 -59 15 -104t40.5 -75.5t60 -46t73.5 -15.5zM377 -16q-72 0 -134.5 23.5t-109.5 70t-74 115 t-27 159.5t27 160t74 115.5t109.5 70t134.5 23.5t135 -23.5t110 -69.5t74 -115.5t27 -160.5t-28 -159.5t-75 -115t-110 -70t-133 -23.5z"/>
<glyph glyph-name="multiply" horiz-adv-x="560" unicode="×" d="M44 132l161 161l-157 156l74 74l157 -156l159 159l73 -73l-160 -159l165 -163l-76 -74l-163 163l-161 -161z"/>
<glyph glyph-name="Oslash" horiz-adv-x="755" unicode="Ø" d="M187 352q0 -44 9.5 -83.5t28.5 -68.5l233 375q-35 19 -84 19q-88 0 -137.5 -65t-49.5 -177zM377 111q84 0 136.5 61.5t52.5 179.5q0 93 -37 155l-233 -376q15 -9 36.5 -14.5t44.5 -5.5zM377 -16q-42 0 -81 8t-71 23l-39 -64l-83 49l41 66q-52 47 -82 118t-30 168 q0 91 27 160t74 115.5t109.5 70t134.5 23.5q41 0 81.5 -8t70.5 -23l39 64l81 -48l-41 -66q53 -47 84 -118.5t31 -169.5q0 -91 -28 -159.5t-75 -115t-110 -70t-133 -23.5z"/>
<glyph glyph-name="Ugrave" horiz-adv-x="687" unicode="Ù" d="M177 857h153l78 -110h-103zM63 706h146v-449q0 -78 35 -112t99 -34t99 34t35 109v452h146v-460q0 -41 -9.5 -87t-39 -85t-85 -64.5t-146.5 -25.5q-92 0 -147 25.5t-84.5 64.5t-39 85t-9.5 87v460z"/>
<glyph glyph-name="Uacute" horiz-adv-x="687" unicode="Ú" d="M382 747h-103l78 110h153zM63 706h146v-449q0 -78 35 -112t99 -34t99 34t35 109v452h146v-460q0 -41 -9.5 -87t-39 -85t-85 -64.5t-146.5 -25.5q-92 0 -147 25.5t-84.5 64.5t-39 85t-9.5 87v460z"/>
<glyph glyph-name="Ucircumflex" horiz-adv-x="687" unicode="Û" d="M263 865h161l85 -118h-103l-63 57l-62 -57h-103zM63 706h146v-449q0 -78 35 -112t99 -34t99 34t35 109v452h146v-460q0 -41 -9.5 -87t-39 -85t-85 -64.5t-146.5 -25.5q-92 0 -147 25.5t-84.5 64.5t-39 85t-9.5 87v460z"/>
<glyph glyph-name="Udieresis" horiz-adv-x="687" unicode="Ü" d="M382 854h133v-103h-133v103zM171 854h132v-103h-132v103zM63 706h146v-449q0 -78 35 -112t99 -34t99 34t35 109v452h146v-460q0 -41 -9.5 -87t-39 -85t-85 -64.5t-146.5 -25.5q-92 0 -147 25.5t-84.5 64.5t-39 85t-9.5 87v460z"/>
<glyph glyph-name="Yacute" horiz-adv-x="680" unicode="Ý" d="M373 747h-103l78 110h153zM264 316l-251 390h167l159 -279l162 279h166l-257 -390v-316h-146v316z"/>
<glyph glyph-name="Thorn" horiz-adv-x="634" unicode="Þ" d="M317 240q29 0 53 5.5t41.5 19t27 36.5t9.5 57q0 30 -10.5 50t-28.5 33t-42 18.5t-51 5.5h-107v-225h108zM63 706h146v-130h130q52 0 100 -12t84.5 -38t58.5 -67.5t22 -100.5q0 -65 -20.5 -109.5t-56 -72.5t-84 -40t-103.5 -12h-131v-124h-146v706z"/>
<glyph glyph-name="germandbls" horiz-adv-x="572" unicode="ß" d="M542 215q0 -49 -12.5 -90.5t-39.5 -71.5t-69 -47t-100 -17q-28 0 -45.5 1.5t-28.5 4.5v100q25 -5 49 -5q53 0 78.5 37t25.5 91q0 62 -37 98t-104 36v97q27 0 46 9t31 22.5t17.5 30.5t5.5 33q0 35 -21 58t-61 23q-46 0 -66 -32t-20 -107v-486h-136v483q0 42 8 85t32 77.5 t68 56.5t116 22q58 0 99 -15t67.5 -39t39 -53.5t12.5 -58.5q0 -35 -10 -61t-26.5 -44.5t-38 -29.5t-44.5 -15q23 -5 51.5 -16.5t53.5 -33.5t42 -57t17 -86z"/>
<glyph glyph-name="agrave" horiz-adv-x="531" unicode="à" d="M127 714h153l70 -137h-103zM337 236l-87 -16q-45 -8 -65 -25t-20 -46t18 -48.5t50 -19.5q43 0 73.5 32.5t30.5 89.5v33zM360 0q-6 14 -9.5 33.5t-5.5 37.5q-16 -37 -52.5 -62t-94.5 -25q-78 0 -120.5 45t-42.5 115q0 39 14 66.5t39 46.5t60 30.5t78 17.5l111 17v19 q0 44 -21.5 58t-55.5 14q-51 0 -85.5 -19t-60.5 -45l-65 90q31 30 88 54t140 24q105 0 151 -46t46 -140v-188q0 -29 0.5 -49t2.5 -35.5t6 -29.5t10 -29h-133z"/>
<glyph glyph-name="aacute" horiz-adv-x="531" unicode="á" d="M306 577h-102l70 137h153zM337 236l-87 -16q-45 -8 -65 -25t-20 -46t18 -48.5t50 -19.5q43 0 73.5 32.5t30.5 89.5v33zM360 0q-6 14 -9.5 33.5t-5.5 37.5q-16 -37 -52.5 -62t-94.5 -25q-78 0 -120.5 45t-42.5 115q0 39 14 66.5t39 46.5t60 30.5t78 17.5l111 17v19 q0 44 -21.5 58t-55.5 14q-51 0 -85.5 -19t-60.5 -45l-65 90q31 30 88 54t140 24q105 0 151 -46t46 -140v-188q0 -29 0.5 -49t2.5 -35.5t6 -29.5t10 -29h-133z"/>
<glyph glyph-name="acircumflex" horiz-adv-x="531" unicode="â" d="M189 714h161l85 -137h-103l-63 78l-63 -78h-102zM337 236l-87 -16q-45 -8 -65 -25t-20 -46t18 -48.5t50 -19.5q43 0 73.5 32.5t30.5 89.5v33zM360 0q-6 14 -9.5 33.5t-5.5 37.5q-16 -37 -52.5 -62t-94.5 -25q-78 0 -120.5 45t-42.5 115q0 39 14 66.5t39 46.5t60 30.5 t78 17.5l111 17v19q0 44 -21.5 58t-55.5 14q-51 0 -85.5 -19t-60.5 -45l-65 90q31 30 88 54t140 24q105 0 151 -46t46 -140v-188q0 -29 0.5 -49t2.5 -35.5t6 -29.5t10 -29h-133z"/>
<glyph glyph-name="atilde" horiz-adv-x="531" unicode="ã" d="M96 587q3 21 8.5 43t16 40t28 29t43.5 11q19 0 38 -5.5t36 -11.5t32 -11.5t27 -5.5q14 0 21.5 7t12.5 27h85q-3 -24 -9 -46t-17 -39t-28.5 -27.5t-43.5 -10.5q-19 0 -37.5 5.5t-35.5 12.5t-32 12.5t-27 5.5t-20.5 -8t-13.5 -28h-84zM337 236l-87 -16q-45 -8 -65 -25 t-20 -46t18 -48.5t50 -19.5q43 0 73.5 32.5t30.5 89.5v33zM360 0q-6 14 -9.5 33.5t-5.5 37.5q-16 -37 -52.5 -62t-94.5 -25q-78 0 -120.5 45t-42.5 115q0 39 14 66.5t39 46.5t60 30.5t78 17.5l111 17v19q0 44 -21.5 58t-55.5 14q-51 0 -85.5 -19t-60.5 -45l-65 90 q31 30 88 54t140 24q105 0 151 -46t46 -140v-188q0 -29 0.5 -49t2.5 -35.5t6 -29.5t10 -29h-133z"/>
<glyph glyph-name="adieresis" horiz-adv-x="531" unicode="ä" d="M307 700h133v-111h-133v111zM96 700h132v-111h-132v111zM337 236l-87 -16q-45 -8 -65 -25t-20 -46t18 -48.5t50 -19.5q43 0 73.5 32.5t30.5 89.5v33zM360 0q-6 14 -9.5 33.5t-5.5 37.5q-16 -37 -52.5 -62t-94.5 -25q-78 0 -120.5 45t-42.5 115q0 39 14 66.5t39 46.5 t60 30.5t78 17.5l111 17v19q0 44 -21.5 58t-55.5 14q-51 0 -85.5 -19t-60.5 -45l-65 90q31 30 88 54t140 24q105 0 151 -46t46 -140v-188q0 -29 0.5 -49t2.5 -35.5t6 -29.5t10 -29h-133z"/>
<glyph glyph-name="aring" horiz-adv-x="531" unicode="å" d="M268 624q23 0 35.5 14t12.5 34t-12.5 34t-35.5 14t-35 -14t-12 -34t12.5 -34t34.5 -14zM268 563q-24 0 -44.5 8.5t-35.5 23t-23.5 34.5t-8.5 43t8.5 42.5t23.5 34t35.5 23t44.5 8.5q49 0 80.5 -31t31.5 -77q0 -23 -8.5 -43t-23.5 -34.5t-35.5 -23t-44.5 -8.5zM337 236 l-87 -16q-45 -8 -65 -25t-20 -46t18 -48.5t50 -19.5q43 0 73.5 32.5t30.5 89.5v33zM360 0q-6 14 -9.5 33.5t-5.5 37.5q-16 -37 -52.5 -62t-94.5 -25q-78 0 -120.5 45t-42.5 115q0 39 14 66.5t39 46.5t60 30.5t78 17.5l111 17v19q0 44 -21.5 58t-55.5 14q-51 0 -85.5 -19 t-60.5 -45l-65 90q31 30 88 54t140 24q105 0 151 -46t46 -140v-188q0 -29 0.5 -49t2.5 -35.5t6 -29.5t10 -29h-133z"/>
<glyph glyph-name="ae" horiz-adv-x="847" unicode="æ" d="M338 219h-64q-32 0 -53 -5.5t-33.5 -15.5t-17.5 -23t-5 -29q0 -26 18 -45t50 -19q43 0 74 32.5t31 89.5v15zM578 417q-46 0 -71.5 -31t-31.5 -88h202q0 23 -5.5 44.5t-17.5 38t-31 26.5t-45 10zM277 517q56 0 92 -15t58 -41q27 26 65 41t89 15q57 0 101 -20t74 -55.5 t45 -85t15 -108.5q0 -13 -0.5 -19.5t-0.5 -9.5h-340q8 -70 40 -101.5t81 -31.5q72 0 109 67l101 -57q-35 -55 -90 -83.5t-127 -28.5q-67 0 -115.5 23t-79.5 64q-12 -15 -29 -30.5t-40 -28t-53 -20.5t-68 -8q-82 0 -125.5 45t-43.5 115q0 68 41.5 105t120.5 45q7 1 18 1.5 t22.5 1t22.5 1t17 0.5h61v43q0 44 -22 58t-56 14q-51 0 -85.5 -19t-60.5 -45l-65 90q31 30 88 54t140 24z"/>
<glyph glyph-name="ccedilla" horiz-adv-x="516" unicode="ç" d="M182 -156q7 -5 21 -10t34 -5q23 0 35.5 8.5t12.5 27.5q0 18 -14 29.5t-47 11.5h-9t-12 -1l32 82q-53 7 -91.5 30t-63 57.5t-36.5 79.5t-12 95q0 60 16.5 109t48 84.5t77.5 55t105 19.5q77 0 129.5 -32.5t87.5 -93.5l-113 -55q-16 40 -41.5 58.5t-58.5 18.5 q-29 0 -49.5 -12t-34 -33t-20 -49.5t-6.5 -61.5q0 -29 5.5 -59t19 -54t36 -39.5t57.5 -15.5q40 0 65.5 21t40.5 58l102 -61q-31 -57 -79 -86.5t-111 -35.5l-15 -34q40 -5 68 -25t28 -63q0 -51 -38.5 -76.5t-98.5 -25.5q-29 0 -55 4.5t-40 15.5z"/>
<glyph glyph-name="egrave" horiz-adv-x="544" unicode="è" d="M130 714h153l70 -137h-103zM275 417q-47 0 -72.5 -31.5t-31.5 -88.5h203q0 24 -6 45.5t-18 38t-30.5 26.5t-44.5 10zM171 219q8 -70 40.5 -101.5t81.5 -31.5q72 0 109 67l101 -57q-35 -55 -90 -83.5t-127 -28.5q-62 0 -109.5 20.5t-79.5 56t-48.5 84t-16.5 104.5 q0 57 16.5 106t48 85t77 56.5t104.5 20.5q57 0 100.5 -20t73.5 -55.5t45 -85t15 -108.5q0 -13 -0.5 -19.5t-0.5 -9.5h-340z"/>
<glyph glyph-name="eacute" horiz-adv-x="544" unicode="é" d="M307 577h-102l70 137h153zM275 417q-47 0 -72.5 -31.5t-31.5 -88.5h203q0 24 -6 45.5t-18 38t-30.5 26.5t-44.5 10zM171 219q8 -70 40.5 -101.5t81.5 -31.5q72 0 109 67l101 -57q-35 -55 -90 -83.5t-127 -28.5q-62 0 -109.5 20.5t-79.5 56t-48.5 84t-16.5 104.5 q0 57 16.5 106t48 85t77 56.5t104.5 20.5q57 0 100.5 -20t73.5 -55.5t45 -85t15 -108.5q0 -13 -0.5 -19.5t-0.5 -9.5h-340z"/>
<glyph glyph-name="ecircumflex" horiz-adv-x="544" unicode="ê" d="M204 714h161l85 -137h-103l-63 78l-63 -78h-102zM275 417q-47 0 -72.5 -31.5t-31.5 -88.5h203q0 24 -6 45.5t-18 38t-30.5 26.5t-44.5 10zM171 219q8 -70 40.5 -101.5t81.5 -31.5q72 0 109 67l101 -57q-35 -55 -90 -83.5t-127 -28.5q-62 0 -109.5 20.5t-79.5 56t-48.5 84 t-16.5 104.5q0 57 16.5 106t48 85t77 56.5t104.5 20.5q57 0 100.5 -20t73.5 -55.5t45 -85t15 -108.5q0 -13 -0.5 -19.5t-0.5 -9.5h-340z"/>
<glyph glyph-name="edieresis" horiz-adv-x="544" unicode="ë" d="M320 700h133v-111h-133v111zM109 700h132v-111h-132v111zM275 417q-47 0 -72.5 -31.5t-31.5 -88.5h203q0 24 -6 45.5t-18 38t-30.5 26.5t-44.5 10zM171 219q8 -70 40.5 -101.5t81.5 -31.5q72 0 109 67l101 -57q-35 -55 -90 -83.5t-127 -28.5q-62 0 -109.5 20.5t-79.5 56 t-48.5 84t-16.5 104.5q0 57 16.5 106t48 85t77 56.5t104.5 20.5q57 0 100.5 -20t73.5 -55.5t45 -85t15 -108.5q0 -13 -0.5 -19.5t-0.5 -9.5h-340z"/>
<glyph glyph-name="igrave" horiz-adv-x="245" unicode="ì" d="M-33 714h153l70 -137h-103zM55 502h136v-502h-136v502z"/>
<glyph glyph-name="iacute" horiz-adv-x="245" unicode="í" d="M159 577h-102l70 137h153zM55 502h136v-502h-136v502z"/>
<glyph glyph-name="icircumflex" horiz-adv-x="245" unicode="î" d="M43 714h161l85 -137h-103l-63 78l-63 -78h-102zM55 502h136v-502h-136v502z"/>
<glyph glyph-name="idieresis" horiz-adv-x="245" unicode="ï" d="M163 700h133v-111h-133v111zM-48 700h132v-111h-132v111zM55 502h136v-502h-136v502z"/>
<glyph glyph-name="eth" horiz-adv-x="553" unicode="ð" d="M281 84q27 0 46.5 14t31.5 36.5t17.5 51.5t5.5 60q0 25 -5 52.5t-17.5 50.5t-32.5 37.5t-50 14.5q-32 0 -52 -15.5t-32 -39.5t-16.5 -52t-4.5 -53q0 -24 5.5 -51.5t18 -51t33.5 -39t52 -15.5zM165 596l81 43q-23 20 -40 31.5t-40 20.5l86 76q58 -28 103 -71l81 42l34 -63 l-63 -34q34 -41 56 -85.5t35 -89.5t18.5 -88t5.5 -82q0 -151 -60.5 -231.5t-189.5 -80.5q-59 0 -104 20t-75.5 54.5t-46 81.5t-15.5 101t15 101.5t43.5 82t69.5 54.5t93 20q46 0 77 -16t46 -42q-3 18 -11 38.5t-18.5 40.5t-23 37.5t-24.5 28.5l-97 -52z"/>
<glyph glyph-name="ntilde" horiz-adv-x="561" unicode="ñ" d="M116 587q3 21 8.5 43t16 40t28 29t43.5 11q19 0 38 -5.5t36 -11.5t32 -11.5t27 -5.5q14 0 21.5 7t12.5 27h85q-3 -24 -9 -46t-17 -39t-28.5 -27.5t-43.5 -10.5q-19 0 -37.5 5.5t-35.5 12.5t-32 12.5t-27 5.5t-20.5 -8t-13.5 -28h-84zM55 502h121l11 -81q21 39 63 67.5 t98 28.5q82 0 121.5 -51.5t39.5 -151.5v-314h-136v281q0 63 -21 90t-62 27q-43 0 -71 -35t-28 -115v-248h-136v502z"/>
<glyph glyph-name="ograve" horiz-adv-x="554" unicode="ò" d="M128 714h153l70 -137h-103zM280 89q51 0 76 45t25 117q0 71 -26 116.5t-78 45.5q-53 0 -78.5 -45.5t-25.5 -116.5q0 -72 26 -117t81 -45zM277 -16q-62 0 -108 20.5t-76.5 56.5t-46 84.5t-15.5 105.5t16 105.5t47.5 84t77 56t105.5 20.5t106 -20t77 -56t47 -84.5 t16 -105.5t-16 -105.5t-47 -84.5t-77 -56.5t-106 -20.5z"/>
<glyph glyph-name="oacute" horiz-adv-x="554" unicode="ó" d="M306 577h-102l70 137h153zM280 89q51 0 76 45t25 117q0 71 -26 116.5t-78 45.5q-53 0 -78.5 -45.5t-25.5 -116.5q0 -72 26 -117t81 -45zM277 -16q-62 0 -108 20.5t-76.5 56.5t-46 84.5t-15.5 105.5t16 105.5t47.5 84t77 56t105.5 20.5t106 -20t77 -56t47 -84.5t16 -105.5 t-16 -105.5t-47 -84.5t-77 -56.5t-106 -20.5z"/>
<glyph glyph-name="ocircumflex" horiz-adv-x="554" unicode="ô" d="M196 714h161l85 -137h-103l-63 78l-63 -78h-102zM280 89q51 0 76 45t25 117q0 71 -26 116.5t-78 45.5q-53 0 -78.5 -45.5t-25.5 -116.5q0 -72 26 -117t81 -45zM277 -16q-62 0 -108 20.5t-76.5 56.5t-46 84.5t-15.5 105.5t16 105.5t47.5 84t77 56t105.5 20.5t106 -20 t77 -56t47 -84.5t16 -105.5t-16 -105.5t-47 -84.5t-77 -56.5t-106 -20.5z"/>
<glyph glyph-name="otilde" horiz-adv-x="554" unicode="õ" d="M103 587q3 21 8.5 43t16 40t28 29t43.5 11q19 0 38 -5.5t36 -11.5t32 -11.5t27 -5.5q14 0 21.5 7t12.5 27h85q-3 -24 -9 -46t-17 -39t-28.5 -27.5t-43.5 -10.5q-19 0 -37.5 5.5t-35.5 12.5t-32 12.5t-27 5.5t-20.5 -8t-13.5 -28h-84zM280 89q51 0 76 45t25 117 q0 71 -26 116.5t-78 45.5q-53 0 -78.5 -45.5t-25.5 -116.5q0 -72 26 -117t81 -45zM277 -16q-62 0 -108 20.5t-76.5 56.5t-46 84.5t-15.5 105.5t16 105.5t47.5 84t77 56t105.5 20.5t106 -20t77 -56t47 -84.5t16 -105.5t-16 -105.5t-47 -84.5t-77 -56.5t-106 -20.5z"/>
<glyph glyph-name="odieresis" horiz-adv-x="554" unicode="ö" d="M317 700h133v-111h-133v111zM106 700h132v-111h-132v111zM280 89q51 0 76 45t25 117q0 71 -26 116.5t-78 45.5q-53 0 -78.5 -45.5t-25.5 -116.5q0 -72 26 -117t81 -45zM277 -16q-62 0 -108 20.5t-76.5 56.5t-46 84.5t-15.5 105.5t16 105.5t47.5 84t77 56t105.5 20.5 t106 -20t77 -56t47 -84.5t16 -105.5t-16 -105.5t-47 -84.5t-77 -56.5t-106 -20.5z"/>
<glyph glyph-name="divide" horiz-adv-x="560" unicode="÷" d="M32 345h496v-102h-496v102zM211 552h138v-142h-138v142zM211 176h138v-143h-138v143z"/>
<glyph glyph-name="oslash" horiz-adv-x="554" unicode="ø" d="M280 89q51 0 76 45t25 117q0 38 -6 65l-153 -207q23 -20 58 -20zM173 251q0 -17 1.5 -37t6.5 -35l155 211q-11 11 -26 17t-33 6q-53 0 -78.5 -45.5t-25.5 -116.5zM55 7l38 53q-31 36 -46.5 85t-15.5 106t16 105.5t47.5 84t77 56t105.5 20.5q35 0 69 -8t60 -24l37 50 l63 -43l-41 -56q58 -72 58 -185q0 -57 -16 -105.5t-47 -84.5t-77 -56.5t-106 -20.5q-74 0 -126 30l-36 -49z"/>
<glyph glyph-name="ugrave" horiz-adv-x="558" unicode="ù" d="M116 714h153l70 -137h-103zM52 502h136v-286q0 -112 79 -112q48 0 74.5 37.5t26.5 110.5v250h136v-502h-128v85q-20 -43 -54.5 -70t-99.5 -27q-87 0 -128.5 50.5t-41.5 145.5v318z"/>
<glyph glyph-name="uacute" horiz-adv-x="558" unicode="ú" d="M325 577h-102l70 137h153zM52 502h136v-286q0 -112 79 -112q48 0 74.5 37.5t26.5 110.5v250h136v-502h-128v85q-20 -43 -54.5 -70t-99.5 -27q-87 0 -128.5 50.5t-41.5 145.5v318z"/>
<glyph glyph-name="ucircumflex" horiz-adv-x="558" unicode="û" d="M199 714h161l85 -137h-103l-63 78l-63 -78h-102zM52 502h136v-286q0 -112 79 -112q48 0 74.5 37.5t26.5 110.5v250h136v-502h-128v85q-20 -43 -54.5 -70t-99.5 -27q-87 0 -128.5 50.5t-41.5 145.5v318z"/>
<glyph glyph-name="udieresis" horiz-adv-x="558" unicode="ü" d="M318 700h133v-111h-133v111zM107 700h132v-111h-132v111zM52 502h136v-286q0 -112 79 -112q48 0 74.5 37.5t26.5 110.5v250h136v-502h-128v85q-20 -43 -54.5 -70t-99.5 -27q-87 0 -128.5 50.5t-41.5 145.5v318z"/>
<glyph glyph-name="yacute" horiz-adv-x="517" unicode="ý" d="M295 577h-102l70 137h153zM57 -71q16 -5 33.5 -8.5t32.5 -3.5q27 0 41 14.5t26 53.5l-177 517h146l100 -366l99 366h146l-167 -485q-17 -48 -32 -85.5t-37 -63.5t-55.5 -39.5t-85.5 -13.5q-9 0 -21 0.5t-24.5 1.5t-24 2.5t-18.5 3.5z"/>
<glyph glyph-name="thorn" horiz-adv-x="558" unicode="þ" d="M190 244q0 -63 25 -105.5t74 -42.5q46 0 71 41t25 113q0 69 -24 112t-75 43q-26 0 -44 -11.5t-29.5 -31.5t-17 -46.5t-5.5 -56.5v-15zM55 706h136v-281q17 38 52.5 65t93.5 27q90 0 140 -69t50 -193q0 -74 -17.5 -124.5t-46 -82.5t-64 -46t-72.5 -14q-45 0 -82 19t-54 52 v-233h-136v880z"/>
<glyph glyph-name="circumflex" horiz-adv-x="431" unicode="ˆ" d="M135 714h161l85 -137h-103l-63 78l-63 -78h-102z"/>
<glyph glyph-name="tilde" horiz-adv-x="448" unicode="˜" d="M50 587q3 21 8.5 43t16 40t28 29t43.5 11q19 0 38 -5.5t36 -11.5t32 -11.5t27 -5.5q14 0 21.5 7t12.5 27h85q-3 -24 -9 -46t-17 -39t-28.5 -27.5t-43.5 -10.5q-19 0 -37.5 5.5t-35.5 12.5t-32 12.5t-27 5.5t-20.5 -8t-13.5 -28h-84z"/>
<glyph glyph-name="endash" horiz-adv-x="618" unicode="–" d="M48 358h522v-118h-522v118z"/>
<glyph glyph-name="emdash" horiz-adv-x="878" unicode="—" d="M48 358h782v-118h-782v118z"/>
<glyph glyph-name="quoteleft" horiz-adv-x="255" unicode="‘" d="M203 665q-22 -11 -36 -21.5t-21.5 -22.5t-10 -26t-2.5 -31v-15h70v-146h-151v149q0 38 7.5 66t22.5 48.5t37.5 35.5t53.5 27z"/>
<glyph glyph-name="quotesinglbase" horiz-adv-x="255" unicode="‚" d="M52 -116q44 21 57 44t13 56v16h-69v146h150v-149q0 -38 -7.5 -66t-22.5 -49t-37.5 -36t-53.5 -27z"/>
<glyph glyph-name="quotedblleft" horiz-adv-x="466" unicode="“" d="M414 665q-23 -11 -36.5 -21.5t-21 -22.5t-10 -26t-2.5 -31v-15h69v-146h-151v149q0 38 7.5 66t22.5 48.5t38 35.5t54 27zM203 665q-22 -11 -36 -21.5t-21.5 -22.5t-10 -26t-2.5 -31v-15h70v-146h-151v149q0 38 7.5 66t22.5 48.5t37.5 35.5t53.5 27z"/>
<glyph glyph-name="quotedblright" horiz-adv-x="466" unicode="”" d="M52 444q22 10 36 21t21.5 23t10 26t2.5 31v15h-69v146h150v-149q0 -38 -7.5 -66t-22.5 -49t-37.5 -36t-53.5 -27zM262 444q22 10 36 21t21.5 23t10 26t2.5 31v15h-69v146h151v-149q0 -38 -7.5 -66t-22.5 -49t-38 -36t-54 -27z"/>
</font>
</defs>
</svg>
